<mxfile host="65bd71144e">
    <diagram id="tsFsGz0Omq25H43sg7br" name="Page-1">
        <mxGraphModel dx="746" dy="543" grid="1" gridSize="10" guides="1" tooltips="1" connect="1" arrows="1" fold="1" page="1" pageScale="1" pageWidth="850" pageHeight="1100" background="#ffffff" math="0" shadow="0">
            <root>
                <mxCell id="0"/>
                <mxCell id="1" parent="0"/>
                <mxCell id="4" value="" style="rounded=0;whiteSpace=wrap;html=1;dashed=1;strokeColor=#3b83bd;strokeWidth=2;" vertex="1" parent="1">
                    <mxGeometry x="20" y="120" width="120" height="360" as="geometry"/>
                </mxCell>
                <mxCell id="5" value="&lt;b&gt;&lt;font style=&quot;font-size: 13px;&quot;&gt;Client Apps&lt;/font&gt;&lt;/b&gt;" style="text;html=1;strokeColor=none;fillColor=none;align=center;verticalAlign=middle;whiteSpace=wrap;rounded=0;dashed=1;" vertex="1" parent="1">
                    <mxGeometry x="31" y="127" width="100" height="30" as="geometry"/>
                </mxCell>
                <mxCell id="6" value="" style="rounded=0;whiteSpace=wrap;html=1;dashed=1;strokeColor=#3b83bd;strokeWidth=2;" vertex="1" parent="1">
                    <mxGeometry x="220" y="120" width="400" height="360" as="geometry"/>
                </mxCell>
                <mxCell id="7" value="" style="rounded=0;whiteSpace=wrap;html=1;dashed=1;strokeColor=#3b83bd;strokeWidth=2;" vertex="1" parent="1">
                    <mxGeometry x="655" y="120" width="120" height="360" as="geometry"/>
                </mxCell>
                <mxCell id="8" value="&lt;b&gt;&lt;font style=&quot;font-size: 13px;&quot;&gt;Database&lt;/font&gt;&lt;/b&gt;" style="text;html=1;strokeColor=none;fillColor=none;align=center;verticalAlign=middle;whiteSpace=wrap;rounded=0;dashed=1;" vertex="1" parent="1">
                    <mxGeometry x="663" y="132" width="100" height="30" as="geometry"/>
                </mxCell>
                <mxCell id="9" value="" style="sketch=0;aspect=fixed;html=1;points=[];align=center;image;fontSize=12;image=img/lib/mscae/Azure_Database_for_PostgreSQL_servers.svg;dashed=1;strokeColor=#08f7e7;strokeWidth=2;" vertex="1" parent="1">
                    <mxGeometry x="686.6" y="265" width="60.8" height="80" as="geometry"/>
                </mxCell>
                <mxCell id="10" value="" style="dashed=0;outlineConnect=0;html=1;align=center;labelPosition=center;verticalLabelPosition=bottom;verticalAlign=top;shape=mxgraph.weblogos.java;strokeColor=#08f7e7;strokeWidth=2;" vertex="1" parent="1">
                    <mxGeometry x="577" y="127" width="34.4" height="65" as="geometry"/>
                </mxCell>
                <mxCell id="11" value="" style="shape=image;imageAspect=0;aspect=fixed;verticalLabelPosition=bottom;verticalAlign=top;dashed=1;strokeColor=#08f7e7;strokeWidth=2;image=data:image/png,iVBORw0KGgoAAAANSUhEUgAAAOEAAADhCAMAAAAJbSJIAAAAzFBMVEX////DAC/dADHQADDBACXcACfCACvCACjdAC3dAC/AABrBACDcACW+AADDACTocoLXcoHbABvcACHbABXgMUzIMUrtxsy/ABH13eHbAA7cAB/78fPmrLTdj5q/AAjbABftmqTptr3wq7TNSl7GFjrfIELkWWzvo6z419vaAAD75unjS2DqhJHpeYjytLzag47hO1PmYnTkpK3skZ3ZeYbJLEfPU2XhmqT1xMvqgY7PAB387vH30NXVaXjGEjfeFDvKAADcipXLPVTSXG1tpM47AAALT0lEQVR4nO2da1faTBSFwy3ctYAttxaoVgRFWl9rS6utvfz///RmEqKBc2YyM+dApGuejy5XZAvsPWcnk3iew+FwOBwOh8PhcDgcDofD4XA4HA4HwsP19x9vsn4Ru6N3+9hpFIrd8sdZ1i9lF9xfnPTblXy+kMv5R90PXy+zfkG8DJdXcyEvHyoM8OvNP/8Ns35ZbKxuOoNI3pPCUOToy/usXxoHD9ftcamazwOFAeVa7dB9p3db7TQS8rYUBhS79cP1nfvJSX9LHlR4wL5zetVvV7blYQqjr+TrA/Od1U1/gMmTKIzM9XB8J/CWVgmXJ1cY+k73EHynd5vf9hZdhYfgO/eTc8RbDBSGvpN790J9ZyjzFiOFse/cZy0HsJp2ZN5iqjASefaifOfheNwqpXw6jRTmhO80X4rvzBb5jq48A4U54TtHnzP3nUsNb7FWGPrOz3e97OQNTz/peAtBYS78St5ltN55P5WuW1R8N1QYimzu33cejgfa3rJBa1kzl7j39c5sUTLxliSVK++sbCMx8J1abT++Y+4tSTor703XTmHAHnzHyluSb+FjcJAPvrXEXa93ltO5jbckaJ0Gh3lr9U1MiGyevd2Fub45bilmIj2qpfBQdcKbGBL4zl9m35ktKrbekqR9Gx7tXZ2oMBf5zgOXvMvJI8Fbkm9hJ/pwDe29ZkNk1//N4DtUb0lSOl4f9FWRRWK43vlK852l7kykxTz+j/eaPAojkWdv7QXO5nzywrSPsU19lHLTfiEw7DAKzHee7Y+Q+ggjQnawGMyaynniwJTUB9TtBXrnjJ/S1jJxYGLqb+D/JCic8ilcp30MOfWfKX8hKLxusClcp30MR+qvKf4gKJy0uQRW+5t2MOQLjPpXgsLlgEth43rr0Fypn8vVCHnoPYy5FPa3e2y+1K9RFuGXXIFYmYJjs6V+l3QSoM+ksAPnALbUpwS+5w14Ir9yghybK/VHFIHeJ55A3Ej7GKbU91+TFN5Qx/qQrbSP4VFICnzPW7BEfnuCHpwn9Y8+khRecARidYx7wXDEoZAU+J73vsWgEKR9DEvq12iF/4wjEEHax/Q43sQurQi/ZwjEEkz7GI7UpwW+543pgdiXt34cqU+LQ897JAcimvYx9NQnzb+CK7JCNO1j6KlPDHzPOyY3+Xnl8cmzPmn+FdxSZ+DBRHl8cuoTA9/zTomRXx2rj09u+Ov/ERWuiJHf+JbyB6ipT5p/BT1i5M/T0oo66xMDn1x7K9I+hpj6tPlXQKu9Ydqfbv+AmPqUwjuCVHtXPm0fbvgL/M9JqU8OfGLtPQbr/skvMOyQUp84/wootXcFpn2+kAM/o6R+8RVZIaX2HlxsH201LnSBvVNSnzj/Cgi1d7UDjnZVKsDPFaXhJxXeEYTau7HYPthlP/iUjkBEElKfHPik2hvO9otGoBCuJAmpT51/BdZTfukGHKtdDRT6MMLsU58e+ITauw/WU8tWeAUt7I7sU5864Qtsa2+Y9t7Jeg8pHFptU588/wpsa+/xavtIM/GBF1dBj8C7a5v6DIFvXXsjaR/2BUIhEtOWCsnzr8Cy9oZpP+xU1wpzXeAPlqnPEPi2tXd1AA40Cf9VBfyFWTb8xMI7wq72hmm/LiZDhchEYJf65PlXYFd798Elg6voPxXtt4CLU7uGnyPw7WpvJO2nyf34iAdapT5HHNrV3jDt7+f5hMJcE7zHNqnvw1HMBovaG0n7OHTWCuu/wW9YpD5L4FvV3h2Q9k99z1ohsji1SH1y4R1hXnuH2yo2WcaZE+/sQnzefNZnCXyb2nsACrXn1W2s0P8Dfsc89cmFd4Rx7V1tg2PMniLnaXfeCFxnb97wM8y/AuPae+tCS8Hzd/lJIbI4NU59lsC3qL3ncINA/ylTn3dYwiwznvU55l+BYe39tK3imcTq/Vkh8iUyTX164R1hWHvDtE8uGp4V+h/A7xmmPkPhHWFWeye2VcSsEp/zxD5guDg1TH2W+VdgVnsjaT9NrBkSCst/wW+apT5T4BvW3hvbKiI2ppPkXu4RtKQjkzeRZf4VGNXeSNpvLIqSCuvvwO8apT5D4R1hUnsjs71oSXGFyOLUqOFnCnyz2htJ++XGmmjjjgPI4tQk9XnmX4H+lL+9rUKwWbhuKCzDxalJ6nMFvkntjaT9bF5JUvCTNOEmUIPU55nwBfq1dx++4sX5SZK710nu4Pijn/pM869Au/ZG0t4c7dRnC3yD2htJe3O0U59p/hXo1t5I2tugq5At8PVr7xZMext0U5+l8I7QrL0l2yqM0W34meZfgWbtjaS9HZqpzxf4ntfRCcT4lgl0NBt+vjjUrL0bMO1t0Up9psI7Qqv2RtLeFq3UZwx8vdqbJe1jdFKfbf4V6NTeyCZKe3RSnzHwtWpvprSP0Wj4mQrvCI3aW7mtwhyN1GebfwXptTdX2sdoNPyMga9Te0s2UdqTnvp8868gtfZGZnsa6bN+jfXvpdXe2CbKVqOE8P0IoQ7bjNTUZyu8I9Jqb2QT5XJcxcDvfYm0GWmpzzj/ClJqb+SWCbJ1EK4Qy7aU1GcN/NTaG0n7S8k8Irl/KfKlSkl9xvlXoK69sU2UsuZDphCZZtUNP1vhHaGuvbG0l7mvRCHSnKakPmvgp9TeWNovZasg2V124Wn9lIafc/4VqKZ8LO2lFatMIeY1ytTnDXxl7Y3N9jKfUdwpuQv/qDL1OSd8gaL2xtJe3rBKFWJeo0h91vlXoKi9sVsmyFd5UoXIJUSq1GcOfNWbgm2ilPqM6n7eiNcoUp91/hXIa2/slgmKXkeuEHvN8tRnDnxF7Y2lvdxnlPdkx4YFqULGwjtiJot8LO1VZ3JUCpEXLU191vlXIKu90VsmtBTTpEIhZo/Shp878KW1N3bLBIXPqJ8cgHmNLPW541BWe6O3TFCeMlYpxLxG0vCzFt4RuD1it0zoKc/jKJ/+gHkNnvrsgS+rvZELLb1vymlZrRDxGjz1medfAVp7o7dMaCtbK6VCbF2Dpz574Etqb+RCS7XPpD2jBPMaNPVZC+8IrPZGtlWkXpqiVnj0GTki1vAzz78C7Ez3GEl7tc+kPmcGmaHQ1GcPfLT2RjZRpvlMqkKsfcEafu75VwAHojZ26YXaZ9Kfu4Z5zWeY+ryFdwSsvUvHkGnaudS0pyEd/XgF+AsicQeBj9beSGmfejo89XlPRQjMfPb5V8B0b2/TJ1pJ/g38gR8EIs+DElgUlpv8cRjQu+ozaGRQ6Hf/7OrBT6tz+o0i6QprPzmugJRxWqLeHZqqsF7byQc0we2Y5jg0hcUR3F3LzvCY9HWkKCw3f+zn+aQky7FXGBjM/h72+HBibTm2Cv3ah/0+lnRZtbQcS4X1HQyEadx2rCzHSmGxuQeDgQyv+xY357FQGBhMVg9ev5yaW46xQn90luHTZIXlGGo0VLh3g4Es82aWY6awXuS94sKOScvEckwUHnXhFsxMGH6b61uOvsJy81VWBgMxsBxdhRkbDOThpKOnUU+h373L2mAgmpajpfBlGAxkMtC4pF9D4YsxGMjwW/oqJ1XhizIYSLrlpDXCoy/sp6+ZmX1SW4767Fr3jnNfyq5YPVpeqZCr+dyXkOyKi5b87IXiiqER90VAu2QhtRyZwuLo80s2GMj9jcRycIX+6O9LNxiIxHIwhX739SEYDAS1HERhLXcoBgO5aIBVDlBYrx2SwUAW24PVlsJi8+NhGQxk23I2FAYGs58Se7fMNiryhMLAYHZ1lmzfJC3nSaF/yAYDOS21N+9fevAGA4kr8sJ6BcN/XVrm3B+HFwIIheXmP2EwkPCsXGGXp+GzZ3U+Luz2NHz2nBb2f5bM4XA4HA6Hw+FwOBwOx7/A/0fFGxADXZ4GAAAAAElFTkSuQmCC;" vertex="1" parent="1">
                    <mxGeometry x="36.5" y="269" width="87" height="87" as="geometry"/>
                </mxCell>
                <mxCell id="12" value="" style="sketch=0;aspect=fixed;html=1;points=[];align=center;image;fontSize=12;image=img/lib/mscae/Docker.svg;dashed=1;strokeColor=#08f7e7;strokeWidth=2;" vertex="1" parent="1">
                    <mxGeometry x="231" y="127" width="50" height="41" as="geometry"/>
                </mxCell>
                <mxCell id="14" value="" style="rounded=0;whiteSpace=wrap;html=1;strokeColor=#76BD0B;strokeWidth=3;" vertex="1" parent="1">
                    <mxGeometry x="230" y="225" width="380" height="170" as="geometry"/>
                </mxCell>
                <mxCell id="15" value="&lt;span style=&quot;font-size: 13px;&quot;&gt;&lt;b&gt;Backend&lt;/b&gt;&lt;/span&gt;" style="text;html=1;strokeColor=none;fillColor=none;align=center;verticalAlign=middle;whiteSpace=wrap;rounded=0;strokeWidth=3;" vertex="1" parent="1">
                    <mxGeometry x="382" y="127" width="70" height="30" as="geometry"/>
                </mxCell>
                <mxCell id="16" value="" style="rounded=1;whiteSpace=wrap;html=1;strokeColor=#FF9933;strokeWidth=1;fontSize=13;fontColor=#000000;" vertex="1" parent="1">
                    <mxGeometry x="501" y="230" width="100" height="100" as="geometry"/>
                </mxCell>
                <mxCell id="17" value="" style="rounded=1;whiteSpace=wrap;html=1;strokeColor=#6600CC;strokeWidth=1;fontSize=13;fontColor=#000000;" vertex="1" parent="1">
                    <mxGeometry x="378" y="230" width="100" height="100" as="geometry"/>
                </mxCell>
                <mxCell id="18" value="" style="rounded=1;whiteSpace=wrap;html=1;strokeColor=#FF0000;strokeWidth=1;fontSize=13;fontColor=#000000;" vertex="1" parent="1">
                    <mxGeometry x="245" y="230" width="100" height="100" as="geometry"/>
                </mxCell>
                <mxCell id="20" value="" style="endArrow=classic;html=1;fontSize=13;fontColor=#000000;exitX=1;exitY=0.5;exitDx=0;exitDy=0;strokeColor=#3b83bd;" edge="1" parent="1" source="11">
                    <mxGeometry width="50" height="50" relative="1" as="geometry">
                        <mxPoint x="380" y="300" as="sourcePoint"/>
                        <mxPoint x="230" y="313" as="targetPoint"/>
                    </mxGeometry>
                </mxCell>
                <mxCell id="21" value="" style="endArrow=classic;html=1;fontSize=13;fontColor=#000000;exitX=1;exitY=0.5;exitDx=0;exitDy=0;strokeColor=#3b83bd;" edge="1" parent="1">
                    <mxGeometry width="50" height="50" relative="1" as="geometry">
                        <mxPoint x="612" y="309.5" as="sourcePoint"/>
                        <mxPoint x="682" y="310" as="targetPoint"/>
                    </mxGeometry>
                </mxCell>
                <object label="&lt;font color=&quot;#ff0000&quot;&gt;&lt;b&gt;Controller&lt;/b&gt;&lt;/font&gt;" id="22">
                    <mxCell style="rounded=0;whiteSpace=wrap;html=1;strokeColor=#FF0000;strokeWidth=1;fontSize=13;fontColor=#000000;" vertex="1" parent="1">
                        <mxGeometry x="260" y="265" width="70" height="30" as="geometry"/>
                    </mxCell>
                </object>
                <object label="&lt;b style=&quot;&quot;&gt;&lt;font color=&quot;#6600cc&quot;&gt;Service&lt;/font&gt;&lt;/b&gt;" id="24">
                    <mxCell style="rounded=0;whiteSpace=wrap;html=1;strokeColor=#6600CC;strokeWidth=1;fontSize=13;fontColor=#000000;" vertex="1" parent="1">
                        <mxGeometry x="390" y="265" width="70" height="30" as="geometry"/>
                    </mxCell>
                </object>
                <object label="&lt;b style=&quot;&quot;&gt;&lt;font color=&quot;#ff9933&quot;&gt;Repository&lt;/font&gt;&lt;/b&gt;" id="25">
                    <mxCell style="rounded=0;whiteSpace=wrap;html=1;strokeColor=#FF9933;strokeWidth=1;fontSize=13;fontColor=#000000;" vertex="1" parent="1">
                        <mxGeometry x="516" y="265" width="70" height="30" as="geometry"/>
                    </mxCell>
                </object>
                <mxCell id="26" value="" style="rounded=1;whiteSpace=wrap;html=1;strokeColor=#66CC00;strokeWidth=1;fontSize=13;fontColor=#000000;" vertex="1" parent="1">
                    <mxGeometry x="246" y="337" width="355" height="50" as="geometry"/>
                </mxCell>
                <object label="&lt;b style=&quot;&quot;&gt;&lt;font color=&quot;#66cc00&quot;&gt;Model&lt;/font&gt;&lt;/b&gt;" id="27">
                    <mxCell style="rounded=0;whiteSpace=wrap;html=1;strokeColor=#66CC00;strokeWidth=1;fontSize=13;fontColor=#000000;" vertex="1" parent="1">
                        <mxGeometry x="260" y="347" width="330" height="30" as="geometry"/>
                    </mxCell>
                </object>
                <mxCell id="28" value="" style="endArrow=classic;startArrow=classic;html=1;strokeColor=#3b83bd;fontSize=13;fontColor=#66CC00;exitX=1;exitY=0.5;exitDx=0;exitDy=0;entryX=0;entryY=0.5;entryDx=0;entryDy=0;" edge="1" parent="1" source="18" target="17">
                    <mxGeometry width="50" height="50" relative="1" as="geometry">
                        <mxPoint x="380" y="300" as="sourcePoint"/>
                        <mxPoint x="430" y="250" as="targetPoint"/>
                    </mxGeometry>
                </mxCell>
                <mxCell id="29" value="" style="endArrow=classic;startArrow=classic;html=1;strokeColor=#3b83bd;fontSize=13;fontColor=#66CC00;entryX=0;entryY=0.5;entryDx=0;entryDy=0;exitX=1;exitY=0.5;exitDx=0;exitDy=0;" edge="1" parent="1" source="17" target="16">
                    <mxGeometry width="50" height="50" relative="1" as="geometry">
                        <mxPoint x="380" y="300" as="sourcePoint"/>
                        <mxPoint x="430" y="250" as="targetPoint"/>
                    </mxGeometry>
                </mxCell>
                <mxCell id="30" value="" style="endArrow=classic;html=1;strokeColor=#3b83bd;fontSize=13;fontColor=#66CC00;exitX=0.5;exitY=1;exitDx=0;exitDy=0;entryX=0.108;entryY=-0.013;entryDx=0;entryDy=0;entryPerimeter=0;" edge="1" parent="1" source="22" target="27">
                    <mxGeometry width="50" height="50" relative="1" as="geometry">
                        <mxPoint x="380" y="300" as="sourcePoint"/>
                        <mxPoint x="295" y="350" as="targetPoint"/>
                    </mxGeometry>
                </mxCell>
                <mxCell id="31" value="" style="endArrow=classic;html=1;strokeColor=#3b83bd;fontSize=13;fontColor=#66CC00;exitX=0.5;exitY=1;exitDx=0;exitDy=0;entryX=0.5;entryY=0;entryDx=0;entryDy=0;" edge="1" parent="1" source="24" target="27">
                    <mxGeometry width="50" height="50" relative="1" as="geometry">
                        <mxPoint x="380" y="300" as="sourcePoint"/>
                        <mxPoint x="430" y="250" as="targetPoint"/>
                    </mxGeometry>
                </mxCell>
                <mxCell id="32" value="" style="endArrow=classic;html=1;strokeColor=#3b83bd;fontSize=13;fontColor=#66CC00;exitX=0.5;exitY=1;exitDx=0;exitDy=0;entryX=0.883;entryY=-0.013;entryDx=0;entryDy=0;entryPerimeter=0;" edge="1" parent="1" source="25" target="27">
                    <mxGeometry width="50" height="50" relative="1" as="geometry">
                        <mxPoint x="480" y="300" as="sourcePoint"/>
                        <mxPoint x="530" y="250" as="targetPoint"/>
                    </mxGeometry>
                </mxCell>
                <mxCell id="33" value="&lt;b style=&quot;&quot;&gt;&lt;font color=&quot;#6600cc&quot;&gt;http&lt;/font&gt;&lt;/b&gt;" style="text;html=1;strokeColor=none;fillColor=none;align=center;verticalAlign=middle;whiteSpace=wrap;rounded=0;strokeWidth=1;fontSize=13;fontColor=#66CC00;" vertex="1" parent="1">
                    <mxGeometry x="149" y="286" width="60" height="30" as="geometry"/>
                </mxCell>
                <mxCell id="34" value="&lt;b style=&quot;&quot;&gt;&lt;font color=&quot;#6600cc&quot;&gt;tc/ip&lt;/font&gt;&lt;/b&gt;" style="text;html=1;strokeColor=none;fillColor=none;align=center;verticalAlign=middle;whiteSpace=wrap;rounded=0;strokeWidth=1;fontSize=13;fontColor=#66CC00;" vertex="1" parent="1">
                    <mxGeometry x="608.4" y="285" width="60" height="30" as="geometry"/>
                </mxCell>
                <mxCell id="35" value="" style="shape=image;imageAspect=0;aspect=fixed;verticalLabelPosition=bottom;verticalAlign=top;strokeColor=#66CC00;strokeWidth=1;fontSize=13;fontColor=#6600CC;image=data:image/png,iVBORw0KGgoAAAANSUhEUgAAAZAAAAGQCAMAAAC3Ycb+AAACvlBMVEX////9/vzY68263KeXyXeGwWJzt0hts0Bssz5utEJ3uU+JwmedzIDA367f7tXY68yl0Yt7u1OEwF+w1pnh79j5/PfB4K+HwWORxnDN5sDC4LB8u1SKw2jT6cbX68vl8d36/fms1ZRutEG63Kbk8dyEwGD0+fC93qrV6si12aDc7dFxtkbs9efz+fBxtUWVyHax15vQ6MPr9Ob+//56u1KUyHO32qLX68ry+O9ttEB/vVmezYK+3qv1+vOHwWSl0YrK5Lvm8t52uE2LxGqw15rS6MXu9umXyXi22qLb7dDx+O6Dv174+/ap04/J5Lvp8+J1uEyTx3Kv1pjU6cjv9ura7M/1+vJvtUOAvluiz4bC4LHk8duAvlqPxW2VyHWo0o7O58G22qH9/v3c7tKr1JLq9ON5ulG12Z/s9eWPxW602Z/W6sq93arw9+t8vFWczH6Zy3yFwGH0+fFwtUTO5sChz4bG4rV2uEz7/fp0t0qYynh4uU+u1paNxGvM5b6326N5ulCay33Z7M7y+O6by36ay3ut1ZR9vFek0Im/3qy426Sm0Yz2+vOIwmXV6smDv19ytkbL5b2t1ZXG4rbo8+BytkeOxWygzoTT6MX2+vT+/v6dzYHt9eh7u1TH47fx9+2UyHTd7tK526SfzoPN5r/i8Nn3+/X5/PjK5bzP58Pj8Nqu1Zf8/ft3uU602J6x15qp05DP58Lv9+uq05F1uEuczH+j0IiCv12Mw2miz4eSx3HE4bOz2J3r9OSn0o3J5Ll+vVj6/PiZynq83and7dN/vVrD4bLn8t+QxW7B36/n8uDp9OLg7tbo8+Ht9unZ7M2+3qy73Ke526V6ulHw9+y73aiWyXbe7dSBvlzS6MSq1JGYynmQxm+Tx3N+vFeezYHF4rTU6cey2J2Cvl3I47jg79es1JOhzoWy2Jy/363mr9GjAAASp0lEQVR4nO3d+aNW0xoH8BN12qdJpTTcVKKUJgkNpEQTRcaoTGkihYqGi0o0pzKLuEKRSpK4l0zdUpQ04Jpn7v0v7jmdc3LO2c/a71rPWms/a5++n1+9e+29nqXzvnvvZz1PXh4AAAAAAAAAAAAAAAAAAAAAAAAAAAAAAAAAAAAAAAAAAAAAAAAAAAAAAAAAAAAAAAAAAAAAAAAAAAAAAAAAeFDlmGOrVsuvHqWooEbNWrXrSE88TMfVrZfmUpRV//gG0rMPTcMTGkmtRrHGTaRDEJSmf5NdjiLNTpSOQjCaN5NejGJVW0hHIggtT5JeiCNanSwdjACc0lp6Gcqq2kY6HtKatJJeg/LqHeW/gU+VXoCY6m2lYyKpnXT4KUfxitSWjj3tNOm4SGkuHXmF9h2kIyOjYyfpyKvUlw6NjM7ScVc7XTo2ErpIRz3JGdLRSV/XM6WDnuQs6fCk72zpmCfrJh2ftHXvIR3yZD2lA5S2c6Qjnsu50hFKVwPpeOfUqZd0jFJ1nnS8c+stHaM09ZGOto7zpaOUnip9pYOt4wLpMKXnQulY6+knHae09JeOtKYzu0pHKiUDpCOta6B0pNIxSDrO2lpdJB2rVFwsHWd9taRjlYam0lE2cRSkmA7Olw6yiUbS4fJviHSMzVwiHS/fLpWOsKGhLaUj5tll0hE2dbl0xPy6Qjq+5q6UjplXAWw7MFVVOmY+hZc5quEq6aj5c/Uw6eByXCMdNn+ulY4tz3DpuPkyQjqyTPkNpSPnib+dayOvu76ZxzyvG6Qj58eNnsI18qYGowqHH3zz6PaezhCNkY6dD6PG+gnWuCpHTjG+lp9TRLcIxs2bW72EqvqEcie5zctJKuUmnol+SmYMqnAaT3c6kyrf29zbvQSqduw8d3g5T1TpNkzX8RKmO+MnmuxnG9CUq9OPmVd3egnTVOJMN3g5U3RX6iHz6m4vQZo2nTiVn3+LUTQi9aB51HKGlxjNpM41/e9ezhU1SztoPt3jJ0b3kCe718/JovtSDppHHTyFaBZ5Nk+/s6LZo1IOmz++9tvSmYVzPJ0tGpdy2Ly531eEbiJP5+tfSNRjbsqB86WnrwilvCDRAykHzhObVMVJD86bN2e+6r+aLcj8BWcvXLR4pMXVRJWidtMS/kPxOc0Pf4+O6qZ4imuyIEtvLPlOfsjiV9iy1KLm0WLu7JeXyRpcQa6qwYI8XOYD47hXFEWP+I1VGh7lzn3ppWWHafEY8RH9BVlU7hNth3IvqhIkMj7OnPoTFX71U7tKtBdkToWP9Ge/TT7JT5TS8yRz4u1iI/WOf0h3Qdo/VfEzK59mXlf0jPsYpanrKt60n40P9Vy8XKbugswjPvUw78KyXpZmEWvS1Z+kxvpH7HO6C0L+WuVWvznOYXhS14aVqljwPDnY6tgHNRek72Dyc8yKj5lOZHyBM+Me9HrkvRj7pOaCEO8VDxvOubpMl6V5iTPfAlVR0HgJOssFYa5I+zUuYiOC1YJCmWwefwSjuSCz16qGjP8V1JHZsjQvc2b7inK4+Mty3S/1dcoxX+VcYlbL0qzfwJhrwh/o+GYf3QXZqB70AcY1ZjWR8TXGVDeph7sk/mndBamR8K6PVbnrdcvQiNjMmOi96uFWEreY2o9O3lCP22YL4zrPtIyNiJnm8xy6RD3cm8Tn9R8u9lEPfJr5dUbRarvYSODMU3EDUmQr9XmDx+8L1UMfy7jSVtlr/PKW+SzPVg7W4W3yAJMXVP9crxz9X+aXGj1tHaCUvWM+R/UXyBWK+ihGr3AbKcuHs95pvmQfozQNNv+qLFDu0F+oOsTsnfoWZV8QThn6jJWlecN8hsq9ru8qDzHNOlH+WuWkcr3sIEyp2WY+v7dVY72nPsY4Deh9xTl6MfYwbKAyvUPF+Jp8VDFU0t5287ysFYqzcB4zZqgszQTz2alu0UcnHcRIlOuiOA9n/8pmJ8FKwwfGc5vxIT3SxsSjOJmLinsdzq6SjxyFy7vt5nOL7xU8LMc+H86CtB9Pn4pTu7bijtNALZliPLOx9Ej/znEYK7d3B32HyPgdEl3sKmR+kU85ktGVDSfnqpfJS7Z+kL7sJ8wvO9rpKmY+fWw+r1X0SLtyHcfMft9NHjbe/LqjfMVXX1AYSYH0/2i583S42xE+IY/j5M4lvL8Jxevms+pbhRpIIymYuyD0335W9ahP3UXOj5WMEjPxtNEi9XMfyN6wQ7/O4OxTaOwscp5wUv27UwOdq3EgfwcV+SDzFca1h16W5iJGv/rbqYEm6+Q88heELjXKqYE2yV3wfOAkcTSnBiJy3eMs9hiSj+LVz5UTbHcYPuf2MCZE/ubdq3WoxYKQrzP0zlrBsJDL0nByasiHpnrFnGx24R5DHUq/Kc5hq8MAOvYsZz5UUZcxeofaLMhS6lDlu8lEp7iMoUstOd3wRlIjaW4UtdqnTj0Z/IwxgYR3a9JYibLUpr0lmttKrBaELCXE60DaxGUU3bmSNZl9xEifax5rV8mBer/Eq9Q5NsyyNFU5c9nSkhhpmebBdgtCPSBgpTEGWpaGV2KGukPTbiVttyBUy3TW12ChEPvrXcOayX5ipJN0D7YsPkPlujEykosE2F9vN28m1G8d7fowlgtyOnHwAd40oj1Og+nA4OWseeQT+/XO1z7ackHqEwc3Z00jilq7Dae9hHS2JI8TQ+kXp7atl0W8zOjO7TlDlDqQxHoKFNGNID7SPtp2QajaPhqvYUhbwkpk3MWcBvF6e/1B7aNtF+Ra4uhzONMo8qrbiNo5kTsLok6FwZtU2wWh/vDzi2l1cBtTK8oifLlsi4/1vv7RtgtScCh+NOsB6WHXOw6qhS+4c+hLJK1dqH+4dRFM4hm8Rbf3mx2Hla0hVe1NC1X0wiCe1gtCfIVZFH0O5qkvs6xOoS+J0QzqcVgvyMPxo5/ibJMu8ZXbuLK1Zs+A+Jmz1iCPyHpBiPyKlf8xn0apQN4dMnJHS42Oj3aoh/7h1gtC7TPlFoksNDSMzFLu45+ILN7ewuBw6wV5izg8XrhOXxhJWhYz+Dw+mskbCesFqUHcXts0yzrecWhZ1nCK/pQ4NT7c1waHWy/IUKKSlk3D3iASS21aDBH7QkySta0XZBiRUsrZJ1KKuq9KHVE2SRuRHWCyiZ9u6GLwN6c68aTAZkGCSIafZXH9lgtCv8o+S38A5wsSQg3Zbyyu/+74cFMNDqeLHxqUvWlPvAu3WhBVZYI02UyASFR+yODwatT1HDJ4xTSNuHGw+VIPYtMhK/unBPEry+g3AtVW+xGD4w8SX8JWDXpC6ND6rcX1E9Upje77qS1+Sw2Opx5ucqpnHXGh6+gyfGlx/cSjk7kmL7VbxbMPV5ic/ztiPuxOFkUWEQOmjd34odAL8eGqGNXliLXfvMioGBlx/lE7zKZQ3gk+Imxok8X1f0+MZ7b1skKpvavNnjwTf2GW5KpWkCiElki8/ORiVGaU4a+2zmV/uX71g9nB78RPr7k1RSGEp4smv2oqyicaSZi2HKlx6uSSI8cY74cgXrruMx2jnBD27jATxot9HB+vn/EgG37c3e/+FV90LjA9sNPk+Ol/Mj59GUGU2mCVhi71c3y8zdzcQXPUtjaDHIu4MN6q32IxA+KFCDt30Nx7xNmt7gsTSpqn6BeLGSwgxmN3ojRGVWC0eKUeRS/6jrWWryxmELuPKNTEJiQmehB5clcavNKPGdbLe7C1TOJPYTlRQ30yozwHC/V/Q1ubAUMpwjjQYg7diPGsniYZoGrNt7MZkPiJIqK78e/Nv1DvmGz6fZvYS5z7e4vxPvAcZ33z+JO4jBiOU1KIgfrRO9jmwUkfz2HWZzENsgcdqzGUMar0YluL8cjXZUKYLRqLUF1Wj7MIi7ZOsY7FefwOuUWC2vfJaN9SgtrUlmf1CFwTdQuU9yt/vB/9RtjQVex51KOGs/gXp43K2NHfABzTY67nEBviVOouRhVjr1KDHxlN5H4ni5QmupKnHF7lmSKLqeH4W050kS2L+H95D670G19zl3OnQqZfjvL9T+QOag6sZsrFwms1uX6a07n8xo+NFiJlkeq2qyuhI6YYdo4vnTJejR0cHVTZtLwP+bdTxIs2ebxqbIXIjh6/s4OjgS67wGj1V4L8CS1Ou8xVRUPI4fh/P3LrR57xYu5wnRJaxkqi2tXqmELdM+dVIboRO0Lfw/HTG6j3niHozn25Q+/zsNkJlGgDsW8qj1+vJfrBZ1Ct5O74QctvSQ7HLzuSjK64kKu/khpZKz0IXesxp0T/E8m7nh2jJIrW29dxx6PSL0PBavhQ6DEiYa5QS4uXw0pv0pfOzwwIYRubEqcnShHyviAvbxujJWoO1Iv0Iuz7HiKDPyDsx6X96fGs0iIpk8hfdIa7GMrKp38hBGMBc15UGZoijJZWSQ4qeoTzHy+HsIktyRruH5kJigHv40aK0vdSxVm0SwVXFH5vyduYM1PWTzfZlptDvTMU5zApsFIe2aknLD2ZU/tGNeA+V9nX1SaqTsFOJ1Z0DQ0KtxRxdJVqxBGG23AUBii/fvl3oEQyangMKimUM1tZKKSjTfpaqT+UF8x+Khq95iWArrGrFpL984pZ7dooMky9+2869/lCtIFsURqeN7gTbKoeswunx+Bf7qXb3x5Wiz0qtZ0hRA3Zb95+Vw/a5gV23MjKdUfotBSlkX3FgnQ3d4obknoC/szdSzOzRcKoFps817mOmz/sdJqaSaNOP5aznbF+YoWe/rw2G0XOcRszr/iPTp9OHPe5Tab3JCOTH20M5v+iLiD2GoVLv+VERURt47LGv6vfPCGKln2eo+beBezrjA64i1YKJlZnT/TWHEOvGa77jP/BnNlr/ARYuoVvwFiNl4vlThnYc3nuBJHG26liWuXx/x2rElfCtd4iF5TaSVNRnVmd1S0AVj2wM+G+4whmR7bDbrENUOrYb3wi3T6Ncwed3Pu82eUzXTqtajy69rqGWsdblQjQWfDA1LSYbo5v9jKmjxl0308nb393yE37t7//dZ3N2kno0y+zWQ9ym1Hg1tlM+E/fV/ecQVeMuE50Ukbg/rSZ8q6ke3Z7e0x+PMct9HpxvrSx2L4eRZMSnmtZ62O1HNEOj5fm02q7aRNVlh1hNX4vg2o5ngmW6dKL/ZS2H8NNHiulypAJH7u9YYll1IZQW4+wW5iVUuSQZQE7X7aU872th/ivo0rNc31NKfrUevaN3PYbGM5sYF/GtLCa3hpyUB3uBkWyIUMDbv5FWYG1hTa0hv/+54jH9rv5cu/f2/5a6HLxWeKk9tXI3fbpHR3HWZWsPqKOg6CIGukkDL/+ZFcpof8v7G305SWkKmWERbPfcnbs52cJrhsyxdFVtCJa8mRNZ0exiPLrsjKbW061ee9RQa7XmVkw3l04opoHHjU8+/PzXO6unq1K0c+U4x1GJIp2LSLr+FDW7pt3p9NzR1N9xik104e6jUrUenGfnO/Lq/y+83bnW0bDKO1uz0Nln+o9/xx44jaqgGZeXvcWl5w+0y4VWOH8lAPnja/KPmMvmLNp9c4buw0asW7dupeO6fbi7o11v13q5n6DQHR/zyhvRTJSNUyxgTeL7B+xBoDogplZc6WD6cB86SA65auOTIpU+7Yzaqx0PG0F0bveIW5ZmmDkzhTOGIvE/xBQXXez7RTpkFqZkclUxWRbpYNqI/QSMxy93Ne+Sk34JWY4+PuPxWWgxAyHj4J9qRggHTlPHpIOLJe7RKTApNUPzzGi63olYZ/IKGGon5zvIIyWDi5HH+moebTWOvM8fSF1w3Nvp3R4zWWoxAwHv8uTkOTiK9nnvDKyZwWBdcNz71vpEJtZJB0v7zZLh9hIva7S8fLvv9JBNkF16q1sRm2QjrK+ELvhuWe5az9NScUaK5Gl0nHWVVc6UinhV5JO1/JAu+G594R0qPX8TzpOqeloVZYmLT2lw5SiRdLB1hFuNzwP2PXv03OWdIxS1UU63LmRLZMrr8el452LopFfpbVXOuA5zMh0iRmOutIhT5btEjMcg4NOZGwtHR4BC6WDniTzJWY4lklHXS1LrUHc+UQ67ErT9GqVVzq7pQOv4qP2Ziaw27n55a9gcPCcFN1zbbV0VCQtkI5+3BfSMZF1q3T8K+ojHRFpKxzULXXnV58tADJizHfSq/CXrcqG0keV2t4KKpl5K2uNvryZ+Ecr6cWIohoDj7oHvAn2bhL+VzL/gN+WPtnTvfYusdXoNGBFJd62xteiaa30HzgWNLvr5WekZx6uzyb8Nmtju9RsXL1iX0fpOQMAAAAAAAAAAAAAAAAAAAAAAAAAAAAAAAAAAAAAAAAAAAAAAAAAAAAAAAAAAAAAAAAAAAAAAAAAAAAAAABUWv8HF/WkH1Nv95EAAAAASUVORK5CYII=;" vertex="1" parent="1">
                    <mxGeometry x="528" y="400" width="40" height="40" as="geometry"/>
                </mxCell>
                <mxCell id="36" value="" style="shape=image;imageAspect=0;aspect=fixed;verticalLabelPosition=bottom;verticalAlign=top;strokeColor=#66CC00;strokeWidth=1;fontSize=13;fontColor=#6600CC;image=data:image/png,iVBORw0KGgoAAAANSUhEUgAABLAAAANRCAYAAADznkVmAAAABGdBTUEAALGPC/xhBQAAACBjSFJNAAB6JgAAgIQAAPoAAACA6AAAdTAAAOpgAAA6mAAAF3CculE8AAAABmJLR0QA/wD/AP+gvaeTAACAAElEQVR42uzdd3wUdf7H8dfspveQkEDovUqXbqGKWBAVxIoV7OXuLHenZ/l51tM7Pc9TbIh6KnZRLCCogIoUAem990ACIT2Z3x8TFBWQbGZ2Z3bfz8djHyEh893Zz0x2dz77+X6+ICIiIiIiIiIiIiIiIiIiIiIiIiIiIiIiIiIiImHIrxCIiIiIhI3HgdbAIqBc4RARERERERERETfpDlQCJrATuAdIUVhERCSCdAGeBf6nUIiIiIiIuNPXWMmrQ2+7sBJZaQqPiIiEqVhgBDDlkNe/SqyKZBERERERcZEz+G3y6tBbLvA3lMgSEZHw0Qx4FNh9hNe+/yhEIiIiIiLuYQBzOXoC6+AtD7gbTS0UERHv6gJMBCqO4TUvQeESEREREXGHMzm25NWvK7LuAZIVPhER8Yi+wCR+7vd4LLcLFTYREREREXf4nuonsA7etgLXAzEKo4iIuJCBNU3+mwBf56YqhCIiIiIiodeHwJNXh97WA5cDUQqpiIi4gA84D1hUw9e3cqC2wikiIiIiElpvYk8C6+BtBTAK6xNvERGRUDgdWGDja9tlCqmIiIiISOjkAKXYm8A6eJsL9FOIRUQkiHoDXzrwmva+QisiIiIiEjp/x5nk1aG3KUAHhVpERBx0HNaqgk69lhUCiQqziIiIiEjwxQE7cT6BZQJlwDNAHYVdRERs1AZ4h+qtKhjobZjCLSIiIiISfJcTnOTVobcC4CEgReEXEZEaSK96PSkJ4mvYiwq7iIiIiEjwzSf4CayDt63AlVgrRImIiByrKOB6IDcEr107Ab8OgYiIiIhI8HQidMmrXzd6763DISIix2AwsCTEr1s9dRhERERERILnH7gjgWVi9S2ZCDTUYRERkcNogbMN2qtzu12HQ0REREQkOHzAZtyTwDp42wfcBsToEImICFa/xMeAUhe9Vk3WYRERERERCY6BuC95dehtFXC6DpOISEQ7A9iAOz9sidLhERERERFx3ou4O4F18PYh0FyHS0QkojQGJrn89el4HSYREREREWfFAXl4I4FlYk0beQiI1aETEQlrUcBNwH4PvDb9SYdLRERERMRZI/FO8urQ20qgvw6fiEhY6grM8dBr0iQdMhERERERZ32ANxNYB1crfBZI12EUEQkL6cAzQIXHXo/yAL8On4iIiIiIM5KAYrybwDp42waM0uEUEfG004GtHn4t6qJDKCIiIiLijHPwfvLq0Ns0oKUOq4iIp6RiVdN6/TXoWh1KERERERFneGX1wercDgB/RFM5RES8YAiwKUxef17S4RQRERERsZ8P2E74JbAO3r4FWukwi4i4UgpW1VVlGL3u/KjDKiIiIiJiv16Eb/Lq4K0QuB0rWSciIu5wArA6DF9zKoBkHV4REREREXv9nfBPYB3aG6uxDrmISEglAU8TXlVXv76doMMsIiIiImKvH4mcBNbB3lg3AYYOvYhI0HUFVkTAa80fdKhFREREROzTiMhKXh16+wxooFNARCQoDKwPD0oi5DXmdR1yERERERH7XG/nG/bMWgn5HrvA2AtcqNNARMRR2cCnRNaHJKt02EVERERE7POBnW/Y77v5hK0evdAYj9WTRURE7HUK3lnptszGsSqBWjr8IiIiIiI158eqQLLlzbphcGDv/Jsq/H7Dq5+WLwc667QQEbFFDPAPvNWo/R2bxxuo08BbtFSxiIiIiDt1AdLsGiwnK2lVWkqsr2Vjz37g3Ar4Frhd72FFRGqkMfAl8Ee8tWDGS8A+G8c7TqeCt+jFX0RERMSd+tk5WP9ejQ4AdGmf7eWYxAIPAe8DmTpFRESq7Tys1W17eWy/TawPMRbYOKYSWB6jBJaIiIiIO9mawBp5WusUgM5ts8MhNmcAi4HBOk1ERI5JFNYHAK/jzZ6CK4FcYK6NYyqB5TFKYImIiIi4TzTQ18bxSgb0atQcoGv77HCJUTYwGbgXq1+YiIgcXhYwBWsKtuHRx/Bd1dd5No7ZVq8f3qIEloiIiIj7dMfGT8hTk2NXxMdFxQF0apONYYRNnPzA34CP0WpSIiKH0wMr6XOyxx/Ht1Vf7azASgCa6RTxDiWwRERERNzH1umD3drX2XPw32kpsTRtkBZu8ToFmAN00KkjIvKTscBXQP0weCwHE1irgHwbx22v08Q7lMASERERcZ/+dg42bFCL6EO/79IuOxxj1hSYDYzW6SMiES4WeA54purfXrcHq+8hWM3c59s4thJYHqIEloiIiIi7RAM97Rzw9H5NGx36fZgmsADisJZZfxT1NRGRyNQImAVcGUaPaSZQ+dOLZJRvkY1jq5G7hyiBJSIiIuIunYB4297s+YztTRqk/WL6SI9OOeEcPwP4EzANq3GxiEik6IlVido1zB7Xl4d+c1KPBqU2jq0ElocogSUiIiLiLj3sHKxB3eS1v/5Z9451ifKH/dvAE6su5DrrlBKRCDAKmI61Qmu4+foXD/T0Nuk2jt0cGz80EmcpgSUiIiLiLrYmsE7q3qDg1z9LjI+mY5uIKE5qjDX1ZIROKxEJUwZwF/A/rGnU4SYfWHDoD049qUkbG8f3Ay11GnmDElgiIiIi7mJr/6uzBrdMPNzPe3fJiZR4JgBvAH/UqSUiYSYWeBm4DyuRFY5mARUHvzEX/ikxJyu5W2a6rUVTrXQqeYMSWCIiIiLukQk0s3G8yv69GjU+3H/07lIv0t7z/gN4EjV3F5HwkAFMAS4O88f51S++S/D3B2JbN8uw8z6UwPLQi7mIiIiIuENPbPwUPSrKtyY1KeawmaoIS2AddAPwDlZVloiIVzXHqkw6IQIe69RffGeYgwFaN61l531oCqFHKIElIiIi4h629r9qlJOy+Uj/1zAnhfp1kiMxxsOwGh1rhUIR8aI+wDdERtXQbn7V/woYDNDK3gSWKrA8QgksEREREfewNYHVt1u9kqP9f6/OOZEa5+5Y1QvNdcqJiIecB0wDakfI4/0cqDz4jbnujsZUVUu10RTCiKQEloiIiIh73pd1t3PAoSc3O2qX2widRnhQc6wqhp469UTEA8YArwExEfSYp/ziu4rKwQf/aXMPrBSgrk4xb7xREhEREZHQawGk2jieOaB346OWWPXpWi/SY14bq5phqE4/EXGx24BniKxFKEysCqxDnXrwH43qpRDltzWdoSosD1ACS0RERMQdOto5mGEYazPS4poe7Xc6t8smNTk20uMeD7wLnKlTUERcxgAeBB7GxgU+PGIJsPXgN+amW+IxGHTw+yi/j/p1be3jqASWByiBJSIiIuIOtiawsjISNvA7n9ZH+X2c1L2BIg+xwNvAuQqFiLjoWv1p4I4Iffy/rL4qjhmISeKhP2qUk2Ln/SmB5ZE/ChEREREJvU62DtamdsGx/N7APo0VeUs08DowSqEQERc8H70KXB3BMZj8i+8M84xf/0Lj+nbOulcCywuUwBIRERFxh052DjagV+Njep83oHcjRf5nUVUXjZcqFCISIrHAm8D5ERyDfODrg9+Y5j0+4PRf/1KjerZWYGlVWg9QAktEREQk9DKBHDsHHNi30TEt0dSmWQY5WUk6Aj/zAy8AVygUIhJkyVhT54ZHeBw+Acp++m51YXcOs0pg43q2VmA1JrKa5HuSElgiIiIiodfJ5vGKOrTOanosv2gY0L+XqrAO8x75OeAGhUJEgiQB+AA4UaHgw1++UP22+gpsr8CKAeop9O5/cRYRERGR0LK1gXt0lG+F32dkH+vvD+yjBNZhGMATwPUKhYg4LA54H+inUFAOfPqrn511uF+0uQcWQDOF392UwBIREREJvU52DpaTnbSlOr+vRu5HZABPAlcqFCLikBjgLWCQQgFYva/2HvzGXHP7cUC7w/1ig7op+P2GnffdVOF3NyWwREREREKvg52DdWtfp7A6v18vO4nWzTJ0FA7PAJ4BzlYoRMRm0cAbcPgpchHqo198Z5rnHTF4UT67ezgqgeVySmCJiIiIhFYM0MbOAU/o3iCqutsM7ttYR+LI/MD/UIWEiNj7vPIKath+KBN471c/G3m0DRrUtbUPlhJYLqcEloiIiEhoNcP6FN42fbrkpFd3mzMHaAXx3xFbdWHVQ6EQERuuw18EzlMofuF7YP3Bb8w1t3UDWhxtA1VgRd4fjoiIiIiEThubxys/rnVWw+pudGL3BqSnxuloHF0i1vSWlgqFiATIAP4DXKJQ/MYbv/juKNMHD6qblWjn/SuB5XJKYImIiIiEVitbr4wMY0NstL/aywpGR/k49SS9dz8GmVhJrEyFQkQC8DhwtcLwG5XA2we/MU0MMEb83kZ17a3AygRSdSjcSwksERERkdBqbedgacmxW7F6q1SbphEesxbAZKyKLBGRY3UbcLPCcFgzgc0/fbf29j7A734YU7d2kt37oU9yXEwJLBEREZHQsjWB1aRBan6g2w45sQkx0X4dkWNzPPAS1nQgEZHfcyHwkMJwRBN/+a156bFsZPMUQoAmOhTupQSWiIiISGjZOoWwS9s6ZYFum5ocy8k9GuiIHLsRwJ0Kg4j8jn7ACyjhfSQVHDp9cOGfEjGPvvrgQTY3cYdjqPqS0FECS0RERCR06mJzv41eXXJqtKLhmQM1jbCa7gHOUhhE5AiOA97HWslUDm8asOOn75J8I4HkY3oRtT+B1VCHw72UwBIREREJHbtXIKRXl3o1SoidNaglhmoEqvt++pWqi1QRkUNlAu8BKQrFUb34q+8vPdYNM9LiiY2xdeq7KrBc/oIrIiIiIqHRyubxils1Sa9fkwHqZSfR7bi6OjLVkwS8i1avEpGfxWJVXjVTKI4qrypOAJgr72iKyQnHurFhQHamrX2wlMByMSWwRERERELH1gbuhsEan8+ocROrC85ooyNTfc2BCajHjYhYngL6KAy/63Wg+KfvfOYV1X0erVvb1gSWphC6mBJYIiIiIqHT0s7BUpJjtwBRNR1n1Olt8PuVhwnAmcBNCoNIxLsVuFJhOCYvHfyHOf2eKGB0dQewuQIrE0jUYXEnJbBEREREQqepnYM1q5+WZ8c4dWonMqCXZlEE6BFUdSESyfoDDygMx2QJMOen7xoeGAZmveoOklkr3u790nK8LqUEloiIiEjo3ofZmiXq3C67xK6xLhzWVkcoMNHAq6gflkgkagC8gQ2VsBHiV83bjRsDGSQzPcHu/WqsQ+PeN04iIiIiEnw52Lysep+u9W2b9zd8cEsS4qN1lAK/+HlSYRCJKLHAO0BtheKYlGAl+wEwV/+pPSYnBjJQRlqc3fumPlgupQSWiIiISGg0tXvAnl3q2vYxdHJiDGcOaK6jFLhLgHMVBpGI8QRwvMJwzCYCO3/6zvDdHOhADlRgaQ69SymBJSIiIhIaTWwer7xFw/QsOwe8SNMIa+oZrEo7EQlv5wJjFYZqeergP8xNt9TC5PxAB3KgB5YqsFxKCSwRERGR0LC7Amt7VJTP1jfdg09oQu1aCTpSgcsAxikMImGtkf7Oq2028P1P3xVHjwUCfrHJTLc9gVVfh8idlMASERERCQ1bE1iGwWZsrvaJjvJx6TntdaRq5jQIvLJARFwtCngNSFcoquWnHoHm9HuiMLi6JoM5kMCqq0PkTkpgiYiIiISGrVMIk5Ni9+DAyldXX9AJn8/Q0aqZf2FVY4lIeLkL6KMwVMt24O2fvqtfNIoaTtlzoAeWpn67lBJYIiIiIqFhawVWvazEAkd2skEaQ05soqNVM1nAPxQGkbDSGfizwlBtzwKlAKZ5jw+j5jFMT40jym9raiMZSNKhch8lsERERESCLx6oY+eATRvVKnVqZ6+9sLOOWM2NBvopDCJhIRaYAEQrFNVSgpXAsqwtPAvMGq8WYhhQKy3O7n1VFZYLKYElIiIiEnwNAVvn5bVrnmE6tbOnntSUJvVTddRqeI2FNZXQr1CIeN7dgBoEVt8EYNtP35nmHXYNXCvN9j5YSmC5kBJYIiIiIsFXz+4Bj2uZGeXUzvp8Bldf0ElHreY6AGMUBhFPOx64VWGotgrgkYPfmKtuHQzG8XYNnpYca/f+qpG7CymBJSIiIhJ8DewesGOb7Hgnd/iKkR2Ii43Skau5+1FDdxGv8mNNgdOTYfVNBFb/9J3P+Kudg6enagphJFACS0RERCT47H5jXNmiUWqakzuckRbPeae11pGruVrAnQqDiCddh9W8XarHBB766ZvVt/bB5EQ77yAtxfYKLCWwXEgJLBEREZHgq2/zeDvi4qIdn+5w25ge+HyGjl7NXYMDVXgi4qg6wL0KQ0A+AhYd8v19dt9BWortFViaQuhCSmCJiIiIBJ/dPbC2EIRPi9s2z+DMAc119GouFrhLYRDxlMeBNIUhID9XX625/TQw+tt9Bw70wFIFlgspgSUiIiISfLYmsKKi/NuA5GDs+F+v7aWjZ49LAWUDRbyhNzBKYQjINOAbANO8x4dpPuDEnWgKYWRQAktEREQk+GxNYNVKjd0brB3vdlwdhpzYREew5qKBexQGEdczgH9UfZXqMYG//PTdmsKLsVZjtZ2mEEYGJbBEREREgisayLb1XXbt5PxgPoC/3dBHR9Eeo4BmCoOIq40AVHoamHeB2QDmqhticbCHmAMVWElAig6huyiBJSIiIhJcde1+D9a8cVpxMB9Ar845nNRdPcht4AduUhhEXCsGeEBhCEg5h664asRfDzRy6s7S7a/AOvh6LS6iBJaIiIhIcNndwJ3mjdPNYD+IO6/rrSNpj8uBWgqDiCtdgaokAzUeWA5grrs5Dfizk3fmQAUWqA+W6yiBJSIiIhJctr8hbtk4LSrYD2Jgn0b07lJPR7PmEoFrFQYR14kGblcYAlLEoT3+KmLvAzKcvMPUZCWwIoESWCIiIiLBlWX3gC0aZ0SH4oE89pd+GGprbIdrgSiFQcRVLsHBKW9h7klgC4C55vbjwLzG6TtMSoxxYlhNIXQZJbBEREREgqu23QM2a5ASH4oH0rNTDued1kZH1J6LpNMVBhHXiMLhKW9hbDfwMIBpYmCazxKEBH1ivCOf46gCy2WUwBIREREJLrsrsMrr1E5OCtWDeejWk4iLVfGQDa5UCERcYwTqfRWoPwN7AVh762UEaQXHxAQlsCKB3m2IiIiIBJfdFVh7fIazvUWOplG9FG65rBsPPvOdjmzNDAEaAJsUCldJwVotEiCVnwsA0oCDE2jTq74aVT+vjvRD/l0CFB7yvQnk/er3C4CyQ74vO+Rnh36VmrlBIQjIbOBFAHPDHemUVT4UrDuO8vuIi42iuKTczmE1hdBllMASERERCS67K7ByCWECC+DP1/TkpXd+ZPuuAzq6gfMDlwL/p1AEJBErwZT2q68pVV9jgaSqW2zVz+KBuKrfja0aI7nq3ykej0cpcICfk2LFWI21i6r+XVh124eVJNt/yO3gz/b96uf5EXIudSVIVUNhpgK4DqgEoKzyARyYMn/UJ4H4aLsTWKrAchklsERERESCy/4EFtQP5QNKTozhvpv7Muavn+no1swolMCqVXXRm3nILRtrBbNDE1Pph/w7FWvFOPlZTNXNbvlVt1ysXke5Vbc9R/h3Lgenk3nH9Tp9AvIcMA/AXHtbdyoZE+wdSEqMJjevyM4hVYHlMkpgiYiIiASX3Z9I52LQGTO0D+ryczvw9Ks/sGDZTh3hwLUF2gFLwugxxWIloOpXfa3Hz4mp2lgJ3UOTVbo+cbeDCcOG1dimAiuptRPYVnXbAWyt+tmWQ/4v1MmuWliJZKme3cBfAcxVN8RSyQuEoN+2A43cE6tuKi92Cb1AiIiIiASPH+yd7hft9+VhkhjyB+Y3eOGhU+lx9iuUV1TqSAduBN5IYMUCdbASUkf6mk2QpxCJa5/3alfd2v3O7xbzy+TW5qrbJmBD1dctQLlD+zoSa1qpVM8dWElKMOL/DrQPxU4kJjhRdEgmSmC5hhJYIiIiIsGTic2fSqemxBW65cF1aZfNrVd1V0P3mhkB3OOC/ThYZdMYaFT174aH/KwOPzcxF7FLXNX51ugov1OBVa11MKG1Cdj4q+9zA7z/83UIqu1r4CUAc/WtfYCbQ7UjSc6sRJhZdW6JCyiBJSIiIhI8tlejZGcmlLjpAd59Yx/en7KKZWtydbQD0xZoDqx2+lqv6n6aA034bbIqVYdCXMqPNSX1aL3/9lX9Da2puq0+5OsWOOyk64ZAX4W3WgqAy4BKc+GfEsEYz8+rdgZdojMJLFWRuogSWCIiIiLBY/sb4Xp1ksvc9ABjY/y8+PCp9D3vNSoqTB3xwAzCngRWGlaCqhk/J6sO3uoozBLGUoAuVbdfK+aXSa2D/+5PCPo2edxtwFoAEoxHq55bQsaBHlhgVWCJSyiBJSIiIhI8aXYP2LR+quuyRD075XDT6G48/uIcHfHADAL+e4y/GwO0AtoArYGW/Jyw0oWXyG/FYfXiaqdQ1MhU4BkAc9WtgzGMq0O9Q0nO9cASl1ACS0RERCR40uwesHH91HI3PtD/u6Uvk6atZtX6vTrq1dev6n36occ2EStB1QZrmuHBr031nl5EgiwfuAIwzVV/ro1R+SKYIe+Jl5igCqxwpxc7ERERkeBJs3vAJg3SXbnkX0J8NOMfGcpJ57+uVQkDO0/+BiRgVYm0xupNpabpIuIGfwA2muY9PtYUvoK16mjIOTSFUD2wXERzfEVERESCJ83uAZs0SHJto6neXepx3y3qiRygu4A/AkOwmqsreSUibvAR8CIAq4vuBk5xy44lJWoKYbhTAktEREQkeNLsHjA7I9HVFfW3j+nBoL6NdeRFRLxvM3A5gLnmtgEY5l/dtHMJcY68HCqB5SJKYImIiIgET5rdA6anxrk6geXzGbzyj9Ool52koy8i4l1lwChgl7n6Dw0weQPwu2kHVYEV/pTAEhEREQmeNJvHK09OjI11+4POzkzknaeHExvj1xkgIuJNdwCzzLljoiHqdVyY2FEPrPCnBJaIiIhI8KTZPF4hVqNv1+vRsS7j/n6KzgAREe+ZBPzTehVL+wfQx407mZToSAKrFsqbuIYOhIiIiEjwpNk8XiGQ6JUHf8nw9lx3URedBSIi3rEGuAQwzTW3XwPc6NYddagCyw+k6zRwByWwRERERIInzebxCsFM8FIAnrhrAGcOaK4zQUTE/UqA84A8c/Xtp2KaT7p5ZxMTYpwaWtMIXUIJLBEREZHgSbV5vEJMw1MJLL/f4NXHT6dTmyydDSIi7nY1MM9cdUdnMCcCrl40JCkh2qmh1cjdJZTAEhEREQkeu6f7FWKQ4LUgJCfG8NHz59K4fqrOCBERd7ofGG+uub0hRuVHgOuXknVwoRAlsFxCCSwRERGRIL23xv5Prw9geKcH1qHqZScxdcJ51M1K0pkhIuIuE4G/matuSME0JwE5XtjpmGjHEliaQugSSmCJiIiIBIcTlVKFmN6rwDqoWcM0Ph8/klppcTo7RETcYSZwiTl3TBRGwjtAB6/suCqwwp8SWCIiIiLB4USlVCF4N4EF0L5lJp++OIL0VCWxRERCbBVwljn9ngrS0/4H5kAv7byDFVhKYLmEElgiIiIiwaEKrCM4vkNdpk44T5VYIiKhsxs4zTRH5NGg8BVMzvXaA1AFVviLUghEREREgsKZCizD+wksgC7tsvnilVEMuuRNdu8t0tkigV/g+H0kJ8WQnhJHSlIMKUmxJCfF/PTvtJRYUpJiq76PYfKXa3nz4+VhG4/oKB/fv3cJACWlFewvKOVAUSklpRXk7Sth/4FS8veXsK+ghH0FpewrKCF/fwl5+37+Pm9fCcUl5Tq5wtcBYJhpjljL2sbjgVFefBAxziWw0nSKuOT5XSEQERERCQrbE1g+H0VA2JQtdWqTxYw3LmDI5W+xYcs+nTERLjbGT2Z6PBnp8WSmJ5CVkUBGWjyZteKtr+nWrVZa3E8JqeTEGBLio6t1P0NObMoHU1eHbYJmYJ/GdGqTVeNxCovKyM0rZk9eEbl5RezeW0Tu3qLf/GzH7kK27ypg154iSssqdCK7XxFwhmne8x1ril4A8yKvPpAovw+/36CiwrR7aC2Z65ZjrBCIiIiIBIXtlVIxMVEl4Rak1s0ymDXxIoZcNpHFK3frrAkzhgHZmYlkZSRQLzuZrIwE6mYlUSczkezMBHKyk8iqZf0sNTk2KPuUlZHAyKGtmPDekrCM+fDBLex5AouPJiE+mgZ1k495mz15xezIPcCuPYVs33WAHbsL2Zl7gM3b97Ntp/V1y4795O0r0R9HaBQDZ5kmX7KmcBxwqdcfUEy0n6IK25PRSmC5hBJYIiIiIsHhQAWWLyzn2tXLTuLr1y/gnOveZ/p3G3XmeITfb5CdkUjDnBTq1Umifp1kGtRNoV72z//OyU4iOsp9bXhvvqxbWCawfD6DM/o3D9n910qLo1ZaHG2aZRz19wqLyti0bT/bdhWwadt+tu4oYMuO/azfvI/1W/LZsCWffQWl+iOzVylwjmkyhTW3PQ1cGQ4PKjbGT1GxEljhSgksERERkeCwPYEV7SdsyxbSU+P4bPxIrr9nCuPeWKizxwV8PoOcrCQa10+lSf1UGtdPpXG9VBrXT6Fx/VQa1E1xZXLqWHRum03fbvWZOXdzWB2zvl3rU6d2ouv3MyE+mlZNa9Gqaa0j/s7e/GI2bN3Hhi35v0hsrduUz+oNeRQUKsFVDWXASHPJPVNZe2ACcFG4PDCHViJUAssllMASERERCY54uwf0+4zKcA5YdJSPZ+8/hTbNMvjTQ9Od6Gsih7n4a9owjeaN0mjRKJ3mjdNp3iidpg1SaZiT4uQy9SF34+iuYZfAsmv6oBukp8aRnhp3xH5e23cdYPWGvazekFf1dS9rNlr/1hTFXygHLjCX3zYNf+FHmMagcHpwDq1EmAIYgF6EQkwJLBEREZEg5QbsHtDn90XEm+mbL+tGp7ZZnH/zJLbvOqAzqabnjc+gUU4KrZtl0KZZBs0bpdG8KlnVsG4Kfr8RkXE5e3BLGtdPZf3m/LB5TMMGtYiY41endiJ1aifSt1v93/zf7r1FLFudy7I1uSxfU/V17R42bMnHjKyURAlwsbnu1plU8BXQOexeaJ1JskdhVVEX6BUktJTAEhEREQmOaLsH9Pl8ERO8k3s0ZP4Hoxl10yS+nrNJZ9MxiI3x07JJLVo3rUXrZhm0bZ5Bq6a1aN00g/g4XQb8mt9vcPX5nbjj0a/C4vF0O64OTepr5hNAZno8JxxfnxOO/2Vyq7CojOVr97B8TS5LV+eydPVuFi7bxbrNeeGY2NoHDDfX3raFSr4BmoTr855DUlECK+T0yiUiIiISHLYnsPy+yJrOUDcriS9ePY97n5zFg898pymFVXw+gyb1U+nQujbtW9bmuFa16dCqNs0bpUdsNVWgxozqyP899Q0Hiso8/1iGD26pA/o7EuKj6dIumy7tsn/x8/0HSlmyajeLlu9i0fJd/LhiF4tW7PTyVMRtwFBz1W1xVDITyAzXY+rgNOdUYIv+akJLCSwRERGR4LA9gRXl90VcEKP8Pv7vlhMYcmJTLv7jR6wLo+lex3QFlRxLpzZZdGyT9VOiql3LTBLjo/UXZoP01DguOLMtz73p/YUDwqn/VbAlJ8bQs1MOPTvl/OLnG7fuY+HyncxbvIN5i7czf/EOtu50fVHOSmCIufq2jsBrQEI4HzuHK7Ak1O8BFAIRERERb77v8vv8EVuC1KdrPRZ8dBl/+Ps0Xnx7UVj2sclIi6dL++yfKkS6tMumWcN0DBVVOeqmS7vy/MSFnj6nWjapRZtmGTqYNmuYk0LDnBTO6N/8p59t21nA/CU7mLd4R9XX7Wzevt8tu/x9UhJn7F9w21jgHiDsP/WIUQJLb6REREREpMbs74EV4UU3KUkxPP/gEM4/ow1j/voZazflefaxpKXE0r1DXbp3rEvX9nXo3DabRvVS9FcTAu1aZNK/VyO++GaDZx/DuUM0fTBY6mYlcVpWEqf1a/bTz7bvOsB3C7by3YKtfDt/K/MWbw/FtNTJ9/xp8GV3j+38NJjnRMrxUAVWeFMCS0RERCQ47E9gaUlvAAb0bsSPky/jb/+ayZMvz6OsvNLdJ0KUj05ts6sSVnXo3qEurZpmqLLKRW4c3dXTCSz1vwqtOrUTOWtQC86qWgWyvKKSH1fs4tsftvLdD1uZvXAbK9ftcXIXHt/2/S0v1qkV/QWY7SMp9g72wErTmR16SmCJiIiIBIftCaxon09RrZIQH80//tyPy0d04Mb7proq+VCndiJ9utajb9f69OiUQ+e2WcTF6m24m53erxnNGqaxZmOe5/a9fp1kuravo4Popotuv4/ObbPp3Dabay/sDMDO3EJmzNnM13M2MWPOZhat2GnHwhQFwBXmmtvKMZlFBFYNqQIrzP+WFAIRERGRoHBgCqESWL/WtnkGUyecx9ufruD2h78KybTC1s0y6NOlHn271adP13q0aJyuA+MxPp/B9Rd34Za/T/Pcvp97aitV83lAVkYC5wxpyTlV0z3z95cwc+5mZszdzIw5m5n743ZKyyqOebxaqXE7Lx/Rccyjd5w0FJMxkRpXByuwNKfbBZTAEhEREQkO2xNYfgxNITzSRfyQVpw5oDnP/G8B9//nW3btKXTkfnw+gw6tanNyz4ac3KMBvbvUo3atBB2AMHDFyA7c/cRM9hWUemq/tfqgN6Umx3Jav2Y/9dIqLCpj5rwtTJ21nqmzNrBw+U4qKw//lD9sYAtefnRoVmpy7PuRHseoKMc+2FEFlhuOr0IgIiIiEhS2fywcrQqso4qJ9nPj6K5ces5xPPbC9zwxfh75+0tqNKZhQNvmmfTr2ZB+PRtyUo8GZKTFK9hhKDkxhkuGt+epV+Z7Zp8z0+Pp3aWeDl4YSIiPZnDfxgzu2xiA3XuLmPbtBqbO2sDUWetZtzkfv9/g3pv68pdreqnq7uALrc+xQCiB5QJKYImIiIgEh+3VUmqBdWxSkmK496a+3HLZ8Twxfi5PvDyPvfnFx7x9k/qpDD6hCf2qqqyyMxMV1Ahx4+iuPP3aD0esfHGb4YNbEuXXE0M4ykyPZ+TQ1owc2hqANRvzyNtXrH5nv+J37vzXE78LKIElIiIiEhy2XwFHKYNVLWkpsdx9Yx9uufx4nvnfD/x7wnw2b9//26uU+Gj69WrIKSc04ZQTmqiHVQRr0TidISc2YfKXaz2xv5o+GDmaNUxTEA7DwQqsOEU39JTAEhEREfEow++vVBSqLyUphtvG9OCWy49n4sfL+edLc6moqOSUE62EVZ+u9ZxsBCwec+Porp5IYCUnxtCvZ0MdMIloDlZgKYHlAkpgiYiIiASH7RVYlZVmucIauOgoHxcOa8uFw9oqGHJEg/s2oU2zDJatyXX1fp4xoDlxsbq8k8jmYAVWrKIbeqo7FxEREQkO2xNYxcXlZQqriLMMA264pIvr91PTB0XA79cUwnCmBJaIiIhIcNiewDpQVK4KLJEgGH12e2qluff6NS42ilNOaKIDJRHPwSmEWm7WBZTAEhEREfGo/QeKtXC6SBAkxEdz+bkdXLt/p5zQhOTEGB0oiXiaQhjelMASERERCQ7bK7D2HShVAkskSK6/uIuT05NqRNMHRSxq4h7elMASERERCQ7bE1glJWVRTowrIr/VqF4KZw5o7rr9ivL7OK1fMx0gERytwFICywWUwBIREREJjkq7B6yoIAZQI3eRILlxdFfX7dPJPRuQma72PCKgJu7hTgksERERkeBwItEUC5QqtCLBcXKPhnRsk+WqfRo+uKUOjEgVTSEMb0pgiYiIiARHsQNjxjo0rogcwY2XuKcKyzBw5bRGkVBxcAqhH9BKCSGmBJaIiIhIcJQ4MGYMqsASCaoLh7UlOzPRFfvSs1MO9esk66CIVHGwAgtAf2whpgSWiIiISHA4kcCKxXBkXBE50h9djJ8rR3Zwxb5o+qDILzlYgQVaNCXklMASERERCQ5nEliVphJYIkF27UWdiY4K/aXUsIGaPihyKJ+zCawoRTjEx1chEBEREQkKh6YQGkpgiQRZTlYS5wxpFdJ96Ngmi5ZNaulgiASP8ic6ACIiIiIRwaEphKZ6YImEwE2XhraZ+/BBLXQQRILLrxCElhJYIiIiIsHhxGqBqsASCZGenXLo3rFuyO5f/a9Egk4JrBBTAktEREQkOJypwEJN3EVC5cZLQlOF1aR+Kh1a19YBEAkuJbBCTAksERERkeBwovmrElgiITTytNbUy04K+v2ee2orBV/kMAxHe7iriXuoKYElIiIiEhztHBgzVlMIRUInOsrHmFGdgn6/mj4ocnim6ejwyp+EmA6AiIiISHAUODBmLGZlkUIrEjrXXNiJuNjgFWbkZCXRI4S9t0TcTBVY4U0JLBEREZHgKHRgzBgM9iu0IqFTu1YC553WOmj3N3xwS3w+Q4EXCb5KhSC0lMASERERCQ4nKrDiQQkskVC76dLgNXMfPriFAi4iEUkJLBEREZHgOODAmCmqwBIJvc5tsznh+PqO30+ttDhO6tFAARcJDVVghZgSWCIiIiLB4UQCK5VKJbBE3ODG0c5XYZ05oDlRfl3CiYSIqRCElp79RERERILDiSmEqWgKoYgrDB/Ukib1U529D60+KBJKSmCFmBJYIiIiIsHhyCqEO/NKShRakdDz+w2uvqCTY+MnJcQwqE9jBVrkKLTAQZgfX4VAREREJCicWIWQ5St3qyeHiEtcdV5HEuOjHRn71JOaEB8XpSCLHEXjeo5WQer1NsSUwBIREREJDicqsFi8YrciK+IS6alxXDisrSNja/qgyO9r3ijdyeE1hTDElMASERERCQ5HelUtWb1TkRVxkZsu7YZh8yym2Bg/p/VrpuCK/I6oKEdTHEpghZgSWCIi4S0ayAaaHnJrgNX4WUSCaz9QYfegy9bt1htqERdp2zyDAb0b2TrmgN6NSEmKUXBFQqtcIQgtTaIWEQkPdYH+QCegDdACqAOk/M52+cBOYBuwCdgCrAZWAsuBHQqtiG1MrCRWmp2DLl+1Vx1rRVzmxtFdmTprg23jafqgyLExnH1FLFOEQ0sJLBER78oGLgUuAtoHOEZq1a3FEf4/H1gE/FB1WwAsRp9AiQQqH5sTWDv3Hoit+pvU+zoRlzi9X3NaNqnFynV7ajyW329w5oDmCqrIMXD4E51SRTi0NIVQRMR7agP/ATYCDxF48upYpAInADcCL2ElsfKA6cD/Aaei6Ygi1ZFv94AVFSRX/V2KiFsuog249sLOtozVt2t9sjISFFSRY/rbczSFpQqsEFMCS0TEO6KA27Cm+F0LhKoZRiJwMnAnMBnIBWYDfwf6AbE6VCJHlO/AmKnAXoVWxF0uH3GcLX2rNH1Q5NhpCmH4XwyJiIj7NQNeAXq5cN/8QPeq21+AQuBL4EPgI6y+WiJicSaBZRh7MNXLXZxXUWGyM/cAO3ILKSmtYH9BKaZpkl9QQlpyHKnJMaQmx5KSFEtmrXii/JH7eXlyYgyjz27PvyfMr9HF+PDBLXTiiRzz34yjGSxNIQwxJbBERNzvXOBFINkj+5sADK26mcB8YBLwLvCjDqdEOGcSWKapCiyx1dpNeSxYupPla/ewdPVuVqzdw5YdBezYfYDKymNLlsbG+GnXIpNObbPo2DqL7h3r0r1DXXy+yFl34MbRXfnPqz8cc8x+rWv7OjTMSdEJKXKMHMxfVVbdJISUwBIRcbebgMfx7pRvA+hadbsHWIeVzHoLmKnDKxEoz4ExNYVQamzxyt1MmbWemXM38838LWzfdaDGY5aUVjB/yQ7mL/l5QducrCSGD27Juae25IRuDfD7wzuZ1bxROqee1JSPp68JaHtNHxSp5htP5zJYqr5yASWwRERc+voLPA1cHWaPqwlWQ/gbgWXAa1hTIzfqkEuEcGgKobkS01B05ZhVVJhM/24j709ZxcdfrmH95vyg3O/WnQX859X5/OfV+TSom8xtY3pw5cgOxMWG72XJjaO7BpzAOlvTB0Wq9wbauZdC9b9yATVxFxFx4Wsv8G/CL3n1a22A+7GqsmYCY/DONEmRQDlRKZVKpbFboZVjsWTVbm5/5CsanfhfBo1+k/+8Oj9oyatf27RtPzfcO5Wm/cbx+ItzKCwKz+vDwX0bc1yr2tXerm3zDFo3y9BJK1KdN9GqwAprSmCJiLjPo8B1EfZa1Ad4FtgGvAD00GkgYcqJRFMqsFOhlSOprDSZOmsDZ4x5h+OGvsgj42azZUeBa/Zv284C/vjAdNqf+iJfzg7PgtxrL+xc7W00fVCk+hysRS5UdN1x0SAiIu5xOfDHCH78iVUx+A5YCtwO1NJpIWHEiURTJpi7FFr5tfKKSl54axEtBz7HoNFv8tG0Na5erHLd5nwGXPwmf3pwOkXF5WF1LC4Z3o6MtPhqbaPVB0Wqz8EKLCWwXEAJLBER9+gHPKMw/KQN8BBWf6z/Am0VEgkDTlRgpefvr9ij0MpBlZUmE95bTOtBz3Plnz9lzcY8T+37Yy/MofvZE9i4dV/YHJOE+GguH3HcMf9+o3opdGlXRyezSDU52AOrSNENPSWwRETcoTbwPyBaofiNRKx+YEuwemWNAPwKi3iUE5VSvvenLVdzWQFg9sJt9B7xKqNvneypxNWvLV65m57nvsqCZeEzO/a6i7oQ5T+2y6/hg1s6eSEuErYcrMBSAssFtAqhiNgtFSsZk3HILR2Ix0qap1b9XnLVc1Dcr/6vHNj/qzHzsRon7sdqgLwf2Ff1Na/qgnB31VfTgzEzgJcAfdT6+/pU3VYBjwPjgWKFRTzEkal+r09aZo4+q72iG8G27Szg5vunMXHy8rB6TP0ufJ33nzmbk7o38PzjaVQvhTMHNufdz1b+7u9q+qBIYMrKK5waWlMIXUAJLBE5VrWARkDjqq9NgIb8MlGVEeLnlQp+TmTtBrZiNQXfBGyu+n4jsAMrUeYWY4DTdIpVSwusaYX3AE8CT2MlM0XcrgDrU9x4Owf9avammKrnQFUnRqDx7yzmDw9MY29++OXz8/aVcOrlbzHt1VH07JTj+cdz06VdfzeBlZWRQJ8u9XViiwSguEQJrHCmBJaIHKo20AFoDzTDSlY1xkpYpXhg//1AdtXtaCqA7cBaYM1hbrlB3Oc6WH2eJDDZwN+BO7BWMfwnVqJSxM12A7aWkxQXl2dgVahmKryRY8fuA1x2+yd88tXasH6cRcXlDBv7Lt+9czFN6qd6+rGceHwDuravw7zF24/4O2cNaoHfr/mDIoEoKXXsM2pNIXQBJbBEIlM00BKrKXY7oGvVv5tGyOP3A/Wqbicc7loQK7m1pOrrobf1QKWN+/IYkKZTssaSgT8BN2JNK7wP2KKwiEvtwuYEFlAbjJ1gKoEVIabO2sAlt37Mtp0FEfF4d+YWctoVbzNr4oWkp8Z5+rFcd1FnLr/jkyP+//DBLXWCiwRIFVjhTQkskfBnAK2w+gb1BXpiTb/SNJMji8NK6B1u1btirCqtVcAyYDGwtOrfJdW8n97ABQq3rWKwpmReAjyHVd2miixx3bW4A2NmQeV2MLRaZ5irrDS5658zePCZ7zDNyHrsy9bkcuEfPuLj58/1dIPzC85sy5//8TU7dh/4zf+lJsfSv1dDnegiASotcyyBpQosF1ACSyT8xALd+LnZdW80pcROcVhVa+2Asw75eQVWhdaP/DKxtRyrAf3hPKBwOnqcbgCuwppa+Hccap4tEoDdDoxZG4OtmApuOMvbV8KFf5jE5C+DP2UwLSWWts0zadW0Fg3qJpOdmUh2RiKpybEApKfGsq+glILCUvL2lbB0dS5LVu7m2x+2sHuvfdd9n3y1lucnLuSq8zp6941ajJ+rzuvA/f/59jf/d3r/ZsRE6zNGkUAVlzg2hXCfoht6SmCJeJ8BdAKGAkOA47GSWBJcfqzKtl8vG1SOVbF1MKF18GsT4CSFzXFxwE3A5VirFj7Gb1e5FAk2J5Kp2ZisVmjD18at+zjlsrdYvsb5No2GAR1bZ3Fi9waccHx9enbKoX6d5IDGqqgwmTF3E29+vJyX311MUXHNLy7/9OB0TjmhCQ1zUjx7PK+5sDOPjPv+N9Uiwwdp+qBITZSUOlaBpfePLqAElog3JWBVVp0BnA1oqRp3P8+2qrqdo3CETDJwN3A98CjwBNZ0UJFQcCKBVRfDmKEKrPC0dHUup1w6kc3bnbt+8vkMBvRuxNmDW3J6/2YBJ6x+ze83OLlHQ07u0ZB7buzDw8/O5t8T5lNeEXg7yX0FpYz562d88uIIz04lzMlK4pwhLXl90rKffhYfF8WQk5rohBepAVVghTefQiDiGc2BPwBTsVaamoLVsFrJK5Fjl4HVF2spcK7CISHiRAIrB9PcptCGn9kLt3HiqP85lrxqVC+Fv//xRDZ8fTWfjx/J1Rd0si159WvZmYk8/tf+zJx4Ia2bZdRorM9mrOOtT5Z7+tj+4fLjf/H9KSc0ITE+Wie9SA0ogRXelMAScf/F9hhgJrASa/rTAKxG1SISuCbAW8B3QC+FQ4LMkQqs8spKJbDCzGcz1jHgojfIzbO/d3C34+rwxhNnsnraGP5yTU/HklaH06NjXb5/92L692pUo3H+9q+ZVFR4t+yw23F16NGx7k/fDx/cQie9SA05OIVQCSwXUAJLxH3igRHAJGAbVgPqPli9rkTE5usoYBYwEdCyTxIsTiSwYl77cPkBhTZ8vD9lFWeOeZcDRWW2jntcq9q8/8xw5rx3Ceed1poof2guB5ITY5j8wrmcOaB5wGOsWLuHV95f4unjfOPorgBER/k4vV9znfgiNaQEVnhTAkvEHaKAM4E3gdyqi+nTAdWRizjPwEoaLwH+pL87CQJHVsS87+mZ+qAjTEz7dgOjbvrQ1uXgU5Nj+c+9g1gw6VKGDXRHpU9sjJ83njiTbsfVCXiMe/89y9Y4BduIoa2pXyeZk3s2pFZanE5+kRrSFMLwpgSWSGhlAbdjrVL3ATASqwJLRIIvCavB+2JgkMIhDnIkgbV2bX4tIE/h9bY5i7Zx1tXv2VpFMHJoa5Z9dgXXXtgZn89dec74uCg+ePZs6tRODGj79ZvzeefTlZ493tFRPsae34nhgzR9UMQOqsAKb0pgiYRGV6ypgeuxGkpr6pKIe7QEPseqhMxWOMQB+UCpA+PmAFsUXu9atiaXoVe8zf4D9pwejeun8vHz5/Lmk2dSNyvJtY87JyuJ/943OODtn/nfAk8f9zGjOnKWElgitnAwgbVf0Q09JbBEgicWGA18D8zFas6uaisR9xoBLK/6W9XULLGTiTVd3PY8ALBR4fWmjVv3MXj0RHbvtadh+5kDmvPDh5cy9OSmnnj8Zw1qwcihrQPa9us5m1iyardnj31WRoKrE4wiXuLgFMI9im7oKYEl4rxU4G/AJmA8cLxCIuIZaVjVktMAddcVO213YMy6Va814jGFRWWcdfV7bN5e8w/4/X6DB/50Iu8/czZpKbGeisNjf+lHbIw/oG29XoUlIvZwqAKrCChWdENPCSwR5yRj9bdaB9wL1FZIRDzrZGBR1d+0X+EQGzgx1a8BmEpgeYxpwpV/+ZQflu6o8ViZ6fFMfmEEf766J4YH60br10nmqvM6BrTt65OWUV5RqRNKJMI5VIGl6iuXUAJLxH61gP8DNmP1t0pXSETCQnzV3/S3QHuFQ2poqwNjNkRTCD3n0edm8/qkZTUep3mjdL5/7xIG923s6Xj8+ZqexMVGVXu73Lwivv5e+VuRSJe/v8SJYXMVWXdQAkvEPhnAPVgrCt4JpCgkImHpeKw+dqrGkppwpgLL9CuB5SGfzVjHXx77usbjdGyTxYw3LqBJ/VTPxyQnK4mLhrUNaNv3Pl+lk0okwuXtcySBpQosl1ACS6TmErB6XK0H7sbqmSMi4S0WqxrrC6CxwiEBcCKBlTlrzoZdCq1HToAdBVx4y0dUVJg1GqdP13p8+dr51KmdGDaxuTLAaYTvfb4S09S5JRLJ8vY50qpKFVguoQSWSM2cASzB6nGl5WNEIs9JwEKslQpFqsOJKYScf8unBqBGQC5XWWky+taPyc2r2YqDA3o34vPxIz3XrP339OhYl+NaVb916JYdBcxfsl0nmEgEy9uvCqxwFqUQiATkeOBfQG+F4jf2Y31KkQvsrnrC3w/kYa3eUQjkV/37QDXHTgDisKrc4rB6EqViVcMkVd1iq36WidU4P0GHRByWgrVS4SnAlcBehUSO5VrbiUE37dhbF9iBtSKhuNQ/X5rLF99sqNkbkQ51ee+/w0mIjw7LGF127nH84e/Tqr3d13M207V9HZ1kIhFKUwjDmxJYItWTAzwAXExkVjDuAtZW3TYA26ouwg5+3Q6UuGyfE4AsIBsroVW76vusQ77PwWp+nKZTXGrgbKArcD5Wo3eRo9nq0LgNMIyNmKYSWC61eOVu7nx8Ro3GaNE4nUnjziY5MSZs43TWoBaBJbC+38Qtl3XTiSYSoRxq4p6nyLqDElgixyYa+BPwF8J/qmAZsAJYCiwGlgGrsZJW+zz4eAqx+pOtP4bfTcVKZDUGGh1ya1j1VR/pyu9pBHwN3AU8gqZyyZHlYlWixtk8bkNMcz3QQyF2n9KyCkbd9GGNlnlvUDeZqRPOIzszMaxj1aR+Kq2bZbB8TfVaz8yYs5nKShOfz9AJJxJhikvKa/T8ehQ7FV13UAJL5Pd1Bl4COobhYzsALADmYK2q9gOwCiuJFYnygR+rbocTh5WgaAa0BloBLav+reSWHPra+iDQH6tac4dCIodhYlVhNbV53AYYrEWNrF3p4Wdns2TV7oC3T4iPZtK4c2iYExkLHZ92ctNqJ7By84pYsmp3QD20RMTjb+T3OzYRRAksF73JFpHDi8VaXfC2MPpbWY9VHTIDmI1VZVWhQ33MirGq01YAk3/1f6lYCa1W/JzcagW0qDqXJPIMAuYDI4BvFA45jM3Yn8BqRKX5LYaqT9xm5bo9PPDf7wLe3jDgxYdOpWObrIiJ2SknNOGxF+ZUe7u5P25XAkskAu3NL3ZqaH0Y6RJKYIkcXk/gBaCtxx/HeuBzrKTVV1UXS+KMfOD7qtuhhgPvKjwRKweYDvwB+I/CIb+ywYExm2L412r2qruYJlx795QaTW25fWxPzjutdUTFrUenHHw+g8rK6pUU/rhil046kQiUpwqssOdTCER+IR54CJiJN5NXRcBU4A6gG9AEGAu8hpJXoaJGyhIDPAW8ilbFlF9yIoHVcM2mfRsVWnd55f3FNVp1cFDfxtx/ywkRF7eUpBhaN61V7e0WKYElEpEcWoEQlMByDSWwRH7WHVgE3A74vfRcDbyCVemTgTVt6WFgng6pK2QpBFLlQmAWVmJZBJxJYPl7jnjBB5QqvO5QVFxeo1UHM9PjefmRofj9kTkttGfnnGpvs2i5ElgikShvnyNTCPdhFQmICyiBJQIGcAtWX6jmHtnnPcBzwKlANnAJ8L6eXF0pWyGQQ3TC6j/XR6EQnElgsXt3SSOnxpbqe2TcbDZt2x/w9s89MIS6WUkRG79u7au/RsquPYXs2H1AJ59IhHGoAkvVVy6iBJZEulTgTeBxrGk+blaBNT1wNNAAGAN8ij5ld7skhUB+pTbwRdXfskQ2p5JMTYG1Cm/obdlRwKPPfR/w9led15GzBrWI6Bi2CmAKIcCajXk6AUUijEMVWGrg7iJKYEkk6wksxFohzM1+BG7G6qU0CJgAFOrweYZWIJQjnRfjgQf0WhzRNgKmA+M2xTSVwHKBvz/9LQeKygLatkHdZB77S7+Ij2GrphmB/XFt3acTUCTC7Ctw5HN9zUl2Ea1CKJHo4JTBh4Bol+5jKfAe8DTWCoLiXUpgydH8GWgFXIwS05GoGGtqgt1TjZtgGLMV3tDavH0/L761KODt/3PvIJITYyI+jjlZSSQlxFBQWL0L0/Wb83USSljJ21fCztwD7N5bZN32FLFrTyG79hSSt6+EfQXW9LmikvKfVjzdV1BKRYVJZaXJaf2a8n9hvhjEXmcqsLbq7HMPJbAk0qQDLwNnuHT/tgH/xepvtV2HS8+zEhHOBnKA04FchSPibMD+BFYzTOMVDFPRDaFHxs2mpLQioG1HnNqKM/o3VxABw4AWjdP5YWn1ZvFsUAWWeExxSTmrN+Sxav1eVm84eMtj9Ya9bNtZQFl5ZY3G79Ep/BfG3pPnSAJrm85OXViJhEIzYBLQxoX7thZ4EhiHGrGHGx1PORY9sZq7nwKsUTgiynqsVXDtfb3z+VZgVii6IbJtZwHPvRlY9VVSQgz/umuAgniI+nWSq5/A2qIElrjXlh0FzFm0je8XbuP7RdtYuW4Pm7fvx9TnDjV77t1V4MjhUmTdQwksiRR9sKbk1XbZfi0A/gm8htWkXcKPpoXJsWqGtRrq0KrnBokMTvSqSm198nMFy6dfXoZ7p8qHtUef+/6nKTzVdfvYHuRkaf2PQ9XNSqz2NlqFUNziQFEZ3y/cxuwFW/m+Kmm1ZUeBAuOAbTsd+btXAstFlMCSSHA51rQ8NzWS+AG4E5iswxP2lMCSal2nAdOBs4CvFI6I4Eiz9RWbdjcF1gEtFeLg2rWnkGffWBjQtg3qJvPHK45XEH/9xBhAQi83TwXQEjor1+3h4y/X8slXa/n6+00BTyeW6tm+SwmscKcEloQzH1aj9ltdtE/Lgb8Bb+PMylPiPjsVAqmmNOBT4ByU5I4ETk0ZbYlhrsA0lMAKshcmLqIwwJUH772pL/Fxenv+a3Uyq1+B5VAvHJHDKiou56vvNzH5yzVM/nItazbmKShBVlBYWu3FHo6Rmri7iF4hJVwlAa8Cw1yyP5uBu4BX0FTBSLNJIZAAxGFNex5V9VXC11qHxm2JaaxUeIOrosIMuPqqSf1ULjqrnYJ4GFkZCdXeZv+BUkrLKoiJ9iuA4ojyikqmzFzP/z5cxvtTVjmVPJFj5ND0wSJgr6LrHkpgSTiqg1W10NkF+1IE/AN4GFAzhsikBJYEKgZ4E7i46quE73NEKfZPc28Jxicq9g2u0rIKrr2wM+Pf+ZGlq6u3qOifr+lJdJRPQTyM5MTA/jxy9xYFNP1Q5GhWrN3DuDcW8sr7S9i1R50i3ELTByODElgSbhoCU4EWLtiXt7GmL67XYYloWlFOaiIaa5GHWGCCwhGWKqpeJ+ye6tcKs/IJDEMRDqL4uChuvao7t17VnTmLtvHyu0t4/aOlvzudrVG9FEaf3V4BPIKkABNY+wpKqZul+IkNT9QVJu9+vpL/vvYDX87eqNUCXWhHriMJrG2KrLsogSXhpAVW8qphiPdjOXAtViNmkTXAPiBFoZAA+YGXsJJZLygcYWkt9iewmm3etX91/Sw99YTK8R3qcnyHujz2l358NG0N49/9kU+/Wkd5ReVvfvf2MT001e0oAq3AUuNsqamCwlJemPgjT4yfy7rN+QqIi211ZmXHjYqsuyiBJeGiDVbyKieE+1AGPA7cA6hzqBxUCSwATlQopAZ8wLiq55bXFI6w40SlZmyD3s/EmKtu24NBLYU4dGJj/JwzpCXnDGnJjt0HeO3DpYx/ZzE/rtgFQGpyLJeo+uqokhKiA9quuKRcwZOA7D9QyhPj5/HPl+ZoQQCPcGgK4QZF1l2UwJJwcDzwCZARwn34FhgDLNbhkMP4HiWwpOZ8wHis3nrvKhxhxampxq0wWAb0UYjdITszkT9cfjx/uPx45i/ZwcvvLiYlKYbE+GgF5ygCXZlRFVhSXYVFZTz58jz+8fwccvOKFBAPcWgKoRJYLqMElnjdCcBHhG56VhFwB/AUVqWNyOFMBv6kMIhNr9uvA8OrzisJD6sdGrc1sAQlsFypS7tsurTLViCOgRFgLzclsORYmSa8/ekKbnv4S9ZrqqAnOTSFcL0i6743wiJeNRhrefmEEN3/D8BFwFIdCvkdM4E8IE2hEBvEYC0ScTowTeEIC8sdGrcd8KPCK17n9weawNIUQvl9c3/czrV3T2HOIu/16/b5DGrXSiAxPpqYGP9P1ZypybH4fBAT/fPPenepF9bHUVMII4MSWOJVJxC65FUl8A/gLqylz0V+TxkwCbhYoRCbxAMfACcD8xQOz1tX9XoSY/O4bTF4A62WJR7nC7ACy9AqnHIU+w+Uctc/Z/DUK/OpqHDfE2VOVhKtm2XQqF4KdTITycpIoHatBLIzE8nOtP5du1ZCwAnecLN9t+0JLBPYpMi6ixJY4kVdsaYNhiJ5tRkrCfGlDoNU0zMogSX2Sqp6LuyNlQAR7yrHWomwtc3jtissKV2aEBOjCIun+XyBXaDrwl6O5POZ67nyz5+wadv+0F6M+320alqL1s1q0apJLVo3y6B101q0appBSpKeu49VRYXJrj2Fdg+7CyhUdN1FCSzxmpbAx4Sm59VXwChguw6DBOAbrEqZrgqF2KgOMAUribVT4fC0FdifwEpNbPsvn7n6tt1ApkIsXlVZGVh1jN/nU/DkFw4UlXHbQ1/y3//9gBmCoqs6tRM58fgG9OhUl+4d6tKlXTYJWsShxnbmHnCiim69Ius+SmCJlzSsulALdsdTE/g38EesT8lFAnU/1tRXETs1w6rE6gccUDg8azkwzIFx2wHLsKbei3hScUlgb79UgSWHWrhsJyNv/JCV6/YE7T7jYqMY2KcRp5zQhP69GtG2eYYOhAO2OdP/aqMi6z5KYIlX5ADTsZJYwbQXGI3Vv0ikpt4HvgAGKBRis+OB14BzAC275U0rHRq3LdZKhEpgiWcVB7iaYJRfFVhimfDeYq752xQKi8ocv6/4uCgG9G7EiFNbMWxgC1KTY3UAHLZukyMrR65RZN1HCSzxgkzgc6BpkO93GXCGnrzEZjcCcwjd6pkSvoYBDwC3KxSetMKhcdthGgsw1MldvCvQCqzoaCWwIl1pWQXX/m0KL7y1yNH7iY+L4twhrTj7lJacckIT4uN0mR1M6zbnOTGsrgFdSH9Z4nYJwGSsKRDBNBUYAeTpEIjNlgJjgVcUCnHAbcAirGos8RanElhd8FdOoFJTqcS7iooDS2AlqrdQRNuTV8w5173Pl7OdmwmWk5XEVaM6cv3FXchMj1fQQ0QVWJFDCSxxMx8wAWtqTDA9B1wHlOkQiENerTqvb1QoxKHnsBXAXIXCU3ZjrXhU2+Zxu8S3fvzaxZ9eYTZrmKYslnhSoAmspESt4hapVqzdw9Ar3mbtpjzbxzYM6N+rEddf3IUz+jdXrzUXWL9FCaxIShCIuNX9WP1cgsUE7gXGoOSVOO9m4GmFQRwQD3wI1FMoPGexE4MWl1aMaj34eS7508eOXMyJOC1vX3FA2yUlqAIrEs39cTsnjPqfI893Zw1qwaKPL2fqhPM4a1ALJa9cYq39FVglwGZF1n2UwBK3ugT4cxDvrxQYBdyj0EuQmMANWNUyInarC7wFqPzAW350auDy8krjlfeX0GbwC4y98zO27ChQtMUz8vaVBLRdUoKeAiPN9O820v+iN9i1p9DWcft0rcesiRfy3n+H075lpgLtpjfUJmywvwJrHVoUx5WUwBI36gOMC+L9FWI1P56o0EuQVWJV/I0FyhUOsVkv4BGFwVN+dPoOSssqGPfGQpqe/Cxj7/yMrTuVyBL325Nf/Qosv99QI+0IM3XWBk678m32Hyi1bczWzTKY+O9hzHjjQnp3UWGzG23bVRDwNOOj0PRBl1ICS9ymKfAeEKz1ZvcAA4FPFXoJoXFYK17uVSjEZjcCZykMnrEoWHf060TWNiWyxMUCmUKYmhyrwEWQL77ZwJlj37EtkREb4+ehW09i8eTLGXFqKwzNFHQthxq4r1Zk3UkJLHGTZOAD7G9geyTbgf7Atwq9uMCnQFus3kUidjGAl4AmCoUnLMWqzLTbEcsRSkqtRFaLAc9x0/99wY7dB3QUxHUCmUKYmZ6gwEWIGXM2c+bYd21LXnVtX4d5H4zm9rE91OPKA9ZtznNi2LWKrDspgSVuOhffAtoH6f62ACcACxV6cZHtWNUyVwL5CofYJA14HfXD8oICrL4bdvvdY3+gqIwnX55Hs37juOPRr9iTV6yjIa6xI7f6idWsDCWwIsGSVbsZdvW7FBbVfP2lKL+P28f24Ju3LqRdC/W58gqHKrBWKLLuTRqIuMHfgFOCdF9bgX6oNFTcyQReAFoCz6IGkmKPHsAdCoMn/BjKOz9QVMbDz86m0YnPcMejX7E3X4ksCb3tu6qfwMpIi1fgwtzGrfs45dKJtjxPNaqXwux3L+ahW08iJtqv4HrIus2OJLCWK7LupASWuMFg4K4g3dc2rGmDqxR2cbmdwNVAF+AzhUNq4GusVVYfVCg8wakEllmdXy4oLP1FIivQVeBEbHnzFkCPNlVghbeCwlJOv+odW1ZU7d2lHrPfuZgu7bIVWA9auzHP7iELgU2KrDspgSWhVg94NUjn4g5gACoJFW9ZBAwBegIfVfciVCL3vT1WBV8H4CTgTaBMYfEEpxJYewLZaP8BK5HVrP+z3PPkLPL3K5ElwbctgAqszHRVYIWrykqTi/7wMT+u2FXjsa4c2YHpr40iOzNRgfUoByqwVuBMP0qxgRJYEkrRVRdVwWjanouVvFqmsItHzcZaqbAr8D+O0pRZIvc9PTAduBTIwarg+1Fh8RynjlmNEph78oq598lZNOs3jnuenMW+Aj0FSXCUlFYEtAqhEhLh665/zuCDqTWbTOH3Gzxx1wCee2CIpgx6WFl5JVt27Ld7WBU7uJgSWBJKDwB9gnA/hVUX/ksUcgkDPwAXAg2xpt5uVkgi3grgTqyVBvsDLwP7FRbPWgUUOTBuLTsGyc0rqkpkPcvDz862pXGyyNFs21mAGUDtcf06yQpeGPp4+hoefOa7Go3h9xu89PBQbhzdVQH1uI1b91FRYfvkBPW/cjElsCRUhgF/DML9lAMjgW8VcgkzO4D7sZIWp2NVMxYpLBFjMXAf0BFoDfwd2KiwhIUKnKkWjsHGKRG79xZxx6Nf0fgkK5Fl1/L1Ir+2Yeu+gLarX1cJrHCzeft+Lr1tckAJzYP8foMXHzqVi89qp4CGAQf6X4EqsFxNCSwJhabAeMBw+H5M4CrgY4Vcwlh51Tk+CqgLXAFMQf2Owk0F1jTSv2AlrI4D7sbqkSbhx6lphLY3pd21p7AqkfUMDz87m+ISJbLEXhu2BNbfpl52koIXTm92Kio578YP2b038M/q/H6DCY+exiXD2yugYWLp6lwnhlUFlospgSWhOOfGA2lBuK87qu5LJFLkAy9ireyZjVV9+AqwT6HxpN3AW8BYoAFWI/8H0SeDkWCxQ+PmObXDO3OtRFbLgc/xxPh5SmSJbdZvrv5LmN9vULe2Eljh5KFnZvPN/C0Bb28YMP6RoVxwZlsFM4wsW2N7AqsSWKnIujuZIBJMtwInBOF+ngUeUbglgu3FSn5cgpXMGlT1N7EArWToVnlYK03eCnTj5yTkOGCbwhNRnKqsS3B6xzdt28/N939Bq0HP88T4eZSUVuhoSo2sD6ACKycrCb/fUPDCxA9Ld/B/T31TozHuu/kELhqmaYPhZunq3XYPuRarf7K4lBJYEkztgXuDcD9fAjco3CI/KQamArcDnbGmGl4API01VUlLBYfGFuBd4GagC5CBteDEP4B5Oi4RzakphA2xph07buPWfVWJrOcY98ZCyit0OktgNmypfgVWw5wUBS5MlJRWcNEfPqK0LPBk+EXD2vHXa3spmGFomf1TCBcrqu4WpRBIkEQDE4BYh+9nDXAu6v8jcjQ7gNerbgDpQG+gF1blTzesZIrYJx8rKTUb+L7qtlVhkSPYBuwCats8bizWirxBK0PYsGUfY+/8jAef+Y4/X92Ty0ccR5Rfn5/KsVu9YW+1t2nWME2BCxMPPvNdjfoc9e1Wn+cfHIKhgrywszO3sEY90Y5ACSyXUwJLguUurMoPpy8QzwRyFW6RatmL1Qj+0AUPGmMlsrpUXey2w1rxUFeeR1eO1TvhR2Bh1RuhH4H1Co0E8Ca6nwPjbiKICayD1m/OZ+ydn/HQM99xx9U9uWJEB03xkt9VUFjKpm3Vr8Bq3ihdwQsDy9fk8tAz3wW8fcOcFN59+ixiY/wKZhhyoP8VWB/yiIspgSXB0A34s8P3UQGcDyxVuEXsud6sur19yM8SgDZVF78tgOaH3NIiKDYmVoXMKqxk1SqsxuorsHonqAJU7DAPZxJYIe2Bt64qkfWvl+Zyx9U9uPDMdkpkyZEvUFfnYgZwxqoCKzxcfdfnAffR8/sNXn3sdGrXSlAgw9TSVbudGFYVWC6nBJY4LQ54OQjn2r3AJwq3iKMKqy6q5x3m/zKBRlj9tXKqvh767xyspuRu/xi0FNiJlaDaUXXbhJXM21h12wyU6HQQh33v0Lj1sJKs0aF8cMvW5DL61sk8Mu57bhvTnYuGtcPnUyJLfmnJqsAqLFSB5X3vfLqSr77fFPD2f722FyccX1+BDGNL7e9/VYZWIHQ9JbDEafcBTq9X+znwd4VaJKR2V92OxoeVxKqDldRKPeSWfsi/o6q++rAquw5+PZxYfplMMrFW8wMowmpgn4eVmCoADlR9v/dXtzysZJWmIItbzHFo3HZYSeju7khQ7Gb0rZN59Lnv+dsNfTh3SCv1qpGfBDpFSAksbyuvqOSuf84IePvjO9Tlzut6K5BhzoEE1vKq94viYkpgiZPaY62u5aTtwGi0WpeIF1RiVTZtA35QOESOaj1WUjXb5nH9WNNeu7vpwS5euZuRN3xAh9a1ufO63kpkCRDYCmO10uKolRan4HnYuDcWBpy8TE6M4Y0nziA6Si07w/75YY1WIIxE+ssWpxjAUzg7RaEcGImVxBIREQk3cx0a17VTYBct38XIGz6g85njeeuTFToDItySAHrctGuRqcB5WEFhKff9+5uAt//7H0+kaYM0BTLM7c0vZtvOAruH/VGRdT8lsMQplwInOXwffwVmKNQiIhKmnOqDlWUYhqunSSxctpORN3xAr3NfZdK01ToTIlBxSTkbtuZXe7u2zZXA8rKHn53Njt0HAtq223F1uPbCzgpiBHBg+iAcvseruIwSWOKEdOAhh+9jMvCoQi0iImHMqT5Y3cGc44UAfLdgK2eOeZc+I19j6qwNOiMiyLI1uVRUVH8JwjbNMhQ8j9q6s4B/vhhY4anfb/Ds/adoVdMIsXS1IysQqr2FByiBJU54AMhycPzNwMWEeClwERERh8126LUuyzSZ76VAfDN/C4NGv0nf815j2rdKZEWCZQFWWLRtrgSWZy8gnv6OA0VlAW174yVd6dIuW0HU80OgNgC7FFn3UwJL7NYVuMrB8U1gDLBHoRYRkTC3B1jr0Nj5XgzIrHlbGHCxlcj6cvZGnSFhLNApQm2UwPKk3XuLeOmdwFoQZWUkcO/NfRXECOJAA3dNH/QIJbDE7vPpP1grHDllHPCJQi0iIhHCqal+aT6f4dnlwmfN20K/C99g0Og3+X7hNp0lYSiQKUJpKbHUy05W8Dzo6Vd/oDDA6qu/3dCb5MQYBTGCLF5p+xTC+YqqNyiBJXa6Eujh4PjrgVsVZhERiSBONXLvHu33zfF6cKbO2kCPc15h0Og3mbNIiaxwMn/Jjmpv07V9HQy1QPKc4pJynn4tsPZDLZvUYsyoTgpiBNmZW8jm7fvtHlYVWB6hBJbYJR64y8HxK4HLgP0KtYiIRBCnkkxdSsoqvgqXIE2dtYHuZ1uJrHmLt+usCYML1A1b9lV7u67t6yh4HjT+ncUBrzz4wB9PJDpKl7SRZMbcTU4MqwSWR+ivXezyB6C+g+P/G/hSYRYRkQgzHyh3YNwoYHe4BWvqrA0cP3wCZ4x5J6AKHnGHQKeFqom391RWmvzzpcBWHuzRsS5nn9JSQYwQq9bv5Y5Hv+LiP35s99AbUQN3z4hSCMQG6cAfHRx/LXCnwiwiIhGoEFgMdHJg7FpRfl9peUWlp5rHpKXEkp4SR3pq1e0X/4796d9784spr6gkyq/Pa73m+wCngx7fQRVYXvPB1NWsXBfY2kz33NRXU0bDXGWlybRvN/LEy3P5ePoaTGfWoFf1lYcogSV2+CtWEssJJtbUwQKFWUREItQcnElg9YqO9n1fXlEZ9OW74mKjfpNw+m1SKvY3P69dK0HThSLhhA8ggZWeGkeT+mkKnsc8MT6w6qtux9VhyIlNFMAwtWP3Aca/s5j//u+HgKYTV5MSWB6iBJbUVD3gWgfHfxX4WmEWEZFIvp4HrnJg3F5FxeUPAwElsJSEEieYJsxZVP0+Zl3bZ6sax2PWbc7n6zmB9TO66/reCmAYmrd4O+PeWMgr7y+hqLg8aHeryHuHElhSU3/HauDuhH3A7QqxiIhEOKdWIkwAtmRlJu5vUCc5OT31t1Pz0lJij5CYilOyQByxesNecvOKqr2dGrh7z/h3fgxoSljHNlmc0b+5AhgmikvKmTh5Of98cS4Llu0MxS7M11HwDiWwpCbaAxc5OP6dgNbEFhGRSLcEOAAkOjB2+o5vr/0DhvGcwixuMGeRGrhHgspKkwnvLQlo279c01MJ9DCwesNenp+4iOffXBRQ0tomm4GdOhreoQSW1MR9gN+hsRcATyvEIiIilGNVYfVzYOy++LgVU0EWdwi0gXu341SB5SVfzt7I+s351d6ucf1UrTzoYQebso97YwHvfr6SioqQv/jM1VHxFiWwJFCtgWEOjW0CNwEVCrOIiAgAM3AogWU0e3S1ufq2DUAjhVlC7fuFauAeCV5+d3FA2918aTetLOpBeftKePndxTwxfi7rAkhcOkjTBz1GCSwJ1J8Bp149XkKN20VERA41y6FxM4D2YH4FxiUKs4RSWXllQD1w1MDdWwoKS3n3s1XV3i4lKYbLzj1OAfSQg03ZX/1gKYVFZW7cRVVgeYwSWBKIRsD5Tr2mAX9RiEVERH7hW6zKZCem7vcHpgNKYLnIztxCCgpLI+oxL1+zJ6CVx7q00/RBL3lr8oqAzu0xozqRkhSjALpcSWkFH36xmifGz2XWvC1u311VYHmMPquQQPwbuN6hse8D7laIRUREfmMe0MWBcT8wV//hBojaqBC7x6ibPuTNj5crECJVkhJiiI4O/+mDdTITWfrZFZ7b77Wb8hj3xkJemLiI3XuLvLDLqwA1VPMYVWBJdWUAlzk09m7gMYVYRETksGbiTALrJKP541vN1betBrQ2vYi4UqRUJCYlRHtmX13YlL26r6niMUpgSXXdgjPLeAP8HdinEIuIiBzxzfaNDoybBnQGpqEElohISPl87p8klb+/hDc/Xs6/XprLsjW5Xg31NzrbvEcJLKmOZOBah8beAPxXIRYRETmiGQ6OfTIY08EcozCLiISO3+feaZKVlSbPvbmQe//9Ddt2Fug1VYJOCSypjjFAukNj3wOUKMQiIiJHtB1YAzRzYOz+UHEp+EzUI1VEJGTcXIHl8xmMPb8TY8/vxN78YtZuymPJqt0sXZ3L2o3Wv1es2+OFqYS7gJU627xHCSw5VgYw1qGxlwOvKsQiIiK/60ucSWCdYDT/x15z9W2LAa1TLyISIn6/Nz5DSE+No2tqHbq2/+UqoKVlFWzevt9KbK3K/SnJtWj5LvYfcE0fs5mAqbPNe5TAkmM1CGjh0Nh3AeUKsYiIyO+aDjixPFUS0A3DmIppKoElIhIifp+3i2Bjov00bZBG0wZpnNH/l20V9+YX/1yxdbB6a1Uu6zbnYQY3nTRLZ5o3KYElx+oah8ZdAbyr8IqIiByTLx0cuz+VfIbBLQqziEho+HzhO4s7PTWOvt3q07db/V/8vKS0gtUb9v5iKuLS1bksW5NLYVGZE7uiBu4epQSWHIu6wGkOjf0oUKkQi4iIHJMtwCqcqYoeRFT8Y1QUFgHxCrWISPD5/b6Ie8yxMX7atcikXYvM3/zfW5+sYOQNH9h5d0XAPJ1p3uRTCOQYjAWiHXoTrt5XIiIi1TPdoXF7G03uicEwtDKTiEioLtANraNxqOVrcu0ecjZQqsh69O9DIZDfEQVc6dDY/0QrD4qIiFSXUwmsaOBkKvlMIRYRCQ2vNHEPllnzttg95ExF1buUwJLfcwZQz4Fx84HnFV4REZFj0hS4BHgW+IeD9zMYlMASEQnZBbpPCayDKipMvluw1e5h1cDdw9QDS37PWIfGfQoriSUiIiK/1QTod8itXpDud7DR4uHrzdW3bQIa6DCIiASXXwmsn/y4chf5+22dsFMJfKvIepcSWHI0OcAgB8YtAZ5UeEVERH6SCPQHTqm6NQ/RfrQAmmIaUzDMy3VYQueq8zrSv1ejsH+cazfl8c386k8RatWkFsd3qKsTxQMmfryc0vKK3/0904Si4nIA6mYlckb/5mETg+KS8p8e2++pVydJJ02VWfM22z3kj6iIwtOUwJKjOQ9nppm+DexUeEVEJMI1xZqqfzpwAhDrkv06OI1QCawQGtC7EQN6h38C66q/fMqMOdW/SL32ws6MOr2NThSXW7xyN2PvrP6s5NvH9mDMqI4KYISbOdf2/ldapMTjlMCSoznfoXGfVWhFRCQCZWBVWQ0EhgL1Xbqfg4krvZKS6ArAr8MmTjFN+OSrtdXezu83GNS3sQLoAZ9+vTag7QZEQPWh/D4HKrDU/8rj1MRdjqQZ0M2BcZejlR9ERCQy+IGuwO1Vr307gYnAGNybvALobzT45z7gGx1CcdL8JdvZsqOg2tv16JhDRlq8AugBU2dtqPY2sTF++nStp+BFuI1b97Fp2367h9V1qMepAkuO5HzAiQ6CzwCmwisiImHqYC+rEVhTA9M9+BhSgd4YfIzJCTqk4pSPpq0JaLtTT2qq4HmAacL3i7ZVe7uenXJIiI9WACPczLm2V18tBzYrst6mBJYcySgHxiwCXlFoRUQkzDTBWvTkDKz+UTFh8JiGUmm8gmE+pMMrTpkUYAJr6MlKYHnBynV72JtfXO3tenTKUfCEr+fYnmuaoqh6n6YQyuF0ANo5MO5EYI/CKyIiHndwauA9wFxgLVZ/x9MJj+QVwOlGi4eXAGt0uMUJ23YWMH/J9mpvV6d2Ip3bZiuAHjB/yY6AtuvSTsdXYMrM9bYPqah6nyqw5HBGOTSumreLiIhXpQBDsKqsTsVqyB7O2gFNwJgM5g06/GK3j6avwQygqcSQE5tgGIqfFyxbkxvQdt2Oq6PgRbg1G/NYuynPziHLga8UWe9TAksOZ6QDY64CvlVoRUTEQ3KA4cBZwImET3XVsRqKyccYKIEltvt4emCr053Wr5mC5xEr11V/4kVqcixNG6QpeBHOgeqrb4F9iqz3KYElv9YGawVCu72u0IqIiAc0xEpanQ6cHOHvlU6DwuEQvx9I1qkhdjlQVMbnM9dVe7u42ChOOaGJAugRK9ftrfY2rZrWUoWdMGXWetuHVFTDg3pgya8NdWjciQqtiIi4VBPgJqzltdcD/wIGog/6+hst/h0NfKFTROz08fQ1FBWXV3u7gX0akZwYowB6xKZt1S94ad4oXYGLcBUVJl/O3mj3sEpghQlVYMmvnerAmAuBJQqtiIi4SDusKqszgD4Kx2HFAv0wzY8rTc7y+VQWIfZ459OVAW03bGALBc8jyisq2RPACoTNGqYpeBFuzo/b2JNXbOeQecAcRTY8KIElh0oE+jow7psKrYiIuEA7YARWr8c2CscxOQ1/9N3Dr5potmmeYYw9vxNN6qcqKhKw4pJyPvmq+v2vfD6D09X/yjN25hZSWVn9Lv3qfyUO9L+aBlQosuFBUwjlUAOxPm21k4kSWCIiEjqdgIeAdcBi4G6UvKqO04ymD+xMSoze/vCzs2nefxyDRr/JW5+soKLCVHSk2j6bsY79B0qrvV3PTjnUqZ2oAHpE7t6igLbLyU5S8CLc1Fkb7B5S0wfDiCqw5FBO9L+aDaxVaEVEJIgaA+cBlwKtFY4aqQ90SUmOnQGMrKw0mTprA1NnbaBedhJXnteR6y7qTO1aCYqUHJNApw+eNUjTB73kQFFZQNvVSo1T8CL8vPluwVa7h1UCK4yoAksO5UT/q7cUVhERCYJGwG3AfKxqq4dQ8souw/fsKX711z/csqOAe5+cRf0+/2XkDR848am5hJnSsgomTVsd0LbDBjZXAD3kQGGACaw0JbAi2fRvN1JaZutsv/XAGkU2fKgCSw46DmjgwLiTFVoREXFIHayeVqOAXoC6jDvjrImfLL8vOspnlpVX/ibGpWUVvPXJCt76ZAVtmmUw9vxOXDHyOJIStFqc/NK0bzeSt6+k2tt1aF2blk1qKYAeUlgcWAIrPUUJrEg2ZdZ6u4f8TFENL6rAkoMGOjDmOmC5QisiIjZKB64ApgKbgSeB3ih5BVDp0LjtgEaZtRJ2/N4vLluTy833f0G93k8z9s7PWLR8l46K/OSNj5YFtN3IoSqm9BojwKfkxIRoBS+CTbU/gaXpg2FGCSw5yInVBz9RWEVExAaxwDnAB8B24HlgAOCP8LgUYa2udBfQNyqKBxy8r+FYfS2Pyb6CUsa9sZCOp79Et7MmMOG9xZSVV+pMjmDFJeW8P2VVQNsqgeXBi0yfEdTtxPu27Chg6epcO4esAKYrsuFFUwgFrE+tlcASERG36Q1cjNWQPV3hoBQriTQN+LJDB+a8envd1mYlfTGMm5avLzv1vDsdq3g6a9vOgjeAYdXdcN7i7Yy+dTK3PfwVl57TnqvP70Tj+qk6mhHmg6mryd9f/emDXdvXoUVj/fl7jd8fYALLUAIrUk2Zud7uIecCexTZ8KIElgC0ALJsHrME+FKhFRGRamoAXABcDrRUOFiLNV1yKvD5oteyM8A30DSNa4EBpkmtgzN1WjeOpn6Wn807K5zYjx7AwzUZYMfuAzz87Gwefe57+vdqyJhRnTh7cMuAL3TFW/734dKAthtxaisFz4NiYwIrkDWUwIpYn35t+8L1nyqq4UcJLAFnqq++AgoUWhEROQYpwFlY1VYDiOx+VoXAN1QlrX58PWenWWEOMTFGYPIf06T20Tbu3y2eCZMdefn1AY2x+mzVqAVFZaXJ1FkbmDprA80apnHVeR25YmQHMtPj9ZcQpnLzivj063XV3s4wYORpmj7oRanJsQFtV1ZeQUy0XwGMMGXllXw2Y53dw36gyIYfJbAEoI8DY2r6oIiIHI0P6A9cApwNJEZwLNYCHwGTbh+RPufCs+KPr6xkoGHwbGUFXazLeI4prde/a5xTCSyAoVjLkbewa8A1G/O449GvuPuJmZw5oDljRnViYJ9G+usIM29NXkFpWfUrA4/vUJcmmm7qSWkBriaYv7+E2rUSFMAIM/27wFYoPYqNwAJFNvwogSXgTAJLKz6IiMjhtAcuw5omWCdCY7AHa2rDZ8Bni17LTqyaFjgGeNc0SQ50Fk3HljFkpPrIzXekYfrJwGRsTGAdVFJawVufrOCtT1bQpV02Y8/vxIXD2pIYrxXJwsFrAU4fPE/VV56VmhRYBZYSWJFp0herbR8SMBXZ8KMEltTG/h4je4FlCq2IiFQ5dIrgwAiNwU9VVg+NSZ8z9KSfqqz+bJrYdpXuM+DkLnG8M73QiccQA5Q7Haj5S3Yw9s7PuPWh6Yw6vQ03XNKV9i0z9VfkURu27GPWvM3V3s7vNzj/9DYKoEelp8YRG+OnpLR6lXc2V+GIR3w0fY3dQ2r6YJhSAkv6Yn+vkW+wemSIiIheY64ARhB5UwTLgRlUJa0WvFzPMKLMMw3T/KuJ0cc0iXaqV3H/bvFOJbAAGgYrgPsKShn3xkLGvbGQru3rcOPoLpx/Rluio3z6y/KQCe8txgygDmJg78bUzUpSAD3KMKBedjJrN+VVa7vde4sUvAjzw9IdrN+cb+vLB1Y/ZglDSmBJNwfGnKmwiohErFrAucD1wHER9tj3YjVf/ygnh8mfPlq3kVlpnGEYvG9itsUEMwj96bu3jSEx3uBAkSOzJzqHIrDzFm9n9K2Tuf2Rrxh9dnuuuaAzjeql6K/N5UwTXn53cUDbXnxWOwXQ4+rXqX4Cy+ZEhnjAh1Ntnz74CVCqyIYnJbDEiYuLbxRWEZGI4geGYFVbnQ5EUuOi1VhTFT569vb0H3p2jD/RrDBONwzzEdMkGyP4TThiog1O6BTHp986UskQjZWoSw92oA0DsjMTqagwWbNxrxJYHjDt2w2s2ZhX7e2SEmI4a3ALBdDjGuQkV3ub9VuUwIo0H9rf/+pDRTV8KYElHW0erwT4XmEVEYmM6xOsZuzXAJG0dNxSrAaxH/3wep3N/kpjsGkafwQGU0mMYYS+b2z/ro4lsADKgvU4sjISOKl7Awb2aczQk5tSv06y/uo85IW3FgW03fDBLdTAPwy0aFT9PLcqsCLLlh0F/LB0h92vT58osuFLCazIllp18WGn+UCxQisiEraigeHAWKAfBGFOXOiZwFzgHeDdRa/VTTFN3znAf6kw27txmaMTOsURG21QUubI3jnWUT0+Loo+XesxsHdjBvZpRJd2dTAM/dF50d78Yt77fFVA216k6YNhoU3zjGpvs3LdXgUugnwwdVVAPfKO4musKmEJU0pgRbYODlx4qP+ViEh4ysFaRfA67P/ww40qgW+BScmxvPf1Czm1/YZ5tmkan5smjd2+OndCnEH3drHMWODIZ0q2dlFv2zyDMwY0Z2DvxvTtVo+4WL09DQf/m7SU4pLqL1qZk5XEgF6NFMAw0KZZ9RNYS1fvprSsgphovwIYARzof6Xpg2FO7xAimxP9r+YqrCIiYcOH1dvqGuBUrF5X4awM+BJ4JzOTSVOfzGlqVDICmAbUM01vlQL17xbnVAKrRurUTuSEbvUZ2Kcxp/dvRo5WmgtLL0z8MaDtRp/dHr9fZXfhoGWTWkRH+SgrP/bFyUtKK1i6OpdObbIUwDBXUFjKl7M32j3sJEU2vCmBFdmcSGD9qLCKiHheNnA5MAZoHOaPtRz4AnizTh0++vTxnFZVSat7qKSOlx/YyV3i+D8fVFaGdj8S4qPp3SVH0wIjyA9LdwTU18Yw4IqRHRTAMBEb4+e4VrWZv6R658IPS3YogRUBPv16HSWlFXYOuQhYp8iGNyWwIpvdDdyLgZUKq4iIZ3XFSlpdDMSH8eM8OD3wrc5t4t5/6c70rlQaZxsG/6SS1HB5kLVSfHRqEcP8FcFdTdzvN+jUJpuBfRoxsHdjTji+PrExmg4USZ7534KAtuvXsxHNGqYpgGHk+A51q53Amvvjdi479zgFL4yt3ZTHI8/OtntYTR+MAEpgRS4DaG/zmEuBCoVWRMRTUoFLgKuBtmH8OE1gNvBmejrvfvVUTkvTNC4B8/8wSQ7XVvSDe8YHJYFVNyuJgb0bccaA5gzo1YhaaXH6y4pQeftKeO2DpQFte6Wqr8LO8R3q8Ozr1dtm+ncbFbgwU15RyXc/bOWj6Wt47/NVrFy3x4m7UQIrAiiBFbnqAnavRa3pgyIi3tEBuB64AEgM48e5AHgzNZa3vnopp65RyQhM5pomtd3eiN0OQ3rE8+ir+VQ49/HSXZ+8MDJqyEmN79aflAC89M6PHCgqq/Z2tdLiGD64hQIYZnp3qVftbZavzWXbzgLqqj+ep+3eW8T07zYy6YvVfDB1FfsKHP0wZSvqxRwRlMCKXE0cGHORwioi4mo+4DTgRmAAhGvdEeuAiUkxTJg5PqdWVU+rmT/1tIqg/kvpKT56tY9l5sISp+6iYsjgek9Twp+BGP2JRTbTDHz64MVntdMKlGGoTbMM6mUnsWVHQbXOoy9nb+L8M9oogB6zdlMek75Yw0fTV/Pld5sorwhaE8YPiIRPpUQJrAimBJaISORIBS4FbiZ8m7LvAd4GXlnwvzp7jQrfCAxjEpVm00g/+Kf2SnAygXWR0eCfD5prbv0M0zhDf2qR7bMZ6wKeGnTFCE0fDFf9ejbi1Q+WVGubKbPWK4HlAcUl5cycu4VJ01bz/pRVbNy6L1S78qaORmRQAityOXEBoymEIiLu0gq4FriC8JwmWAxMBSZ8+mTWyrq1/CMwjfFU0syqstKHsQADjo/j/pcMikociUdboCMmrwFKYEW4p16ZH9B2fbvV57hWtRXAMNW/V8NqJ7A+nLqa8opKovw+BdBldu8tYvKXa/ho2ho+m7HO6amBx2IbMFNHJjIogRW5Gts8Xj6wQ2EVEQk5PzAMuAE4OQwfXyXwNfDKHy9I+2L0afGnmKZxE9AHiKjpgccqPtbgpC5xfPptkVN3cSH+xL9RUZgP4bOKo1TP2k15fPLV2oC2vfbCzgpgGDvlxCYYhjU18Fjl5hUxY85m+vVsqAC6wJJVu/lo2homTVvNtz9spbLSVR8QvYEWEosYSmBFLrunEK5TSEVEQircpwkuB95sUTfmzbcfy2xOJRcDz5gm0Tr0v29or3hHE1hGk3v+bK667V0MLlO0I9PTr/4Q0EVtdmYi5wxpqQCGsZysJHp0zOG7BVurtd27n61UAitEXDQ18Fi8oSMWOZTAilx2X9xsUEhFREKiHVbS6kIgPswe2y7gjfhoXvv25ZzoqmbsM6gkQ4e9evp0jCUtyUdegSMNdXOAE8F8GQwlsCLQvoJSnp8YWCvUq87rQEy0X0EMc2cNalHtBNZ7n6/kX3cOwO9XaW0w5O8v4Z1PV/LR9NV8PmN9QKuJhsBaYI6OXuTQpOLI5Aca2DzmeoVVRCSoBgKfYPUfvJLwSV6VA5OAsz57Irv/wtfq7f/upZyJRiUzsFZPVPIqAFF+g0E9HD1FLqL5o18DqxXtyDPujQXk7y8J4Lz0Mfb8TgpgBDj7lOpX2W3ZUcDUb3SJESypybF0bFObBnVTSEr0zKKyE1HDy4iiBFZkqg+2T7nQq4uIiPNigBHA98AUYAjh0/VpJXDv0N6Jxy94NWfKolfr/bVOhv9HTPMvgOaQ2ODUXo4msEYaBolWFZZEkrLySv49IbDm7cMGNad+nWQFMQK0aJxO57bZ1d7upbe1RlQwdW1fhyfuGsCWWdcy5eXzuPisdiQluDqZ9bqOWmTRFMLIVM+BMdcrrCIijkkHxmI1Zs8Jo8d1AHgrLoqXvn0pJ9ZnGBeD+Q0Qb+oDVdt1aRVDTm0/W3c50us2CTgb0xiPwT1Y1d4SAd78eFnA/XHUvD2yjD67PT8srd6aT+9PWcWevGJqpcUpgEHk9xsM7NOIgX0aUVRczkfT1zDhvcV89vU6ysor3bKby4FFOlqRRRVYkSnTgTHVxF1ExH5NgIeqnmMfJHySV/OAm+8ak95r0Ws5y2ePz3nZZ/A5mBcTfn28XMMwYEhPR8N7mdHikc0YxheKduR47PnA2s8c16o2/Xo2UgAjyAVntiE6qnqXnyWlFbz6wRIFL4Ti46IYcWorJo07h23fXcez959Cn671MEJf/63qqwikBFZkciKBtV5hFRGxTVdgAta0utuxVhj0ur3AuPoZ0T0WvVbv4YWv5px+7onxC02ThwjPVRNdyeFphCcBzTB5SZGODFNmrmfBsp0BbfuHy493wwWwBFHtWgkMPblZtbd76pX5Aa1wKfbLSItnzKiOzHzzQtZOH8tDt55Ei8bpodqdt3REIo8SWJGpls3jFQD5CquISI34gXOAb4C5wMV4f6p/JfApcPa0p7JPXfhqTvHHT9SebJrmRKwm9Lp8DbKWDaNpXt+x08oALsEf/z5WwlLC3GMvBFZ9VTcriQvObKMARqBrLuxU7W1Wrd/LR9PXKHgu07h+KreP7cHKqVcx9/1LuHF0V7IzE4N19/OBZToKkUcJrMhk9wpOuQqpiEjA4oCrgRXA20CvMHhMO4CH+nZO7LLotbrvLXwl566MNP93aBVBVxjaO8HJ4UcbTe4pxdDUjnA3f8kOPp8ZWAeJGy/pQky02qRFosF9m9CmWfVfBv754lwFz8VC0Pz9DUU9MumTz8j0HNaS63aZB3RTWEVEqiUZuBy4FWcW1wiFeT4fz330WJ2N9Wv7LjXhLKyVE8VFtu6qYOgfdmA6NyNnoLnmtnxM5ija4WvY2Hf58IvV1d4uMT6ajTOuUVPuCPb0az9w3d1Tqr3d/A9HB7SSoYTGwebvz725kCkz19s5tInVI3SDohx5VIEVmVSBJSISOlnAPVVvvP6F95NX+cC4Ds3jey16re64HybUu75ebd9kE0ai5JUr5dT207V1rJN3cZnR7JG5mCxUtMPTD0t3MGna6sBOjnOPU/Iqwl0yvB3pqdU/B+7/z7cKnoccbP4+sLftizV8i5JXEUsJrMhkdxN3JbBERH5fE+AJrEUv7gbSw+Ax3ffOI1mnLXilHq/ck/6FaRrPgtleh9r9zj7Z0WmEZ2MtPDBOkQ5P9/37m4Aq+Px+g5svU9F+pEtKiOHmS6t/Hrz3+UoWLd+lAHrMS+8stnvINxXVyKUEVmRSBZaISPB04OcVBW8E4sPlgY0cmHh185yomYZhjgESdKi9Y2D3OFISHXsbGA9cQAWvAPsV7fCyeOXugKYOAowc2ppmDdMUROGmS7tWuwrLNOH/nvpGwfOQb+ZvYfkaWy8VK9DqgxFNCazIZPc7B600JCLyWycDnwALCI8VBX9j+rzirMpKHWgvio02OK2Po7nUq43Wj+xHn5SHnXuenEllZfXLrwwD/nx1TwVQAEhNjuXG0V2rvd07n61QFZaHvPT2j3YP+QmwTZGNXEpgRej7VpvHUwWWiMjPr6vDsPozTAeGEMYLpuzaW8F3i0t01D3qnH6OFs11AHpg8KwiHT5+XLGL9z5fFdC2Zw5owXGtaiuI8pObL+1W7X5opgl/eexrBc8DDhSVMXHycruHfUmR1RttiTx2J7BUgSUiej2FUcBC4H0gYsoMPpxRqKPvUS0aRNO+maN99scYzR6Zi7VasYSBu58IrPoK4C/XqPpKfiktJZa7b+hT7e0+nr6GL75RD2+3e/uTFewrKLVzyFzgY0VWb7gl8ti99EuRQioiEfw6OgJYDLwORFwD82lzi9lfqHmEXjX8JEersM4H0sFQFVYYmL1wG+9PCaz6alDfxnTvWFdBlN+49qLOtGtR/fWl/vjg9ICTqRIcDkwfnACo7FtvvCUCj7ndfVhKFVYRiTDRwCXAMmAi0CZSA1FSZjLl+2KdER41tHc8iXGOzXK1mrmXxL8Oxj5F29vueOSrgFYeBPjrtb0UQDmsKL+Ph249qdrbLVy2k1feX6IAutS6zfl8PWeT3cO+rMhKlEIQcWIdGFOZcBGJFDFYUwXvAporHJYPZxRy9slahNCLEuIMBveM570vHZsKOtZod89/zFW3voZhXKOIe9NH09bw5eyNAW8//Jr3FESx3V8f+5qzT2lJcmKMguEyL761KOCE9xHMwWrTIBFOCazIvPiymyqwRCTcxQNXArcB9RWOX1qwspRNO8ppkK23FV40/KQEJxNYxwG98PuepdJUAsuDKitN7vznjBqNsTdfVZpivy07CrjniVk89pd+CobLnjMmvGd7dZyatwugKYSRSBVYIiLHLhG4CVgFPImSV4dlmvDRLLVD9KqOLWJo1TDaybsYYzR9eCEwU9H2ngnvLWHhsp0KhLjSky/P0/npMlNmrWfjVltnjRcDbyiyAkpgRSInEliqwBKRcJMM3AGsA/4F1FNIju7DGYV2TxeQIBrmbDP384BamMa/FWlvKS4p5+4nlHcU9yqvqOT6e6fq9cdFxr+z2O4h30Wr3ksVJbAijyqwRESOLJGfE1cPArUVkmOzdVcF81fo8wyvOq1PPLHRjjZzv4LN8e8CmxVt7/jXS3PtrqQQsd3MuZudWPFOApC3r4QPpq6ye1hNH5SfKIEVeZxY61xXLCLidQnAH4G1WImrDIWk+j6cUaggeFRako/+3eKcvItrjH73mMAzirY37Mwt5MFnvlMgxBP+8MA0Nm/fr0CE2KsfLKGouNzOITcA0xRZOUgJrMhT5sCYhsIqIh4VA4zB6nH1DyBLIQnclO+LKC7VPA6vGu7sSpJNgNMw/eOw+pmIy/3lH1+zr0CfUYo35O8v4Zq/fa5AhNizry+we8jxOFOAIR6lBFbkceKdSKzCKiIeEwNch1Vx9SyQo5DU3IEiky/mKDfhVd3bxjq9kuT1RosHd4E5UdF2twXLdjL+XU3JEm/5aNoa3vhomQIRItO+3cDilbvtHLISK4El8hMlsCKPEwmsaIVVRDwiGrgEWAY8hZqz227STE0j9CrDgPMGOlqFNQhoj8kTira73XL/NCoqVE0p3nPjfV+wa49eh0LhqVfm2z3kNGC9IiuHUgIr8jiRwIpRWEXEA693I4ClwMtAU4XEGbMXl7A9t0KB8KizT04kMd7RzgBXGy0enQ98q2i70568YvbkFykQ4kmD+jbGMNTdJNg2bt3HpC/W2D2smrfLYd/QS2RxogeWElgi4ubXuRFYFVcTgeYKibMqTZj8jS5+vSox3uCMvo5WYV0CpGCY/1a03alWWhzzPhjNv+4cQFKC3uKJN9TNSuLdp4fz2uOnk5ker4AE2bOvL6C8wtZWVXuA9xRZOdwbe4kspYDdNeF6dyMibmMA5wJLsBJXLRWS4Jmk1Qg97cJTEvE5V8CQDFzK3vy3wdiiaLtTlN/HTZd2ZdHkyxhyYhMFRNz7Ym/AxWe1Y/Hkyxk+uIUCEgIlpRW88JbtPfOeB/RpmPyGEliRye4qLCWwRMRNBgLfA28BrRWO4Fu7tZwla8sUCI9qWCeKXsc5uj7LdUa3ceXAk4q2uzWpn8onL45g4r+HkZWRoICIqzRtkMaUl89jwj9Oo1ZanAISIhMnL2fH7gN2DlmJtcCOyG9EKQQRqRR7k05KYImIG/QAHgD6KxShN2lGIe2apioQHnXBKUnMWlTi1PAtgdMwC5/BiP8LoBPF5Uac2ooBvRpx28Nf8uLbizAd7u/eu0s96mUnAVBQWEZZufrqecWseVsoKi539gLW7+OWy7tx7019iY/T5WyoOdC8/SOsVaJFfkMd7iLTLiDTxvEuBl5VWEUkRNoCfweG6XXNPVKTfEz9dzYx0TokXmSaMPz2nazb6tiF6JdAP3PN7Y9jmrco4t4xc+5mxt75GUtX5zp2H4nx0dx1fW/+dGV3/H49h3jB1p0FXHPX53z4xWpH7+e4VrV5/oEhdO9YV0F3gflLdtB12Mt2D3sK8LmiK4ejKYSRaa/N49VSSEUkBBpglZgvAs5CyStXyS+oZObCEgXCowwDRg1KdPIuTga6U2k+jjMLzIhD+narz4KPLuOhW08iLtaZ6pcDRWXc8ehXHD98AnN/3K6gu5hpwrg3FtJm8POOJq+io3zcPrYHc9+/RMkrF3li/Fy7h1wFTFVk5UiUwIpMe2weTwksEQmmTOAhYCUwBvArJO70oZq5e9qZJySQlODoW8WbjBaPbAbeUbS95WAy4cfJlzGwTyPH7ueHpTvode6r3PR/X1BQWKrAu8y6zfkMGv0mY+/8jH0Fzh2fXp1zfkqaxkTrJd8tdu8tYuLkFXYP+xRWDyyRw1ICKzLZncBKV0hFJAiSgNuBNVVf1bHV5b5eUExuvt6HelVCnMHwkxxt3D0SaIjBY4q2NzVvlM7n48/j5UeHkpke78h9lFdU8uTL8+gw9CU+/Xqdgu4CB6uuOgx9iS++2eDcc1B8NA/dehIz3riQts0zFHiXee7NhRSX2DrNvAB4WZGVo1ECKzLZPYVQrygi4qQ44I/AeqzKqxSFxBsqKuCz77QKtpddMDgRn3PvFqOAG4xmj8wFvlK0vckw4JLh7Vkx5SrGjOqI4dBk7nWb8zn18rcYecMH7MxVdWeorN6wl34XvnsI3zoAAIAASURBVM7YOz9ztCrupO4NWDDpUm4f20N90Fz5+m4y7o2Fdg87AchXdOVolMCKTKrAEhFPXBcBI4AlwD9QstyTJs3UhaaX5dT2c1JnR4sdrwKSMQ1VYXlcrbQ4nr3/FKa/dj6tmzn3dP3WJytoNeg5nhg/j8pKU4EPkvKKSh5+djbHDX2Jr77f5Nj9pKXE/nQetWisSwy3+vCL1azfbHuu6WlFVn6PEliRye4Eli4qRcRuA4C5wESgqcLhXUvXlbF6c7kC4WEXnOJoM/dU4EqaP/wRsEzR9r6Tujdg/gejufvGPo71K8rbV8LN93/ByRe+7uhqiGJZvHI3vUe8xh2PfmX3lLFfOL1/MxZ/coWjlXxij388/73dQ07D+sBS5KiUwIpMWoVQRNyqDVbSairQReEID5PUzN3TureNpWXDaCfv4ibDwA/mI4p2eIiPi+KeG/sw74PR9Oqc49j9zJizmU6nv8Qdj35FSWmFAm+zsnKr6qrrsJeZs2ibY/dTp3Yibz01jEnjzqFedpIC73Iz5mzmm/lb7B72P4qsHAslsCKTViEUEbepB7wI/Ig1bdALdqYl+Z5omO3fosN3dJNmFlKha0tPGzXI0SqsRsBI8vJfw+p1J2GifctMZk28iJcfHUqtNGemoh5MsrQ/9UVHG4pHmoXLdtLj7Fe449GvKC1z7gl8xKmtWPzJ5Zw7pJWC7hEOVF9tAj5UZOVYqDgzMp0OTLJxPBNIAIoVWhGppiTgOuCvQLJH9nl3aqLvpbcfqF2RneG/ttIk5Z3phfzjtXyKStSP5Uievi2DPh1iFQiPKik1OfWWHU6uKrkI6GSuuv1aDPMpRTz8bN91gNse/pJX3ndulpBhwEXD2vH4X/s7tipiuCsuKeehZ2fzwNPfUlbu3CqyjeunMu7+UxjUt7GC7iHL1uTSbsgLmPa+3bkT+LuiK8fCrxBEpFSspqm2vV/AWvJ0j0IrIscoGrgWeBcYBnghs7G7VorvsY8fy1pw/YiUaxITfAOAWMOAtk2iOaVnPMs3lLEtV6VGh1NRCYO664LSq6L8BuUVMHtJiVN3kQ3MvecPg97BLLsC7yS05RglJcYwfHBLuneoy6x5m8nf78y5tGj5Lia8t4SsjAQ6tslS4Kvh2x+2MvSKt3nn0xWONcj3+QyuOq8j7z8znDbN1EbXa25/5Ct+WLrTziFLgEuAA4quHGviQSJPNrDd5jEHYDXfExH5PWcAjwEtPLK/uamJvhcPVlyZkHKkX6yshPEfF/Dfd/ZTWq5qrEPFRht88Z9skhPUvcCrCgorOeXmnRQUOlaV8Q3Qx1xz2+2YPKSIh6/CojLue+obHnt+DuUVzlX59OvZkGf+bzAtm6jbxdEUFZdz779n8Y/nv6eiwrnXrnYtMnn+wSH07JSjoHvQ1p0FNDnpWbunlL6ClcASOSaqwIrQ9w3A7UCUjWN+CSxQaEXkKHoAbwG34Y3VS/ekJvn++cnjWfMPrbg62gaGAZ1bxTCgWzyL15aya2+ljnqVikpokB1Fm8bRCoZHxUQbFBRW8sPKUqfuogEw/Z5r+0zCx9WASvbCVHS0n4F9GjNsYHPmL93Blh0FjtzP+s35vPDWIsrKK+ndpR5+vxLovzZjzmaGXvk2H05dbfe0sJ+Pd5SPW6/qzuv/OpPG9VIVdI/6v6e+YcaczXYPexn2F1ZIGFMFVuRaib3VD3cD9ymsInKEi9IHgQs88rqTn5roe+btB2qbWRn+a7CmXVdbRQW8PFnVWIfq3CqG8XdlKhAetmdfJUNu3kFJqWPn9KfAqebq2+4D7lLEw19lpcnzExfxpwens/+AY8lROrSuzbi/D6FHx7oKOrCvoJS7/jmDp16Z79h0QYBObbJ44aFT6dIuW0H3+PnS8IT/2j3191PgVEVXqkMfQ0SujQ5coIqIHCoBq9pzKXAh7k9elSbE+Sa8/0jWc18/W+fqrAz/HQSYvALw++HyM5J4/f7atG2iqiOAH1aUsmF7uQLhYbVSfJx1YoKTdzEE6EqZ/wmgQBGPgIsRn8GYUR1ZPuVKzhnS0rH7WbR8F71HvMrYOz9jX0FpRMf806/XcdzQF3ny5XmOJa/i46J46NaTmPv+aCWvwsB/X/vBib51jyqyUl2qwIpcL2KVbNrlc+AUhVVEql5bzq16Y9LIA/tbFhfje+2VezLyWjaMdqR59MFqrKff2U9ZhFdjjR2ezLXnqD+3l23LreD0P+yk3LleOW8BI801tz+Oad6iiEeWSdNWc93dU9i0bb9j95GTlcQTfxvAuUNaRVRs8/aVcPsjXzLujYWO3s8Jx9fnub8PoVVT9R4LByWlFTQ9+Vm27rT1M4W5wPGKrgRykSGR6R6saX92WQ60UVhFIt7xwL+A3h7Y18ooP+8/9adaS3sdFzcGcHy5qpUby7hrXB7L15dF7AlSN9PP5H9m49M7kCNfLJSZVLq8fdq9z+fxybdFjv1tAl3eefqc/af0bfAjhpEQbsc4IS4aQ38DR5S/v4S//Wsm/3l1vqNNxU/v34yn7x1Mg7rhn1T/aNoarr7rM8f6jQGkJsdy7019ueGSLvgi+Em+tKyCsvLw6YH58ruLue7uKXYPezHwnofDUgxo2ekQ0Etn5LoCeN7G8YqARECNXkQiUyPgIeA8D7y2mH6DSY/ckP7joO7xl5sQ1IYo5RUmEyYf4D9v73eygsXVXvhrJt3axOiv5ghG/GUXKzeWKRBhbNPMa6hfR5WIv2f+kh2M+etnzFvsXI/ng0mX6y/ugt8ffpdGO3ML+dOD03nl/SWO3s9p/Zrx3/siIxn4e669ewr/fe0H/QGHt1HAmwpD8KkHVuSyuwdWPFBfYRWJOAlYFZ3Lql7M3f7uf9Z1I1LumT8hp93A7vF/DXbyCiDKb3D5GUn87/8yadUwMntjTZpZqL8cEfldXdpl8907F/GvOweQlOBM0jt/fwk33/8F3c+e4GiiLBTe+mQF7U990dHkVVZGAi8/OpSPnjtHySsRcZwSWJFrowNjtlZYRSLq9eNSYBXWdGS3L3f/3WVnJN258JWc5DHDku7FoFmod6hVw2heuTeTy89Iwhdhr8afzy6isFgFuyLy+6L8Pm66tCuLJl/GKSc0cex+5i/ZQc9zXuWm//uCA0XeroDcvusA51z3PiNv+IBde5z7wGDEqa1Y8ukVXDK8vU5UEQnaBYhEpnWA3UtBKYElEhl6AbOBl4Acl+/r4rNOSvjbwtdyom4+L+V+DDq4aediow1uOi+Fl/+WSZOcqIg5gQqLTabPK9Zfkogcsyb1U/n0pRFM/PcwsjKcaYtWXlHJky/Po8PQl/hsxjpPxulg1dW7n6107D5yspJ477/DmfjvYWSmx+vkFJGgUQIrcpUCa2wes6XCKhLW6gDPAjOBbi7f1y3Ht4l7eP6EurvvvSrtPkx372+H5jG8+ffaEVWNNWmGphGKSPWNOLUVK6ZcxY2juzrWKHztpjyGXPYWI2/4gJ253niu2rqzgGFj32XkDR+Qm+fMAguGAWNGdWT5lCs5a1ALnYwiEnRKYEW2ZTaPpwoskfAUDdwErADGuPy1o6BxXf+z3z5fd+nzf611u99nnOyVIB+sxnrprkwa1Qn/aqzZS0rYnqsFfESk+tJSYnnirgF89b/zads8w7H7eeuTFbQe/Dzj3liI6dJZz6YJ495YSOtBz/PhF6sdu59mDdP44pVRPHv/KSQnahEOEQkNJbAim90JrFYKqUjY6Q/8APwLSHHxfpalJvn+N+nxOu998Gj2lQlxxiCvBrxTixjeeqCqGiuM1wquNGHyN0X6C5P/Z++u46Wo/j+Ov2bzdt9LSl0u3SCpKKhgIQqiooCIig0WYaCIKGWBiYkiipSYmKAiFgYhKgoK0t23d+f3x1x+ol9EYmfz/Xw8eMAVnDP7OWd3Zz5zzueIHLUTWlRm0duXMXrQScR57Un879hVyFV3vs/JF7/Kzyu3hdXr/33NTk7t8xpX3fk+e/YV29KGy+lgwKXNWfLOZXRoXUWDTkRCSgms2BboBFZlQNuPiESH6sDrwMdA/XA+Ua/HmPHy8KznPnuqfLcqOY7egDPSg+/1/DUbq0q56J2NNftTLSMUkWPjdjkYclUrlr57Gae2q2pbO58tXEPjs15g6LhPKSoO7exRv9/k6amLaXzWJOZ+udq2dhrVyebLGb0YP+wUEuLdGmwiEnJKYMW2QCewDKCxwioS0eKB4cBPwLmRcMK3X5p6ZsOanquBuGjrjCa1PEwfFb2zsVZvLGXZ7yV614nIMatZNZ0PJl3Ii+POtK2weEmpnzETv6bhmc8z76s/Q/I6V6zeQYdLpnLVne+zN9+eWVdxXhd3D2jHwtf70KJheQ0uEQkbSmDFtp+BQK/ob6qwikSsLliJq7uJoGTQ4zP2JBQUmVHbKXFls7GeGJJJhUxn1L2+N1XMXUQCxDCgz3kNWP7hlfS/qDGGTYn/31bt4JTeU+lz6zu2FUz/p1KflTxrcMbzfLZwjW3ttG1Wie/fvJThA9rhcTs1qEQkrCiBFdv2AYH+BlQCSyTy1AbmAG8C1SLt5Dfv8PHC23ujvpPaNPAyc3QO53dMsO2mLBTmfFlAcYmpd6GIBExGWhwTR3Zm3pSe1K6RYUsbpgmTZy+jwRnP89LrP9r6epYu30Kb81+2dfliQryb0YNOYv7Ui6mbm6lBJCJhSQks+SnAx1MCSyRyJAMPAT8Cp0fyC5n0zl42xMCOdonxBsP6pfHEoEzKR8lsrF17/cxfVKR3o4gE3Ektj+OHN/tyt42ziTZu2celg97lrCtmsGrtroAee/+SxRbnvsS3SzfaFqfT21fn5/cvZ8hVrXBE8+4hIhLxlMCSpQE+Xj3Aq7CKhL0LsJYR3wREfJXwomKTR6ftjpnOa9vIy8xR2ZzfMSEqXo+WEYqIXeLjXAwf0I5vZ/ehTdOKtrXz7ie/U/+M5xkz8WtKff5jPt6inzfTqttkho77lOISex7QpKdaM9XmPN+DKhVTNFhEJOwpgSXfBfh4HsJ8xzKRGJeLtVzwNaBSNL2wd78oYNGvxTHTkUkJDob1S+PxQZnkpEf2bKz5iwvZtsuvd6eI2KZh7WwWTOvFi+POJCPNnjKP+QUlDB33KS3OfYlvFm84qmMUFpWWHeNFfvhpk23x6HFGbX754Ar6X6T9l0QkcrgUgpj3rQ3HbAp8r9CKhJU44DZgCFE6S9I04cFXdvPS3VlRVSPqv5zQ2MusMdk8MnU3M+ZG5kwmnw/e/6qAizsn6p0KpCU5yEyN3GeMpT5raaiNSoDt8R5XXEqKNzUSY+TUMq2Q2F/kvdMJ1Rk85hMmz15mSzuLf95Mmx4vc8UFjXjgtg4kJ3oO6//74vt1XH7be/yycpttMSifncjjw0+jW+daGhA2SU32Ui4rsr7Ptu0soLQ04J/b28s+r6NRgUZ6iD7HFQKNAWALEMhqjc8A/RVakbDREXgcqBMLL3bs9el0bh0fkx09f1Eh9zy3iy07Iq8eWN1qbqaOzNa7NUoMeGg7n35faGcTXUyTd1g5+AugtSIuR+OdeSu5bviHrF5n3xL0ijlJPHr3qYdMGOUXlDDisS944Nlv8Pns2dTCMKBX1/o8cucpts1Ak8g0871fOf/62YE+7LvAWYquBJqWEIpJ4GdLtVNYRcJCReAl4GNiJHkF8NCruyksjs1d7U5sEses0dmcfULkJfB+XlXCr3+W6F0bJW7okYzNk4zuNwwMTHOooi1H66wOufz0nlW83OW057Zo/ea9dL9uNl36z2Ttxj3/8/fzF66lSZdJjJn4tW3JqxrHpfHBpAt56YGzlLySvyn1+Rn28Hw7Dn2Poit2UAJLIPDLCOsCGQqrSMi4gIHAL0DvWHvxG7f5ePm9fTHb+SmJDu67Op1xN6STnhJZX/NvL9CM/GiRd5ybU1vamkhtCFxo5I37FMP4QBGXo5UQ72b0oJP4dnYfWjauYN/n29yVNDjjecZP+g6/32T33mIG3vsxJ1/yKr+t2mHPjZ7DoP9FjVn8Tl9ObVdVnS3/Y+Kri/g58EtW3wa+UXTFDlpCKADdgJkBPuZZWFNHRSS4TgSeABrE9A1JnMFbD+SQleaM6cGwfbef+17YyUcLCyPifDNTHXw4oTxOp97I0eD39aV0H7oZv33lsFYA9c3fbqmJ4VyMarvKMfL5TCa89B13Pfw5e/Pt2xSkdZOKrN2456AzsgKlYe1snht1Osc3qqCOlYPas6+YvFOeYdPWgD70M4GW2FNnWUQzsAQI/E6EoGWEIsGWBbwAfEqMJ68A8gtNHpuxJ+YHRUaKgwcHZjDuhnTSksL/K3/bLj9f/likd3OUqFHRxZltbZ2FVRO4xsh78Keyzz+RY+J0Gtx0WQuWf3QF3U+3r8j5V4vW25a8crscDLmqFQtf76PklRzSA89+E+jkFcBbKHklNlICSwBWA5sDfMy2CqtI0PQAfgL6opm1/++NT/P56Q/VVALo1CqeWWNy6Ng8/GufvPV5vjosilzXPQW3y9aPpbuBDPDfCcZuRVwCoWJOEjMeO5c3n+7GcRWSI+a8WzepyA9v9WX0oJPwejSVVf7d5m35PPy8LXmmkYqu2EkJLNkv0J9gLQG3wipiq1zgQ2AaoO3b/sFvwoOv6H52v8xUBw/fZM3GSg3j2Vjzvi1kT75fHRYtiYBsJ13b2zoLKx24zaj5wGbwj1PEJZC6dKzJ0nf7MeDS5jid4ft8KD7OxehBJ/H5a5dQPy9LHSf/6a5HPmfPvoAvk30DWKjoip2UwJL9Ar39RALQTGEVsYUbGAosBU5VOP7dtz8XMfe7QgXiAPtnY53cLDxnYxWVmHzwtfosmlx3fgqJ8bbe/A8AcvGWPgj8qYhLIKUmexk/7BS+mdWH5g3Kh935tT/+OBa/fRlDrmoV1kk2CR/Lf9/Oc9OWBPqwJpp9JUGgBJbsZ8f+qacorCIB1wz4EhgFxCsc/+3BKbsoLjEViANkpToYf7M1GyslMfwuBd6cr2WE0SQjxcFlZyfZ2YQHuM847uECMIcp4mLLl2/9cnw1sxeP3HkKSQmekJ9PWoqXiSM788krPcmrlq4OksM2ZOynlPoCPtN5Nqp9JUGgBJbstxAI9B2DElgigZMIjMbalri5wnH41m72MfXDfQrEQXRqFc/rY7Jp3zS8ZmMt+rWYVRtK1UFRpM8ZSZTPtLUmzwVAK3LHTdZNlNjF5XQwsG9zFr/Tl84nVg/ZeZzdMZel7/aj/0WNMTTpSo7Agu/W8cZHvwX6sH7gHkVXgkEJLNmvGPgqwMc8oeymW0SOTResIu1DAFVlPQpPz97Lzj2qq3QwWWlOJtycwbB+aSTGhc+d0LtfFKhzoojXY3BDjxQ7mzCARwwDMM1bFXGxU43j0njvhR5Me7QrOZkJQWu3XFYiL447k7ee7k7l8snqCDliQ8Z+YsdhpwCLFV0JBiWw5ECfBvh4HqCdwipy1CoBs4A3gSoKx9Hbk+/niZl7FIh/u/M34PyOCcwYlUPLet6wOKc35+fj18rPqHJWu3jq17B1f5fWQHcjb9ynZZ+dIrbqcUZtfn7/Ci48q47tn9F9uzfg5/cvp895DRR4OSoz3/uVBd+tC/RhCwEt3ZagUQJLDvSZDcdUgWmRo/tsvg5r1tV5CkdgTJ+7j9/WlCgQh1Ax28nTt2UyrF8aCSGejbVhq4/vfylWp0QRw4BbLk61u5nRgBfDuInAl0YQ+R+ff7eW+QvX2trG+afX5pn7Tyc9NU4Bl6NS6vNzx0N23OrxGLBaEZZg3iSJ7PcVVhY9kJTAEjkyucBHZRcEKQpH4Pj9MO7l3QrEfzhwNlaLuqGdjaVi7tGneR0PHVvYehOeC9xk5I75E5NxirjYZefuIq668326XjWL9Zv32trW9DnLaXHuS3z5w3oFXo7KxFcXsfz37YE+7A7gfkVXgkkJLDlQIYEvfNoEyFZoRf6TCxiIVUOgQxie3772Tb3v9z4zqdjrjtyKsV8vK+LzxUUabYehUraTZ2+3ZmPFe0PT5x9+U0B+odYRRptbLk7F47J1TN0BVCSuZAwGfyjiEmhvzV1B/dOf4+mpwSv7s/jnzbS74GX63PoO23aqRqAcvu07C7n7kQV2HPo+rCSWSNCoGLD8Uy7QPoDHM4AfgB8VWpF/1Qh4C+iHVTsurFTIdH40c0w5LjglsXXbhl7n2ScmUFhs8svqEswIzC38vKqE8zsm4HBo66b//AA3oF51N6e3SWD56hI2bPUFtf2SUsit5KZWFbc6I4qkJDrYtdfPkhW2Len1ADn3PPzV9OED260BLlTUJRA2b8vnsiHvMuzhz9mzLzRLnJf8soUXZy0jJzOBRnVytAuh/KcbR37M598GfJnrauBSQFsGS3CvTRUC+YcOwNwAH/NV4GKFVuSgN1l3ALcBYXeH7nLw28irM1ad0Tbu1IN9X/y+rpQnZ+3hg68j70nw0EtT6XmaNkk9En4TZs3LZ9zLuygsDl7msnUDLxOHZqoDoszufX663LKZnXtt2x3UBE4GPjNXDJ4DnK6oy7GYPmc51971AVt3hM933kktj+PJeztRN1efkXJw3y/bRMtuL+HzBfx7uzfwsiIswaYElvyTG9gCBLLK6i6sZYSqnizylybA80DTMDy3/JObeec/MCCjjdtl/GcdriUrihn/2m6+/TlyCm6nJDp468Ec0pK0kv5I/b6ulGFP7+THlcHpb4cBcx4pR/lMTRqPNpPn7OWBKbbWpfsBON78dXAtHCwmDB8USPjbuGUf1w3/kFnv/xqeF+4uBzdffjzDB7QjzutSh8n/M0046eJX7NhkYDHQDPAryhJsuhqUf/IDrYBA7gccB8wDVim8IsQBI4FJQMVwO7nMNOcXr43MKr7otKTWTodxWBW8y2U46do+gaa1PPy2ppRtu8L/eqaoxMTng7aNvBqRRyg9xcG57ROI8xr8sLwYn83dbQKZqU6a1vYo+FGmfg03731VyC77ZmFVANbd8+iC94cPbJcGtFHU5UhMn7Ocsy6fwffLNoXvhbvfZMF365j69s/UrpFBzarp6jgB4KXXf2TCi9/Zceg+wEpFWEJBCSw5mFSgS4CPuQN4X6GVGHci8B5wDmG2iYbDwR+39037bOz16aekJTmPauOFyjkuundMpGZlF7+sLmX3vvBOZP30Rwmnt4nXLKyjGy80re3hlBbx/LiymC077e3rjdt89OykJZ/RN44MyqU7ed/eZcjtgOeGX9vuYxz0BZIVefkvazbs4aKBbzLqqa8oKLSnxE+1yqns3B24TUV27Crk5Td+YsXqHbRrXomkBCX9Y9mefcWce83r7A18rbb3gRGKsISKlhDKQe9DgTUBPubvWAXiRWJRAnAXMIjw2/21tGFN97yJQ7OaJ8YZGQE7qM9k9qcFPDlzN1vDeEbWyc3iGH9zhkboMfD54MV39/LEzD2UlNpXG2vKPVk0yI2NG7LCYtP2mW3h5Nqx21j0q61LUp8CBv8+75oLszK8z4TDa05K8Kj4dhgyTZg8+0duHDmXHbsKbWmjXFYijw0/le6da/PMa4sZNHoeu/cGdvynpXgZPuAEru/dDKdTAy3Yiop9FJf4QnoOtz/wGY9N/j7Qh/Vjbfa1RL1MASpgHxL6RJN/sxRoEOBj1gd+UmglxpwKPAtUDbcTS0owlj41NNPVsIanrm3f7kUmr36wj+fe2sve/PC8I39qaCZtGmgp4bH6bU0Jwybu5OdV9pQ7vPDURG7vmxoTsexx+xZ+/VNlI6PZms+voXJ5TQYLJ6vW7uLKO97jowWr7Xtvn1GbJ0Z0Iis9/v//24bNe7nmrg9546PfAt5es/rleOreThzfqII6OIiuvftDnpzygwIR3S4CXlMYgk/rJuTfvGfDMbsorBJD4oHRWFOtwyp5ZcDuHh0TP57/VIV6diavAOK9Bv26JPHOQzn065KE1x1+z03GvbwLn08D9ljlHefm5XuyGHhhCm5X4Pv5va8KKC4xFWgRCSjThKenLqbRWS/Ylrwqn53I60+ex7RHu/4teQVQISeJ2U8d/O+O1ffLNtG2xxQG3vtxwGd5iYiEghJY8m/m2HDMrgqrxIj2wI/AkHD7nK2U41rw/qPl9tzZL/UUhyN4dRDTkhwMvDCFNx/I4fyOCTjCKCor15Yy+7N8jdoAcDmthOUrI7KoXTWwG77t2uvns0VFCrKIBMzva3ZySu+pXHXn++zZZ0+Cp8cZtVk253LOPS3vP//dj3P60eOM2gFtv9TnZ8KL31G307O89PqP6nQRiWhKYMm/mQ8Eem/r1oThMiqRAIrDmnU1F6gRVh/2Djbe0Tf1q3cfymlXLt1ZKVTnUT7TybB+acwcnUOnVvFhUwPmsem7w3aJYySqVcXNKyOyuLpbckCTlW/NV6JRRI6d329as67OfIF5X/1pSxtVK6XwwaQLmPZoVzLS4g7r/ymXlci0R7vy5tPdqFQuKaDns37zXi4d9C5nXzmTVWt3aRCISERSAkv+TQnwcYCPaQA9FFqJUq2BRVizrsJph9fSVvW98z5/ukLSBacmtg6Xk6pR0cW4G9KZPDyLFnVDX39q+24/z721V6M4gFxOg2u6JfPS3VnUqOgKyDHnLy5k2y4lGkXk6K1YvYMOl1izrvYVBL7WnGFA/4sas/Tdfpx2QrWjOkaXjjX5cc7l9L+occDP7515K6l3+nMMn7Ag5IXGRUSOlBJYciiv23DMCxRWiTJuYDjwOVA7nE4s3mv88twdWb8+fVtmh8Q4Iykcg9cw18Nzd2QycWgmdaq5Q3ouk+fs489N2lDGjj6eel82/bokHfNsLJ/PqoUlInKkSn1+xkz8moZnvsBnC9fY0kb1yql89NKFTBzZmeTEY9s1NS3Fy8SRnZnzfA+qVEwJ6HkWFJZyz4QFNDzzBT7+YrUGh4hEDCWw5FDeAgJdEKAFYba0SuQYNAe+B+4mvGZd7b3glMSPvnimQl6Lup56kRDI1g28TL03m3E3pFOlnCsk51BSavLotD0a1Tbwug0GXpjCpGFZVKtwbP37ppYRisgR+vHXrbTtMYWh4z6lsCjwDyr2z7pa8u5ldGwT2GoZp7evzs/vX86Qq1rhcAR23f2vf2zntEtfo8+t77Bluz5bRST8KYElh7ITq5ZPQL/jgQsVWolwLqylgl8ADcLpxMplOBa981DO3jsuSz01mEXaA3UD0KlVPK+PzWZYvzSy0oJ/+h98XcD3y7VTk10a53mYtn821lHeh/2yqoRf/yxRMEXkP+2fddXi3BdZuGSDLW3kVklj3pSeTBzZmaQEjy1tJMS7GT3oJD59pSe1a2QE9NimCZNnL6P2ac8yftJ3+P3a7VVEwpcSWPJfZtpwTCWwJJLVB77CKtbuCZeTMgx2X9c9ecn748s3qZzjKh/JAXY5Dc7vmMDbD+Yw8MIUkhKC+1U1ZvIudP1uH6/Hmo31wl1ZVCl/dLOx3l6gZYQicmhLftlCq26TGTruU4qKA1/ryeV0MODS5ix55zJOanlcUF7TCS0q88ObfRlyVSuczsDOxtqxq5AbR37MyZe8yrLftmoAiUhYUgJL/ssbQKDnWjcmzGoFiRzm5+Vg4DuspYNho1oF18IPJ5Tz9z8vuVG47OoXCPFeg35dknjnoRz6dUnC6w7Oi/tlVQnvLNBSCrs1yfMw4/6jm4319uf5+FR7WEQOoqTUmnV1/Hkv8f2yTba00aBWFl9Mv4Txw04hIT649Rvj41yMHnQS386+lKb1ygX8+PMXrqVpl0kMvPdj9uZrRrKIhN8NmcihbAE+s+G4moUlkaQq1nLaMYA3XE7K6WDzXVekLX1jXM7x2enOtGgNflqSg4EXpvDWgzmc3zEBZxBWFk54bQ8FRZqGZbf9s7GevzPriGqfbdvl58sfixRAEfmbrxdvoMnZLzB03Ke27LDncjoYclUrvp19Kcc3qhDS19qkbg5fz+rN6EEn4XEH9ouxpNTPhBe/o9GZL/DuJ79rYIlI2FACSw6HHcsIe2HVwxIJdz2AH4CTwumk8qq4F819vHxS95MTGsZKR5TLcDKsXxozR+XQqVU8ds4227zDx6R39mr0B0nT2h6mj8rm4s6Jh92vKuYuIvsVFpUydNyntLvgZX5asc2WNhrVyearmb0YPegkvJ7wKDHpdu1PqPWxJaH2x9pdnHXFDLr0n8maDdrkRERCTwksORyzAH+g77+BdgqthLFUYDIwDUgPl5PyuIz1Dw7I+HXG/dlN0pIdCbHYMdUruhh3QzovD8/i+Hr2TYh74e29bNimdWrBEucxGNI7lScHZ1I+879vDj/5rpA9+X4FTiTGffH9Opqe8yJjJn6Nzxf4mbP7k0QLX+9D8wbhWWKyYe1svph+CY/ceQqJNixpfHvuSup2eta2GIuIHC4lsORwbAS+tOG4fRVaCVOnAD9izRQMF2bT2p5vPn2qfNapLeNqqYugQa6HZ2/PZOLQTOpWC/wFe1GxyaPTdivQQdamoZdZo63looeajVVUYvL+V4UKmEiMKii0Zl217/kKv6y0Z9ZVq8YVWPT2ZbYs0ws0l9PBwL7NWfzOZXRoXSXgx99XUMLQcZ/S4twX+WrReg1AEQkJLeGSwzUAGB/gY+4BKgD7FF4JE3HAKGBgOH0+xnuN1eNvzjBb1fdWUxcdnGnCh98U8Oi0Pfy5KXD7ThgGvDw8iwa5HgU5BL5YUsTwZ3eyafvBZ8I1qeXhxbuyou51XzV6GyvWlmoAHGBvvp/CYltnfvix6n76s9Ljs9xup62Vub+b3YcKOUnq2KP0+bdrufy29/j1j+32XAx4XQwf0I5br2gZ8N3+gvWd+Mxri7l11Dz27At8IXaHw+CSc+rxyJ2nkJEWpwH5D7c/8BmTZv1o2/G3bs+npNSWGch7ANVPODxXA28qDMGnBJYcrhxgLRDoC7pLgZcUXgkDjYEpQP0wOidfh+Zx3469Pr2Fx2041UX/rdRnMvvTAp6ctYetOwOz/K9xnpUkMfSNGbLExcNTdzNj7sFrXr0xLodqFVwKVAyMg/OGbGHzDluX9T4PXG7+PqQxfnOhDdc8cozyC0oY8dgXjHvmG/x+exKabZtV4rlRp1MnNzPi47Vq7S763/k+H36+ypbjl89OZMzgk+hzXgMNziC574kvufOh+XYcegXQANAOKRLWdEMkh2sf0AoI9NKlVJTAktAysGZcvYY1IzAsxHuNDY8Pziy44pzk2k6noeXeh8nhMKhX3c2FpyaSGOfgpz9KKC45tpucTdt91KjkomZl3cuGgsdtcFLTOBrUcPPtz8XsK/x7f6YkOmhZz6tAxcA4qFbBxZwvC+xspinw1T3jFywYPuCEOOBERT58vD//D06/bDrvfvI7pg25q4R4N/fedCLP3H86OZnRUWIyLSWO3ufWp35eFnO//JOCwsDO7NybX8LsD3/j06/X0LpJBbIyEjRQbfTbqh30vPEtSn22zL7qDfyiKEu4UwJLjkQp1o5sgVQVK4G1U+GVEKgCvIE1DThcpnD4O7WMWzZ5eHZutQourS85Si6nQdPaHrp3sOoo/bSqBN8xTNxYurKEHqck4nJqGlaoVC3v4ryTE9i9z89Pf5T8/39fv9XHxZ2TNEMuFsZABRd/rC9lpb3LK9sBzw6/6rS5OEvOwaC8Ih9au/YUMfDej7n5/rns2mPP5JATj6/MnOd6cM6pNXE4ou/DpH5eFn3Oa8Cqdbv42YZdGlet28Vz05dS6vPTpmklXE49dwv4xaHf5PzrZrPyT1tumWYC9ynKEgmUwJIjsRK4HqtOUKAYWMmrTxVeCbJuwDtA3XA5oXivseGxWzML+52TXF2JksCI8xi0buDlnBMTKCgyWf5nyVE9ud9bYJLgddCstmphhZK3bDZW/epuFv5cTH6hyd58k5b1PFTM1jLCWHB8XS9vzs+noMi2eljpQPo9T3zy5vABJ8zHoB/h84Aj5sz59HfO6DeDeV/9acvxU5I8jBl8Mk+O6ERWenxUxzIp0cMFZ9ahfl4Wn3y9hvyCkoAev9Tn59Ov1zD17V+om5tJbpU0DeAAeviFb3l66mI7Dr0L6IJV/0ok7CmBJUf03QTkAc0CfNyqwKOA9uWVYEgEngDGAOFyterv0Dxu2cv3ZNeoXlGzrmy5cI93cFLTODq1imf7bj+/rz/yGRxLVxZzbvsEEuL0ZDnUqlZwcc4JCazb4uP3daUYhkGH5iokHAvivAY56U4+XmjrDpQtgG/ueXTBF8MHtisFTlXkg+/zb9dyap/X2L232Jbjn96+OnOev4BOJ1bDiKEpnPXzsrjs/Ias3biHH3/dGvDjb99VyMtvLGPlnztp17wyiQlafn+sfl65jYsGvkmpPYXbBwCfKMoSKZTAkiO1C+gb4GOmA98Avym8Yvd1GzAHOCOMbsY2Tbgls6D/ucnVXU4tgrJberKDTq3iObFJHGs2+Vi35fDXFZaUwp58k5ObKVESDuK9Bp1axZNbycWMefl0OzkRt0tvoViQd5ybX1eX8McG25YSGkAHYNLw8afNZUfJyUA1RT64qlRMYckvm/llZWB3GkxN9jLhrlN56PaOpCbHZv28hHg33U+vTctGFZi/cI0tScIlv2zh2WmLife6admoQkwlCQOp1Oeny5WzWL1utx2H/wwrgSUSMfRJIkczZlYC1QN83HeAsxVesXHcDsCadRUuV6vmCY28v4wbkFEnIU5XdaHy1Y9FjH9t999qKh2Kw4ApI7KpV11PlMPJ1l1+iopNKmXruVzM9PlOH+cN2cLufX47m3kZ6G3+cmt1XI7FQLIiH1zrN++lwRnPs2NXYGbcdT01jydHnEaFHE123m/XniJuHTWP56YvsaU4PsBdN7TlnoEnKNhHYfiEBdwzYYEdhy7C2rjiZ0VZIomu9ORoZAPtA3zMmsBkVMxd7BmvU7ESWGFRx8TrMTaOvylj9zXdU2q4XUpehVLlHBfdOySSW9nF8j9L2bX30DfDJrB6o4+u7bXTUjhJiDNISdTSztjqcwdpyQ4+/d7WpYSNgJ/ueeyLBcMHnLAdPWgLuuRED+WyEnnjo2ObpJ+eGsf4YacwbujJJCeqluGB4rwuzjmlJh3bVOXz79ayfWdg31OpyV5eGHOm4n4Uvl+2iUsHvYPfb0tm8R5glqIskUYJLDka67CKuQeSgfUk4COFVwLoNOADAl+37ahVqeBe8/aDORVqVnanqnvCg2FAbmU3F5ySQLkMFz+vKiG/8N8vFtdv9VG7qpvqFVXXWSSU6lR1s3hFMWs3++xspgMw+Z4JCz4dPqDd8UAtRT64mtTL4Ydlm1j+x9EtJTy7Yy5znu/Bya2qKJiHULVSCldc0JhSn5+vFq0P2GysR+8+VbE/CkXFPs68fDobt+yz4/A/ApcCPkVaIo0eV8rRWA7YMZe1H4Hd4VBilwsYDrwH4bUFel5l53GJcYY+e8Nx0DgNzu+YwNsP5jDwwhSSE/69mx6csoviEu07IRJKhgF39UsjIc7WiaxZwNPWh4TrSmCbIh98T97bibSUI6sAUC4rkemPdeWtp7tTUUsGD0t8nIvRg05i/tRLqJubeczHa92kIpf3aKTAHoXbxn1qS5F9wA9cDRQryhKJNANLjlYJcF6Aj5mAVch9scIrx6Aa8DbQizCs87dpu48+ZyThdGrlYLhyOQ2a1vbQvUMChgE/rSrB949nlLv3maQmOWicpyURIqGUnOgg3utgwZIiO5upDay+55H5nw+/od3vGFygyAe7nz1kpsXz1tyVh/Xve5xRm3eeO58WDcsreEfhuArJ9O/ZhMR4N58tXIvvKJawedxO3n2+BzmZWnJ/pD7/di3X3P2BXTXJHgcmKsoSqTQLQI7WdGC7Dce9RqGVY9AHWAK0CdcTzC80+eFXPfSKBKlJDgZemMLbD+ZwfscEnP945DPx9b3s3ONXoERCrGenRJrUsj2Z/AhQ1cgbOwN4RlEPvisuaEznEw+9h1D57ERef/I8pj3alaz0eAXtGLhdDoZc1YqFr/eheYMjTwQO7t+SejUzFcgjtGdfMX1ufQefz5bs1RrgdkVZIpkSWHK0CoGXbDhua6C5witHKA4YD7xIBOwSNX9RkXosguSkOxnWL41Zo3Po1Cqe/WX39+T7eWLmHgVIJNQXswbcf006ifG2zmxNBaYALhISbkQ7dwWdYcDEkZ3/tRh4jzNqs2zO5Zx7Wp6CFUCN6mTz1cxejB50El7P4S3eyauWzh3XtlHwjsJNI+fyx9pddh3+BkAXLhLZ3/kKgRyDp7E25Qq0axVaOQL1gG+xdhmMCPMXFarXIlC1Ci7G3ZDOlHuyaVXfqsUyfe4+VqwtVXBEQqxStpPBvW3fG6MdcKdRcXg+DqMn1sM8CaKqlVIYM/ik//lvH0y6gGmPdiUjTaVU7eByWrOxfpzTj5NaHvef//6JezoR59VGJ0fq/fl/8PyMJXYdfjrwhqIskU5FWORYfQq0D/Axi4DqwAaFV/5Db+BJIDHSTvytB3OoUk4Xd5Hsqx+LmPDabpISHDx9m5ZJiISDW8Zv56OFtuaVfMDJwOfmisEDsGb/ShCZJnS+bBofLVjFlRc25oHbOvzrrCwJPL/f5NlpS7jl/nnszf/fkgiXdmvApLFnKlBHaPO2fJp0mcSGzXvtOPwOrAe+GxVpiXQq4i7HqhjoHuBjuoACYJ7CK/8iDngQGA1E5FVrlXIuGtbUBXckq5zjoluHROI8Bi6XQVqSJjWLhFqrBl7e/ryA/ELbdgl1AKcAk4aPX/AZO9o1xSryLkFiGNCueSXO61SL63s3O+xlbRKo+Bs0b1CeC8+qw9LlW1h1wHK3rPR43ny6OwnxbgXqCJgmXHDDG/zw0ya7mhgAfKZISzTQ1bYcqxnAFhuOey2gPY/lYGoDXxNBSwYP5jMtI4yaG6lOreKpWl6z6UTCQVqSg5FXp/1/rTqbVAWeNQxMfL7LgfWKfHDVOC7tsJayiX1yq6Tx8eSLeHHcmf+/dPOB2zqoeP5RePC5b5jz6e92Hf5D4DlFWaKFElhyrIqxCmcHWgZwqcIr/9AH+A5oFOkv5Lufi9ln3wwBEZGY1aaBl56dbF9Z3h24zKj94FZM82KspYUiMcUwoM95DVj89mUMu74tfc5roKAcoW+XbuSOB+fbdfidwOXYU7NYJDSfOwqBBEAt4BcbxtNKrNk2uiiUBOAx4LJoelGP3JRBh+YqOCsiEmjFJSYX37WV39aU2NnMPqydk5ebvw0ahWEMVeRF5HDtzS+medeX+PWP7XY10ROYqkhLNNEMLAmEX4E5Nhw3FzhX4Y15tYEvibLkFcDni7WMUETEDh63wX1Xp+F22fqsNhGYAnhYmzgMQzVmROTwXXn7+3Ymr6ah5JVEISWwJFAetum4tyi0Ma03UbJk8GA+/aEIU5O6RURsUbuqm2u7J9vdTHNgjNFheCmG6wK0g7KIHIZnpy1h6ts/23X4DVj1hEWijhJYEigfAYttOG4boK3CG3O8WFuTv4T1hDsqbdnh41d7l7eIiMS0vmcncXw9r93N3Ah0N2rcvwm4BJU+EJFD+GnFNgbe+7GdTVwJbFOkJRopgSWBNMGm496q0MaUKsB8InyXwcM1f1GRelxExK4LXQPuuzqNlETbL3lfAGobNcfOA3O4Ii8iB1NYVMrFN71FfoFtDzCfBt5RpCVqv9cVAgmgKcBGG457LtBQ4Y0JHYBvgONj5QXP/0F1sERE7FQuw8nQPql2N5OMVXMmntzE+7GnNqiIRLib7pvL4p8323X4P9CDf4lySmBJIBUBE204rgHcpvBGNQMYAnwIlIulF75kZTE79/g1AkREbHRWu3jObBtvdzONgIcNY7gfn68P8KciLyL7zXhvOU+9ssiuw/uBvsAeRVqimRJYEmhPAHZMKbkAazc6iT4pwExgNOCMtRfv98OCJVpGKCJit2H90qhR0WV3M1cBfYzaD27FQQ+gWJEXkTUb9nDVne/b2cRDoJ1QJfopgSWBthl41YbjOoHbFd6o0wxYBJwXy0H4fLGWEYqI2C0hzmDM9el4PYbdTT0O1DVqjP0GGKTIi8S2omIf3a+bzfadtl3vLQOGKdISC5TAEjs8BJg2HPcSIE/hjRp9sIq1V4/1QCxYUoRPe1aJiNiuVhU3Q3rbXg8rCZgOJBo1x07Angd7IhIhrh/+IQuXbLDr8KXAZdizAkYk7CiBJXb4EfjIhuM6seokSWSLA54DXgQSFA7YtdfP0pVaZSIiEgzdOyRwVjvb62HVB54CwFtyOfCdIi8Se555bTHPTltiZxMjgIWKtMQKJbDELqNsOm4foKrCG7GqA18A/cLgXMxwCsxni/TgTEQkWO68LCj1sHoBNxrHPVyAw9cd2KLIi8SObxZv4IZ7PrKziS9svOcSCUtKYIld5gELbDiuG83CilTtga+ApqE+kSrlnTteuCvLaFHXGzbBmb9IhdxFRIIlIc7ggQEZxNlfD2sc0MGo8eBqcFyEtdxHRKLctp0FXDjwTYqKbasRsROrvIo+UySmKIEldhpj03H7AZUU3ojSH2tZaU6Iz8Ps3jFxz6zROenNanl49vZMBvdOxeMyQh6gX/8sYcNWFcISEQmW3Moubutrez0sF1Y9rOpGzdFzMVTUXSTa+XwmPW98i1Vrd9nZTD9glaItsUYJLLHT28BiG47rBW5TeCNCPDAZmIg1ey5kPG4j/5Gb03139UtNdpclrAwDLumcyKsjs6ldxR3yYC1YomWEIiLBdG77BLq2t70cYyYwC0gwcsc+gmk8r8iLRK8hYz/hw89X2dnE48DrirTEIiWwxE4mMNqmY/cHchXisFYZ+BSrBkhIVa/o2jV7bE5Ch2bxBy14UrOyi8n3ZNGvSxKOEE7G0jJCEZHgu6NvajAeYjQBngbAFX8dmCq6LBKFXv/gNx563ta394+gmZwSuwyFQGzmBH4Catlw7MlYRd0l/JwAzADKhfg8zB4dE/YN6ZOa5D7MZYJf/VjEsIk72bwj+Mv54r0Gnz5VHq9bH80iIsG0emMpPe/cwr5C2/f3GAhMMFfcfBy4viX0S+tFJEB+WbmNVt0ns3uvbTtL7wOOB35WtCVWaQaW2M2HfbWwLgEaKMRh53pgLiFOXnncRv6EWzJ8d/ZLO+zkFUDrBl5mjcnmzLbxQT/ngiKT734u1ggSEQmyquVdDLs8LRhNPQicbNR8aA0O83xAH/oiUWDPvmK6XTvbzuTV/mtsJa8kpimBJcEwGVht0/gdqfCGDS/wLPAoIa53VbW8a8+s0dkJJzWNO6o90pMTHIy6Np1xN6STkhjcj8nPFqkOlohIKJzRJp5zT7K9HpYLeA2oatQYNx+rJIKIRDDThF43v83PK7fZ2cwUYJKiLbFOCSwJhhLgIZuO3RVooxCHXEXgE+DyUJ/I6a3jCqbdn518XDnXMR+rU6t4pt2XTfM6nqCd/2c/KIElIhIqt1+aSv3qtj+DyQHeBJKNmmNfxGCUIi8SuUY8uoA3P15hZxMrgGsUaRHVwJLgSQBWAuVtOPY8oKNCHDJtgZk29e1hczooGdYv1XHeyYnOQB/bb8KrH+zj4Vd3U1Jqe30UZo/NoXpFl0aWiEgIbNnho+ddW9lify3EOUAX08TPysGvABcp+iKRZcZ7y7nghjcw7bs8LAFOBL5WtEU0A0uCJx9se8LYAThVIQ6Ji4CPCXHyKj3Fkf/S3VluO5JXAA4DLumcyKv3ZpF3nP2rI+drGaGISMhkpzt5YEA6R1I/8SidAYwxDEy8Jf0wDN2gikSQ737cyKWD3rUzeQUwGCWvRP66L1MIJIieAlbZdOxRaEZhMBnAcOBVIC6UJ9Kqvmffm+NyEhrk2r/ML+84N1PuyeLizokYNo62+YuKNMJEREKoSZ6HQb1SgtHULcDVxnEPF+B0ngesUfRFwt/6zXvpetUs8gtK7GxmDjBe0Rb5ixJYEkzFwP02HbsF0E0hDookYDZwdyhPwjDwX3d+cvHEoVmJwSy07vUYDOmdypODM8lOt2XCF98vL2Zvvl8jTUQkhC48NZHuHRKC0dQE4BSj2v0b8JvnAHsVfZHwtTe/mDMvn8G6Tba+VdcBfQBTERf5ixJYEmyTsGph2WEM1k54Yp9KwKfAOaE8iXivUfDk4ExH/3OTPUaI5t21aehl+n3ZdGwe+AlopT6Tr5ZpZ3URkVAb2ieVxnm2z/B1A9OAPKPWuEUY5oWAT9EXCT8+n0nPG99i8c+b7WymBKtMx1ZFXOTvlMCSYCsBRth07FzgWoXYNq2Bb4FmoTyJGpVc+2aNzolv0zD0ucr0FAcP35TByKvTSIgLbCZNuxGKiISex23w0I0ZlMtw2t1UBvAekGXkjnsXg1sVfZHwM3jMJ7w9d6XdzdwMfK5oi/wv1QySUHACS4G6Nhx7B5AHbFOYA6o38AwhnuF2fseEwqF9UuOCUFj3iK3f4uOOp3bw/fLAzJzKSHHw8ePlcehTWkQk5JasKObykdsotn8n2rlYxd2LzZWDH8TkZkVfJDw889pi+t/xvt3NTMZaOigi/5JIEAk2E9gC9LDh2PFlv+YozAGxv1j7I4ArZB9UDnx3X55mXHVestsZphmd5EQHXU5IIM5r8P3yYvzHWMKqoMjkpGZx5KTrY1pEJNTKZTipkOVk7re2z46tjvUg7vXh4xd8wI52NYDG6gGR0Pps4Rp6DnwLn9/WJPZi4DysFSsichBaQiihMh1YZNOxrwHqK8THLBGYiVWsPWRZo9QkR9Gku7Kc552cEPZzkZxO6NcliRfvyqJq+WPP983XMkIRkbDR5YQELjotMRhNXQTcbxiY7Nx5OSYfKvoiobPyz510v3Y2xSW2lqbbgbUhVb4iLvLvlMCSUDGxbxc7FzBaIT4m+4u1nxfKk6hX3V04a3S2t1FNT0QFr34NN9Pvz+bizokcS5H5+YuLNBJFRMLIoF4ptKgblNX0Q4ABRounS3AYPYAlir5I8G3fWciZl89g644CO5vxA5cAvyviIoemBJaE0pvAlzYd+2zgVIX4qDQHFpb9HjLdTk4ofenurListMhcQuf1GAzpncoTgzI52tfw0+/FbNvl14gUEQkTLqfBuBvSqZAZlO+mh4DzjNwxuyjlDGC1ekAkeIqKfXS79nV+/WO73U3dhcqfiBwWJbAk1G7Gmo1lh/GEsG5ThOoMzAMqhOxDycA/pHcqd1+R5grHYu1Hqm0jL9Pvz+bkZnFH/P/6TViwRMsIRUTCSUaKg/E3ZwR899mDcAJTgLZGnbHr8XMGJtvVAyL28/tNet/yNp9+s8bupmYD9yviIod5r6gQSIh9Bcyy6dj1gMsU4sN2JfA2kByqE0hOcBQ/c3um4+LOiVEV2P03OyOvTjviG575i7SMUEQk3NSu6mbcDRk47Z+IFY81Y72OUWvsz5j+M1GNHBHb3Xz/XKbPWW53M78CfbHvYb5I1NEG7RIO8oBlgNuGY28CagG7FeZ/5QAeAG4K5UnUqeYuevSWDG+077q3bouP25/cwaJfiw/r3yfGG3z2VHlcTn1ci4iEm5nz8hnx3M5gNLUKaANsNH8b0hXDnIFmmYvYYuTjXzLs4fl2N7MXaF12DyQiR3DjKhJqvwFP2XTscljryuXg4oBXCHHy6oy28aUv3ZUV9ckrgErZTp6/I4uBF6YcVlJqX4F52MkuEREJru4dEuh1elBmDVcD3gFSjbwxb2Aal2EVfhaRAHp++lLuesT25JWJtUpEySuRI6RH+hIusoAVQKoNxy4FmgI/Ksx/k4O1LKFVqE7A4cA/pHeqcdFpiTH5WbR0ZTG3P7mTPzeWHvLf9T0riZt6pmjEioiEIb8Jt4zfztxvg1Kz8EvgNGCf+dvgazF4XD0gEhhvz13Jede8TqnP9tzwGGCoIi5yFPePCoGEia3AKJuO7QKeRAnbA9UEPieEyavEOKPkqSGZjlhNXgE0zPUw/f5s/qvm12eLVMhdRCRsL6YNuP+adOpXdwejuTbANMBt5I19ArhTPSBy7L74fh0XDnwzGMmrj4A7FHGRo6MbegknccAvQFWbjt8beFlhpi3wBtast5ColOUseXxwprt6RZXv2G/ut4Xc89xOdu45+IXT2w/mcFw5xUtEJFxt3eWn191b2LDVF4zmZgEXAD7zt8GjMRiiHhA5Oj+t2MaJF01h+07bHxiuxKp7tVVRFzk6ToVAwkgpsA04z6bjtwOeBWJ5OksPrO16Q7YerWV9T+mzd2S5y2Xo4+dA1Su66No+gT/Wl7L6IEsKq1Zw0SDXo0CJiISphDiDtg3jePeLAopLbN9UrC5QBXhz+IQFH7OjXTmghXpB5Mis37yXjr2msnHLPrub2g50BNYo6iJHT0sIJdxMAb636djlgHtiOLZDgdewZrqFxEWnJZpPDc5yJSfoo+dgMlIcTLg5g2H90oj3/n2C7HwtIxQRCXs1Krl45KZ03K6gLHLoCzxkGJjkJlwHvKoeEDl8u/YUceblM1i9zvbNykuwHiL/qqiLHBstIZRwdDIwz6Zjl2I9oVwcQ/F0AA8DA0J1Ak4H/tsuTXX0OCVRo/sw/bG+lNuf3MFPf5QA4HUbfDaxPHEefWyLiIS71z/JZ/izO4PV3FBgjGn2cLKixmsYZnf1gMihFRSW0vmyacxfuDYYzV0NTFTURQJzYysSbj7BKlBqBxfwOLGTvPVgzWoLWfIqMd4ofXJIppJXR6h6RRcvD8/m6m7JOBxQVGLyzbIiBUZEJAKcd3ICl52dFKzmRgFXGcZ0H674XsD76gGRf1dc4uOCAW8EK3k1DiWvRAJGj/IlXFXGKuhuV9bjMmBSlMcwCZgJdArVCVTMcpY+MTjTpWLtx2bJimLueHInrRt6uaNvqgIiIhIB/CYMeWwHH3xdEJTmsJYUTjZ/u8GLET8TOEu9IPJ3pT4/Fw18k5nvBWU13xtAt7L3p4gEgGZgSbhaC4y28fhjgPQojl954DNCmLxqVd/rm3Z/tpJXAdCopoepI7NJS9JHtohIxFxkG3D/NWm0aegN1jX9C0AvI+/RIrwlPcD4SL0g8he/3+SywXOClbxaBPRCySuRgNIMLAlnccCPQK5Nx38auCoK41YLeA+oHqoTuKhTojn4klTDqY0G5TAs+72EahVdJMbpK0lEos++QpMr7tv6/zUNbeYDLgWmmGtuiqfI/RZwinpBYp1pwjV3fcDEVxcFo7mNQEu046BIwOluQcLdOVjTb235LsMqGP9ZFMWrJfA2kB2Kxh0G5pA+qcZFp6nelRwevwknX7ORfQUmjfPctGnopU0DL/VqeHDoG0pEosTOPX763ruVP9aXBqM5H9AbeNVcPzyB/H1vgdFRvSCx7NZR83jwuYXBaKoA6AB8raiLBJ5uDyQSvAucYdOxfwUaA4VREKdTgNeB5FA07vUY/nHXpztOahanESuHa9NNj2y7bO63Re/+8y/Skhy0rO+lVX0v7Rp5qZCl6XwiEtk2bvPRd8RWNmzzBaM5H3AJ8JqSWBLrbnvgM0Y/9VUwmjLL3nevKuoi9lACSyJBTaylhHYVkbgPuDPCY9QLeB5wh6LxjBSH77FBmc761d0arXIkl3lTG/de/x3WDj2HVDnHSesGVkKrbUMvSQmqByYikWfl2lIuG7mVXXuDUhanBOgBvGElsfLfxpoZIhIz7h7/OSMe/SJYzd1Zdl8hIjZRAksixVhgkI0XeC2AJREam1vL4hOS93ONSi7fE4MznRUyNUNGjvQLyOzfqNeGrhzhTllul0HjPA9tG3pp09BLnWpuLTcUkYix+Ldi+o/aRmGxGYzmirF2QXvHXDY8ibj8dzBpr16QWDBm4tcMHfdpsJp7GeiDNQtLRGy7fxCJDMnAL0BFm46/EGiDNeU+kgzB3t0aD6llPa/50I3pRrJmw8hR2J1v1D6x/7qFQMqxHCct2UHLemXLDRt7UTJVRMLd54uLGPjQdkp9QbnXLQLOA+aY64cnUFDwOqbZSb0g0WzCi98x8N6Pg9Xcx8CZWAljEbGRElgSSS4Gpth4/JuBhyMkFg5gPHB9qE6ga/sE7ro8FZdTHyNyVP5s3Gv9RUBA5/V73QafP10ej1vjUkTC25wvC7j9iR34gzNfoxjoCcwyf7vBixE/DWujHJGo88KMpVx+2xzM4Ly3lgAnATsVeZHg3ASLRIpXgA9tPP5IoEYExMEJPEOIklcGcHW3ZEb0T1PySo6aafAxEPCCwg1quv1KXolIJDijTTyDeqUGqzkP8BrQ08h7tIjcP7qB+ZJ6QaLNCzOWcsXt7wUrebUS6ISSVyJBowSWRJprsbantUMCVmIonO9+91+A9gtF4y4n5n3XpHNNt2SNRDk2pjkXG4oJt67v1feaiESMizsn0v/coH2nuoDJQD/DmO4jd1U/TON59YJEi2deW8wVt7+HPzjTGrdgLRvcpMiLBI8u9CXSrADut/H4HbG2vw1HCcBbQPdQNJ4Ub/gnDs00zmoXr1Eox2zJH/4FQNtAH7dlPa+CKyIR5brzk7m4c2KwmnMCzwIDDWO6j5pjrsDkEfWCRLonp/zAVXe+H6zk1R7gDOBXRV4kuJTAkkg0FvjJxuM/DOSE2WtOBz7CmqYcdBWynL6X78l2tKir5IAExC99hm2qCgQ0G+p1G6UNct2KrohEnEGXpHJm26A9IDLKrnVuNQxMI2/sTZjGCPWCROyNwdNfc+3dHwZr2WAx1sPk7xR5keBTAksiUTFwNfZtU5uFtZQwXOQAc7F2SQy63Eou86W7s5zVK7o08iRQbFk+2LS2x1RdNhGJyAtyB9x3dTpntAlqEmscZTsZG3lj7sZgqHpCIs2YiV8zZOynwWrOBK7E3pq8InKo70uFQCLUfMDOug3nAL3C4HVWKXutTULReIu6Xl66O8vISXdqxEkg75vmYUMB99YNvJp+JSKRe1HugPuvSadz66Au1R+CNbMdI3fsGDAHAH71hkSCu8d/ztBxnwazyVsBbX4gEsrvSoVAIthgrAKKdpkAVArh66uFlbyqFYrGO7WK58nBGSQl6GNCAsr/1scFXwMtA33glvW1xFVEIvzC3AH3X5PGyc3igtnsIOAFwGXUHPco+M8HCtUbEq5ME26+by4jHv0imM2OBR5S9EVC/D2pEEgE2w7cYuPx08su6EKxJqk2MA9rBlbQ9TwtkTHXp+NxazmWBPqqk8V3vrC9PtaOmgET7zVK6lbVBCwRiXwup8EDA9I5sUlQk1h9gRlAvFHzgdexdlfbpd6QsLuMMOHGkR/z8AvfBrPZV0BLbEXCgRJYEuleBj628finYa11D6YGwKdAxWAH0wAGXpjC0EtTcSh3JfYMsrlA+0AftmU9r+HQN5qIRAm3y+DBAem0Cu7M0q7AHCDVqDl2HoZxIhjr1BsSLvx+kytun8OEF4NaP/1j4DLsq70rIkdAl/sS6UzgGqDAxjYeAKoH6fU0xipwXS7YgXQ6MUdclUa/LkkaVWLjG9b4BGgX6OO2buDVLgMiElW8HoMJt2TQoq4nmM2eBHwClDdyxyzFb7QHVqg3JNR8PpNLB73L89OXBrPZb7ASu8XqAZHwoASWRIPfgGE2Hj8ZmByE90tT4CMgO9gBjPMY5vibMoxzTkzQaBI7mT+tLlkItAj0gVX/SkSiUZzH4NFbMmmSF9QkVhNgAZBr1Br9OyXO1sBX6g0JlaJiHxcOfIOX31gWzGYXA2cA+9QDIuFDCSyJFg8Dn9t4/HbAABuP3xwreZUV7MClJDrMibdlGkGutSExyVh28R2bqwMJAR7DJbmVNAFLRKJTQpzBE4MzaZgb1CRWDawkVjOj7qht7POfCryn3pBg25tfzDn9ZzLzvV+D2eyvwOlY9XZFJIwogSXRwg9cgb275owC6ttw3BbAh0BGsINWIctpTh6eZQT5ya7EKAP/AuxYPljf6zRUs01EolhivMFTQzKoXyOom1WUw6rJ2clo/MA+ihK6Ys1IFwmKTVv30f6iV/ng81XBbHYF0AHYqB4QCT9KYEk0WQ6MsPH4ccBzQCCnepyIVfMqPdjBqlnZxcvDs4xqFTRzRYLDb7AAaBPo4x5fz6PvMhGJekkJDp4cnEntKkFNYiUBbwI9jfrDi42aY/tgmDdiPTgUsc2K1Tto22MKP/y0KZjNrgZOAdarB0TCky76JdqMA+zcV7cVgdtG92Ss3X6Sgx2kBrkenrszi6w0p0aMBI3T6foCG2ZgNa6lGYQiEhtSkxw8fVsmdaoFNYnlBaYAdwIYuePGY5oXYe8GOhLDvl+2iRMufIXf1+wMZrPrsJJXf6oHRMKXElgSbUqBPkCRjW3czbHPIjkJeAtIDHaAWtT18PTQTNKS9PaXoNrY8KI1AOUDedB4r+HLq+xWdEUkZqQlO3j29kwaB3f5vwHcC0wCPEbeuOmYdAQ2q0ckkD75+k869prKpq1BrZ2+BegErFQPiIQ33cFKNPoZuN/G47uAl4GUo/z/TwTewZqWH1QnNonjiUGZJMarYJAEm/k5dsy+yvMYDn2TiUiMSU5wMHFoJi3rBX0H1kuxSh9kGXljv8LvaFN23SVyzGZ/+Btn9JvBrj1FwWx2J1bB9p/UAyLhT5f9Eq3uB76z8fg1gMeO4v9rC7xLCGZend4mnkduSsfrUfJKQsKWAu7N66j+lYjEpnivwaO3ZtCmYdCTWO2AL4FaRq3Rv+N2tANzrnpEjsUTU36g+3WzKSwqDWazu7FmXn2vHhCJDLrwl2hVClwOlNjYRm/gkiP4962xtqAO+syr8zsmMOradFxOJa8kRF82fmyZgdVE9a9EJIbFeQwevSWDjs3jgt10TeAL4ESj6ugdFCWegckL6hE5GmMmfs11d3+I328Gs9l8oAuwUD0gEkH3FAqBRLHFwGib23gcqH4Y/+54rORV0Au29+uSxJ2XpeFQ7kpCJ7/PiD2rgboB/QJzYNavoQSWiMQ2t8tg7A3pnHp80JNYmcD7QA+j/vBiI29sPzCGAD71ihwOn8/kqjvfZ+i4T4PddAFwNvCZekEksiiBJdFuBPCNjcdPBV4DDlVFujHWboOpwX7x/bokMfDCFAwlryS0vv5hxd7jA/2dU7OS25cYp8EtIuJ2GYy9PoOz2sUHu+n4suugOwDDqDlmLKZxFrBDvSKHsntvMV36z+TpqYuD3XQRcB4wT70gEnmUwJJoV4pVcNTOrZ6PL7twO5g6WE8nM4P5og0DBvVKZeCFKRoBEnIm5gKs+m8B1byux6XoiohYnE4YeXU6552cEOymDWAkViIr0cgb8z44WgLL1CtyMKvX7eaEC6cw59Pfg910IdC97NpcRCKQElgSC34Bhtrcxp3ACf/4b3WBT4ByQb2AdcB9V6fT6/RE9byEyReN+QVWDbiAapKn5YMiIn/7vDXg7svTQnUN0AOrLlZ1o+boFRQltAZmqVfkQF8v3kDr8yezdPmWYDedD3TF2glcRCL2vkIkNjyKtYzPLk7gVSCj7OeawEcEOXnlcsLYG0KyhEDk3/h37fZ8BTQP9IFVwF1E5H/tn4Xd/9zkUDTfCKso9ilG/eF7yR17PgZDAb96Rma+9ysde01l45Z9wW56H3AO8IF6QSSyKYElscIErgC229hGZWAiUAX4EKgYzBfodhmMuyEjFEVcRQ7l1xOv/TMbSAvkQTNTHaXlM52KrojIv7ju/GSu7haSJFYm1kPD6w0D08gdOwbDOAfYpV6JXfc98SU9bphNfkFJsJveBXQGPlYviEQ+JbAklqwHrrO5jfOBRUC1YL4wj8vg4RvT6dhCySsJN8ZCoFmgj9qirlf1r0RE/sM13ZK57dLUUOxE7Maa/T4ZiDdyx7yDg1aY5i/qldhSXOKj7+B3ufOh+Zhm0JvfiZW8WqCeEIkOSmBJrJmKtdTPTunBfEFej8H4mzM4sYmSVxKGTP93QItAH7aplg+KiByWi05L5MGBGXjdIdm1tRfWzJcKRo2xy/E422KYb6lXYsP2nYV07judF2f9GIrmdwCdgK/VEyLRQwksiUXXAn9GwwuJ8xhMuDmDto286lUJS37D+BYbElgNc90KrojIYerYIo5Hb80gMS4kSaw2WHWxTjCqjt5BjXFdMcwbgRL1TPRa/vt2WnWfzCdfh+SSeyPQvmzciUgUUQJLYtFOoB9WXayIFe81ePTWDFo3UPJKwpbvz3XFS4CmgTyo04GZV0UJLBGRI9Gqvpdn78giMzUkl/+VgHnALYYBRu648fiNU7HKO0iUmfvlatr0eJkVq3eEovl1wMnAj+oJkeijBJbEqo+BCZF68onxBk8NyaRlPSWvJKz91HXI1kpASiAPmlvZbYZoKYyISESrV93N5OHZVCkfkjKCLuABYDaQbtQa8xmmswmGoZ3hosjTUxdz+mXT2bGrMBTN/4mVvFqunhCJTkpgSSwbAvwQaSedlODgqSGZNFENIAlzJnwHHB/o4zbMdeu7S0TkKFXKdjJpWBZ1qoVsJus5Zddfxxt5o7ZQY8zpGAwF/OqdyFVYVEq/oXO46s73KSkNSVeuAjoAK9QbItFLNwESy4qAC4E9kXLCyQkOJg7JoFFNJa8kIr5gvgWaB/q49apr+aCIyLHITHXwwp1ZtGkYspncVYHPgIGGgWnkjh0DjtOATeqdyLNmwx7a93yVF2YsDdUpLAdOBH5Xb4hE/f2FSEz7DbgxEk40NcnBs7dn0iBXySuJDKbfYUsCq251vQdERI5VQpy1EcxpLeNDdQpxwCPA80C8UXP0XCg9HvhSvRM5PlqwmqZdJrFwyYZQncIPwEnAWvWGSPRTAkvEunB6JZxPMCnBwZODM0M53V/kSJV8/nvRMgJcwN3lxMyr7FJ0RUQCwOM2GHtDOheemhjK07gMK2lVy6j50BrWJLTH5B7Apx4KX6YJ4575htP7TWPbzoJQncY8rJpXmrknEiNUBVfEkgR8D+SF24klxhtMHJpJQ828koi6suWHxr3X9wECup6gbjW3f+rIbD18EREJsOff2sv413aH8hQKgNuA8QDmb4NbYzAFqKHeCS9784vpN2QO0+eEtFb6bKAnUKgeEYkdugkQKfsuBi4BisPppOI8BhNuVvJKIpDBt0CLQB+2Qa5H31siIjbo1yWJEf3TcLtC9nw7HmtJ4Qwg3cgb+xWG0QzTfEW9Ez5WrN5B2x5TQp28eh7ogZJXIjFHNwIif1kI3BUuJxPnMXh8UAYt6ip5JZHHNM3vgEaBPm5dLaMVEbFN1/YJPHt7JmnJIb1F6A4sAk40csfsMvLGXYLJFRjsUw+F1pxPf6dlt8ksXb4llKcxBrgcKFWPiMQeJbBE/m4c8GGoT8LjMnhwYAYt6nrVIxKRnCbfAQ0DfdwGNZTAEhGxU5NaHl68K4vjyoW03mAVYC4wDHAaeWOfo8TfEBV4Dwm/3+Tex77g7CtnsmNXyCY9+YBrgKHqEZHYpQSWyD++o4FewMZQnYDbZfDgwHROaKzklUQs35445zKgQYDfG/5cFXAXEbFdtQouptyTFepZ4C5gBPA5UMOo88AfBxR496uXgmPL9nzOvnImdz3yOX6/GarTKAIuBp5Sj4jENiWwRP7XZqAvEPRvaZfT4IEB6bRvGqdekMhlsLLtBWsTgfKBPGztqi7D5dTeIyIiwZCaZO2AfPYJ8aE+ldZYG+30NDoMLzXyxg4Hx2nAavWSveZ99SdNzp7EnE9/D+Vp7AW6ANPUIyKiBJbIwVUJdoNOJ4y9Pp2Tmyl5JZHOWArUD/RR61bzKHslIhJEHrfByKvSubpbMkZoP4FTgVewinenGjVHz8UsaAQ8TQgeOEa7Up+fYQ/P59Q+r7F+895QnspG4ETCoLyHiIQHJbBE/ldX4AkgaJdqDgeMvCqdU45X8kqigN/8ERvqX9XU8kERkaAzDLimWzJjr0/H6w75c4TLgJ+Bs4y8R3cbNcdehWmcAaxVTwXG2o17OKXXa4x8/MtQLhkE+ANoj1XQX0TEum9WCET+piPwGlbdhaCpW9XN6a3jFX2JlrudH7FhBlbNyirgLiISKp1axfPU0EzSkkJ++1ABeAt4HEg08sa8j2E0wJqNJcfg7bkradplEp8tXBPqU/kOaAP8pl4RkQMpgSXyl8bATCDo1dOX/VHCQ6/uVg9IVDAc5o8EuIA7aAaWiEioNavtYcqIbKpXDPnnsQFcCywFTjJyx+wyao69CowzwVinnjoypT4/wycsoOvVs9i6oyDUpzMH64HyJvWMiPyTElgiZffGwPtAWqhOYPKcvcz6JF89IZHNpGhbhfUrgHqBPGxmqsOflqyvLBGRUKuc4+TFu0K+Q+F+1YG5wDggzqg5Zg7OIs3GOgJ/rN1F2x5TuGfCglAvGQR4EDgb0FNdETko3Q2IQCWs4pDlQn0i972wi++XF6tHJJL91KED5YGMQB601nFufV+JiISJ1CQHTw/Nol+XpHC5n7kVa9nZ8Ub1R3ZatbHMC9AsnkN6/YPfaN71RRYu2RDqUykFri/rR796RkQO9YEvEssygQ+AauFwMqU+k0ETtrNxm089IxH6rWIuxY7lg8ep/pWISDhxOmHghSkM65eG2xUWm8TWA74ARgJxRt646TiL6wATUFLkb/bsK+bK29+j27Wvs2NXYahPZydwBlZNMxGRQ99qKAQSwxKANwjwUqdjtXWXn4EPb6ewWLtCS+QxTGMZNiSwciup/pWISDg6v2MCz96RSVaaMxxOxwXcAfwInFI2G2sgDvNkrN0LY96XP6ynedcXeXbaknA4nd+BdsBH6hkRORxKYEmscgMzyr40w84vq0q486mdmMphScTxL8WOHQiPUwJLRCRcNcnzMPXeLBrV9ITLKeVilYd4Ccg0aoybz86djTEYChTFYh+VlFqF2k+8aAq/rdoRDqf0JdZOgz/pHSQih0sJLInVcf8S1nTlsPXhNwW88PZe9ZZEFMPp+JEAJ7AMA2pU0hJCEZFwlp3u5Lk7Mjn3pISw+UoCemPNxupjtHi6xMgdOwbD2QjMT2Kpb5b9tpVW3SZzz4QF+Hxh8XR0GnAKsFnvHBE50g92kVjzGHBdJJyow4AJt2RwYpM49ZpEgl2NLlmfbhhsJ4A7elbIcprvPVJO31ciIhFixtx8Rr24i1JfWE0lf7vs+u9P08Rg5eArwRgHZkq09oNpwoQXv2PI2E8oKg6L+qomMBa4rezPIiJHdn+sEEiMGUaEJK8A/CYMeWwHK9eWquckEvxsGGQRwOQVQK0qbiWvREQiyPkdE3jm9kwyU8PqVuNsrOVqQwwDh1Fz7NP4iuthGjOjsQ9Wrd1Fh0te5caRH4dL8qoI6AMMRckrETlKSmBJLOkF3BNpJ72v0OSGB7exc4820JFwZ/wG1Az0UWtWVv0rEZFI06y2h5eHZ1O7algtAU8ERgOfAU2M2g+vM/LGnA90BJZFS+yfnbaERme9wKffrAmXU9oMdABe1jtDRI6FElgSK84GXiBCl82u2+Jj6BM78CuHJWHMxFyBDQmsGhVV/0pEJBJVzHYyeXgWXU5ICLdTawt8h1UTNcuoOXYeO3c2BWMQsCdS4715Wz7nXv06V97+Hnv2FYfLaf0AtMIq2i4ickyUwJJY0BKYirW1csT6cmkRD726W70p4fyFYksCq0p5p4IrIhKhvG6De69K46aeKTjD6+PcgVXkfRnQz2jxdKlRc8wDuFy1gclE2DK3l99YRv3Tn+ONj34Lp9OahJUsXKV3gogE6oNbJJrVBN7CmjIe8SbP2cusT/LVqxKWfPh/A/ICfdwq5bSEUEQkkhkG9D0riWdvzyI7PeweSuQAzwELgdZGtfs3GDXH9sFwtMLkm3CP7frNeznvmtfpfcs7bN1REC6nVYpV6+oyoFDvABEJFCWwJJpVAD4suzCJGqMm7WLxb8XqXQk7TsOzAsgN5DGT4g0zLVlfVSIi0aBZbQ/T78umTUNvOJ5ec2AB1rLCbCN39EJqJrQB81Jga7idrGnC01MXU+e0Z5n9YVjNutoCdALGaMSLSKBpZyeJVilYBTobB6m9QmA7UDEYjWWkOJg8PJvKOVpaJWFja+Ne67PL3gfpgTpovepuXr03W9EVEYkipgkvvL2XR6ftxh+eC/V2YG388xjgM3+7LRtK78EwriQMSlIs+20rV9z2Hl8tWh9ucfsO6Ab8qVEuInbQY22JRh5gBsFLXvmwaiicCewLRoPbd/u5esw2duxWVXcJGyuATAKYvAKoUl7LB0VEoo1hQL8uSTw2KJMwnWWbDjwCfAOcbOSN2mLkjbsWBw0wjOmhOqmiYh93j/+cZue8GI7Jq4lY9a6UvBIR2yiBJVF3TQQ8C5wWrAZb1PM+gZUwW4yVyApKVmnNplJuHr+d4hJTvS5h8MYzVqD6VyIicgTaNfIy7b5smuR5wvUUmwHzsEpSNDBqjF1u5I65ANPfliDvqvfF9+tods4kRjz6BcUlvnCKURHQH7gaUI0LEbGVElgSbR7ESiIFxTXdknnu9syLl02uvH/ntdeBEcFq//vlxdzx1E5M5bAkxPyYv2HDDoRaJisiEt3KZTh5/s4s+nVJwgjf4ianAj9gzTIqZ+Q98CW5Y9thmhdg8IedDecXlDB03Ke0v+gVflqxLdzisg44GXhGI1lEgkEJLIkmg4CbgtXY+R0TuLpbMkBmqeF/89tpNVLL/moEELTp5R98XcCj03er9yXUXyYrsCGBpRlYIiLRz+mEgRem8OCADJISwvb2xIU102g5MNgw8Bp546ZTmFAHw7wR2BXoBt+eu5I6nZ5lzMSv8YVfsbDPsArff6URLCJBvOcQiQoXEsTdTk45Po47+qYd+J/quosLX5s2DSdgAn2B74N1Ps+9uZdZn+RrFEjI+PD/RoB3IAQ4TjWwRERixinHx/HqvVnUruoO59NMLbvm/Bm4yKg/vMTIHTce05mHwRNAybE28PuanXS9ahZd+s9kzYY94RiDCViz0jZp1IpIMCmBJdHgBGASQdpVs3kdD6OuTcfxv++ezrWLKo4u+3M+0AVranVQ3Pv8Tj77oVCjQULCaXhWAFUCecx4r2FmpeprSkQkllQp52Ly8Cy6d0gI91OtBryKVQurvZE3aouRO/Y6HL484GmsTX6OSEFhKcMnLKBe5+fMNz9eEY6veSfQHRhIABJ1IiJHylAIJMLlll04ZAejsZqVXbwwLIuURMch3lRm/0a9NuyvBdAGq/inNxjnlxhn8MKwsH9yKdFnR+Ne6zOAlUCNQB20TjU3r43MVnRFRGLUxwsLuee5nezaGxG7Ln8E3AZ8C2D+OrguDm4DLuEwJg28NXcFA0Z8bK5auytc78++BS4q+64XEQkJPdqWSJYNvE+QklcVs508NSTzkMkrABPj8R8mVz657McvgauCFZB9hSY3PLidzTt8Gh0SPCZrsB6IVAzkYY/L0fJBEZFYdsrxcUy7L5sWdT2RcLqnAguxdixsYtQa+7NRc2wf8DfGMP61NurKP3dy9pUzOaf/LMI0eWViLRlsh5JXIhJiSmBJpIoHZmNDzZ2DSUt28MSgTLLTD2tHNLfD8M9YOvW4/ef2ItbuiEGxabuPa8ZsY2++X6NEgsMw1mElkuMCediK2dqBUEQk1pXPdPLM7VkM7p2KyxkRi0dOBb4DpgF5Rs0HfjRyx1yASRvg4/3/aP9ywfqnP2e+My9s80JbsUpiDASKNRpFJNSUwJJIHbcvA22D0Vicx2D8zRlUr3hEs0EyzVLfgTsTDgbeDlaAVqwtZdBjO/BpIpYEhbkWqBzoo+akK4ElIiLgMOCSzom8eFdmpOxO6wB6AMuAl4DqRt7Yr4yaY0/FME6cPHvZj3U7P2feM2EBRcW+cM3KfQY0Ad7RCBSRcPpwFYk0DwDdgtGQy2nw4MAMmuQd+dR1E+q5i4teLduZ0A/0wtqxJii+WFLEfZN2arSI7UxYS4CXDwLkpOsrSkRE/tIg18Or92ZxZtv4SDllN9Ab+AlrNn4bI3fMsD63vtNg9bqwrXXlB+4FOhLEzYhERA6H7g4k0lwF3BSMhgwD7ro8lRMaH0v9dfOMWkUV7yv7YRdwFtZ07KCYOS+f59/aq1EjdlsLHBfog5bL0AwsERH5u6QEB6OuTWfcDekkJ0TMrUwccDPwBdApjM9zM3AmcBdHsYuiiIjdlMCSSNIVeDxYjd14UQpd2x/7Fs6GwZBFkyteVvbjH8CFBLGOwIRpu3nvywKNHrHTWqBSoA+aowSWiIj8i06t4pl2XzZNankUjMCYi7Vk8H2FQkTClRJYEimOB14BgnJH2/uMJPqelRSw4xkGE5dOrnjaARcIV2Ht6mI704RhE3fy3S+qvSn28OMPeA0shwHZafqKEhGRf1cx28nzd2RxdbdkHPrKOFqlwD3AacAGhUNEwpk+6iUSVAPeAhKC0dgZbeK5+eKUQB/WbRrM+HFypcZlP08CRgYrgMWlJjc8uI1fVpVoNEngxxfFAU9gZaQ6I2W3KRERCSGnE67plswzt2VSPlMzd4/QKuAEYDhW7SsRkbCmBJaEu1Ss5FW5YDTWsp6XEf3TcNhw32xCis8w31n8cqX9N/p3A5ODFch9BSZXj93Gqg2lGlUSSHta99q+mwAnsMpl6OtJREQOX4u6XmaNzuH8jgkKxuHzYNW9EhGJCLpDkHDmBmYCDYLRWP3qbsbfnIHHbeusj0pgvvvttBqpWEsILwc+DlZAd+z2c924bWzdqbqcEhgGrPlrbAdOuXQ9RRcRkSOTGG8wrF8aTwzOJEffI4ejIvAhUEGhEJFIoASWhPF9MZOAU4LRWJXyLh4flElCXFCWLDV0Fxe9Om8eLqAEuAD4JViBXbvZxzVjt7MnXzPFJTBDCkgBkgJ5UBVwFxGRo9WukZdZY7I5+4R4BeO/5WIVbs9QKEQk3CmBJeFqJHBxMBrKSnPy1JBM0lOC+XYwz8hYX/HJsh+2Y21ZvClYrf/6ZwnXjt1OQZGpkSbHNpJN1gBZgT5uOSWwRETkGCQnOLjv6nTG3ZBOWrJuef5DQ2AOkKxQiEg406e5hKMrgNuD0VBivMETgzOolB2Cm2WTK5ZMqTik7Kc/gHOBgmA1v2RFMYMf24FPqwnlmL5FjE3Y8NQ2O11fTyIicuw6tYpn1ugcOjSPUzAOrSXwBqBAiUj43nooBBJmOgNPBqMhl9PgwQEZ1K7iDtmLNU1GLXq5Qq+yH78CehPEXWA++6GQu57ZgamJWHK0Y9jPNiAz0MfNStMMLBERCYzMVAeP3JTBuBvSSUnU7c8hdACmYdWhFREJO/oEl3BSH3gNcAWjsSG9U2jT0Bvq12wYGM8tmlKpQ9nPM4GhwTyBtz8vYPRLuzT65GgH8DYgO9DHTUvS15OIiARWp1bxTLs/m1b1vQrGv+sCvAroSZKIhB3dIUi4qIi19j41GI31PzeZC05NDJfX7jFMc/riyRVrl/08Dng8mCcw9cN9PPvmXo1COWJ+k63YMANLCSwREbFDhUwnE4dmMvTSVOI8hgJycN2BZ7A2VRIRCRu6Q5BwkIKVvDouGI2d1S6ea7uHXY3KTAzmLH0lp1zZzzcC7wbzBB6bvpsZc/M1GuXIvkSsGVgBr4GlJR4iImIXw4CepyUyfVQ2LepqNta/uAwYrTCISFjdeygEEmIuYDrQKBiNtajr5Z4r0zDC83lSddPvfmvxS+USgVLgImBRsBo3Tbhv0k4+WlioUSmH/wY2jYDPwHI5DRLi9NBXRETsVaWci2dvz2Tk1WmRPPO3AFhs07EHA3dopIhIuFACS0JtPNApGA3VqOji4RvTcbvC98bYxDweh3PqvHm4gD3AmcCqYLXv98PQx3fwxZIijUw5LD6HYxuQFchjpiUZ4ZpkFhGRKGMY0OWEBGaOyeG0lvGRdvrzgaZAc2CGTW2MBG7WSBGRcKAEloTS9cC1wWgoK9XBE4MzI2VZ0tkZ6yo9b5oYwAbgNGBTsBovKTW56ZHtLP6tWCNU/ouv4W9/7iLAM7BSk/XVJCIiwZWV6uCBAelMuDmDchlhX798J3AVcBKwHPABlwAf2tTeA8DlGiUiEmq6S5BQOQ14OBgNxXkMHrk5gwpZkbSZitl7yZQK95b9sAI4GwhalfXCYpMBD23n9/WlGqlyiGHKdmM4fgI8AytV9a9ERCRETmoWx6zR2ZzfMSFcZwO/DTQEngbMA/57MXC+22UssaFNA5gI9NAIEZFQ0l2ChEIdYBpW/St7B7gDxt2QTsNcTwSGybhjyZRKN5X98G3ZRUNJsFrfucfPtWO2sXGbTyNW/u1ydlvZn9IDedhU7UAoIiIhlJTgYFi/NJ6/M4tqFVzhcloby64FuwBr//mX5nAci16ueOkHE8rVsOmcncBkrIfQIiIhobsECbYM4E0gLRiNDe2TSvumcREbLNM0H1w8uVKfsh/fw5q+bQar/Q3bfPQftY2tu/wauXKQAcrWsj8FdAmhdiAUEZFw0Ky2h2n3ZXN1t2RczpBNxzKxEkf1+Zc6V0tfqdxoSc2KCwyYkJHiSHpqaCblM21ZeeAFXgfaanSISCjoLkGCyY018yovGI31PSuJC09NjPSYGRjms4umVOhc9vNkrB1hgmb1xlIuH7lVSSw52OjcXvY9EtA3WrpqYImISJjwegyu6ZbMK/dmUb+6O9jN/44146kPsP2ff/ntxIoJiyZXHO33+78DWu//7xUynTxzWyaZqbZ8nyYC7wLNNDpEJNh0lyDBNAE4JRgNdWoVz8CLUqIlbm7DNGYteaVSm7KfHwAeDOYJrNpQyjVjtrFzr5JY8hfTupiOx6qNETBaQigiIuGmdhU3Lw3PYuCFKcR7bZ+NVQTcBzQAPj7YP1j0csVO7kRjqWEwhIOU5ahS3sWTQzJJTrDlOzUVa2VAXY0MEQkm3SVIsAwErg5GQw1yPdx7VRoOI6ril2D6zTcXT65Yu+znQcCkYJ7Ar3+W0H/UNnbvUxJLyhjsBRICfdjEeEOxFRGRsONyGvTrksSbD+Rw9gnxdjUzF2gK3AkU/PMvl02rnLFocqWJBrwHZo1DHah2FTcP35iO123L92o28AFQTSNDRIJFCSwJhk5Ys4Zsd1w5F4/ekkGcJypvgLMw+HDpqxWPw6qH0B/r6VfQLF9dwnXjtrOv0NSoFgyTAmxIYHk9SmCJiEj4ykl3ct/V6Tx9W2Ygi7yvBS7FWq3w8z//0hyOY/HkileUFvt/NQyzP4c5+/n4el7G3pCO057NuCsDHwIVNCpEJBiUwBK71QFeIwg7DqYlOXh8UAYZKVE9rI/z+4x3l0ypko61I2F34MtgnsCSFcVcO3Yb+UpiiUk+1hLCgIpzK4ElIiLhr1V97/8XeT+GWU7FWGU26gIvHewfLH6pcqulNSt9hcEzHMXGKSc3i2PElekY9ny91gTex9qoSUTEVkpgiZ0ygLcIwo6DXrfB+FsyqFreFQNhNRuYZuk7306smADkA+cAy4N5Bot+LeamR7ZTVKIkViwzDPLRDCwREYlh+4u8zxidTbtG3iP93z8CGmOV2tj7z7/8+cVKmYtfrjgeh/8LE/P4YznPs0+IZ0jvVLvC0BCYAyRrRIiInZTAErt4gFlYT2XsHcQGjLo2nSZ5nliKbxt3AlPnzcMFbAXOADYE8wS++rGIW8bvoKRUSaxY5bdqcwR8BpZXM7BERCTCVCnn4onBmUy4OYMKmf+5Xm//csHTgF/++Zfz5uFaPLnCwGKnuRIYEKh7tp6dEunXJcmuELQEZgNxGg0iYtu9v0IgNnkCOCkYDd18cQqnHB+D35UGXTLWVXzCNDGAP4AzgV3BPIX5iwoZ/NgOSn1KYsUizcASERH5u5OaxTF7XA5Xd0vG7fr795nbZfiSEh0TsEpsHHS54KIplTpkrKv0A4bxCNZufwE14IIUzu+YYNfL7whMJQilQ0QkNimBJXa4Gbg8GA2d3zGB3mckxXKsr1wypdJD+695sGZi7Q3mCcz9tpAhj+3A59PAjzl+8oHEQB82zqsEloiIRK64/csKR2XTqr61rLB90zhmj81xLphYvtfiyRWuMIf//T5s0YuVKy1+udJLhmnOBbOBXedmGHDHZWl0bm3bLopdsXbK1n2miAT+M0whkAA7E3gTcNrd0EnN4njkxgwc+noEjDsb91p3X9kPncv6IKhrKruckMCIq9JwhPmnSkGRyb4CP/lFJnvzTXx+k30FJiWlJgVFJsUlUFj814yyUp/5nwXrXU5IiPv3gehwQFL8/wYmOdGBgbUtd0Kc9ffxXuP/n9imJFq/u10G8WGY1DEMzm10yfoE4JVAHnfm6BxqVtbDWxERiXymCb+tKaFWFfc//+o7/I7rXHGpP5QWbb8GwxgJBO2pbEmpyQ0PbOfLH4vsauIx4AaNABEJ6P2HQiABVB/4Akixu6FaVdxMuiuLxDgN4f+/QMK4tUmvdQ+W/dgda/dHZzDPoXuHBIb1S7Nrl5v/kV9osnG7jx27/Wzf7WPbLj879/jZscfP9t3W73vz/ezJ97M332RPgT/iZ4olxBm4nAYOA5ISDLweA6/bIDnBgcdtJboS4gw8boOkeIM4j5UQS0l04HFbT4WT4q0/J8Q5SIo3SEqwfvccYe0ph0mnhr3XVwGeDeRrfPvBHI4rpwSWiIhEPZ8Bm02oEIrG8wtN+o/axtKVxXY1MRIYpm4WkUDR3b8ESjbwNVDd7oayUh28PCL7cApkxhrTwLyqUa8Nz5T93Bd4Ptjv856nJTKkT+oxJ7H8fti03cfazaWs3exj/VYfm7b72LzD+n3Tdh/7ClR7K5A8LoOkBCuhlRxvkJz4V4IrOcFBYryVFNv/58+XFN44+5OCSsCgQJ7HR4+WIztd728RERG77drr57KRW1m5ttSuJgYBDyjSIhIISmBJQO57sbYBPtHuhrxug+fuzKRhrkdRPzgfBr0aX7J+atnPA4DxwT6JPmcmccvFhzcRb8sOH7+vL2XVhlJ+X1fKmk1/Jay0w2Fsmj+xPCmJWhssIiISDJt3+Lh0xFbWb7FlmroJ9CfAs7VFJDYpgSWB8Dxwme2D1YDR16Zzept4RfzQSkyMbk16rXu77Oc7gXuDfRJXdk3m+h7J///zrr1+lv9ZwvLVJfy2ppSV60r5Y32JZlHJ/xjcO5WKWU4yUhyUy3CSmer4n52cREREJHD+3FRK3xFb2bbLb8fhfcDFwDRFWkSOKSegEMgxuhUYF4yGru6WzDXdkhXxw1PgNx1nNu299pOyn8eV9VVQnd4mnvxCk1//LGHjNm1TKEcvPcVBZoqD7HQnWalOstMdZKU5yUrd/98c5GQ4ifPoa01ERORoLF9dQr/7trE335YkVjFwLjBHkRaRo6UrfTkWXYDZBGGb3NPbxDP62vSgFQePEvv80Llpr/ULyt7rT2FN4RaJWglxBuUyrNlbOenW7K3ymU7KZTgpn+mkYpaTzFSnPktEREQO4vvlxVw9ZhtFxbbMkM8HTgfmK9IicjR0CS9HqzZW0fZUuxuqV93NC8OyNLPi6Ow0nXRs0nP9D1iJxpeBngqLxDK3yyA1yUFOuoPKOS4q5zjJSnOSnWb9XKWck6QE1eASEZHY9OWPRdzwwHa7apHuBjoC3ynSInKklBGQo5GGlbyqZXdDFTKdvDwim6xU3UweNZMthpP2jS5e/wvgBmYBZyswIof4kEtyUC7zr1lb5TOdlM9wUj7LSeVsK+ElIiISrd5ZUMAdT+3AtKdU6RagPfCLIi0iR0IJLDlSDuBN4Cy7G0qIM5h0Vxa1q7gV9WO31u/0n9i058ZVWLtGvgl0VlhEjo7HZZCT8dcMrkrZ1u+Vc1zkVnLh1YxRERGJYKs3ltJtyBZKfbZttrMOOAFYpWiLyOHSFbYcqfuB2+xuxGHAQzdm0KF5nCIeICasKDXd7Vv0Xr0BSAA+ANopMiKBl5LooHKOkxqVXORWcv9/ckvLE0VEJOyvGU3oP2ob3/xUZHdTK7BmYm1Q1EXkcCiBJUfifKztb20fN7dcnEKfM5MU8cD7PmF7Qtu8ASuKgNbAPEBZQpEgSk9xcFyOi+PKWUmtquVdVKvooloFF4lx+loWEZHQmjkvnxHP7QxWc4uBDsAORV5E/ouulOVw1QW+AlLsbqhr+wRG9E9TxAOnEPjIMMy3bnhwx8+ffl/YFmsHSc2+EgkzKYkOalRyUbOyi0rZ1nLE3MpuKmY7cegbW0REbLZ1l5/zBm9m9z5/MJv9GjgV2KseEJFD0eWwHI504Bugpt0NNavt4enbMnG7NDSPUQHwMaYxveewzct/WlVyBnABViJSRCKM22VwXDknNSu7/7Y0sXpFF/FefV6KiEhg3DphBx9+UxCKpudi1dgtVC+IyL/RVa/8FyfwLtDJ7oaqlHfx8vAsUpNUH+Yo7TUwZmOaM88avGXtmg0lF2At+6yu0IhEJ4cBFbKcVKvgokYlN9UqWLO2ah7nIlm1tkRE5AjMX1TI9Q9sD+UpzMJ64OpTb4jIwSiBJf9lHHCr3Y0kxhtMvjub3MouRfzI+IEvDcN8afgzO9+d9UnBmUAftDxQJObtX45Yr7qb3Epuciu5qFvdTZx2SBQRkX/YV2jSbchmNm4Lee5oMtC37BpXRORvdBUrh3IxMMXuRlxOgycGZ9CqvlcRP3zLMZm6c1/JlJOu3lIV6A90BTwKjYj8G4cDKmY5qVHJTc3KLivBVc1D9YouHJqwJSISs0a9uIupH+4Ll9N5HLhevSIi/6QElvybpsDnQILdDQ3rl8b5HRMU8f+2A5OpGMZLjXut2wdcgZVkzFJoRORYxHmMsqWHVmIrr+z37HSngiMiEuWWriymzz1b8YfXnKd7gOHqHRE5kBJYcjBZwLdAVbsb6nV6IoN6pSrih2Lyg+Ewn/p4YcG0mx7Z2Qm4FjhJgRERu6UmOahT1U2dau7//71aec3WEhGJFj4f9By2heV/loTj6d0EPKJeEpH9lMCSf3IBHwAd7G7oxCZxTLg5QzdCB2NSZBjGdBMeb9xr3WqsJYL9gYoKjoiEUrzXoHaVvye1alZ2afdYEZEI9PTsPTw+Y0/4XhHD5cAL6ikRASWw5H+NBwbY3Ui1Ci6m3JNFknbJ+qf1mDzj8/ofb3bBxirAQOAiwK3QiEi4cjqhanmrYHy96h7qVXNTu6qbhDhdZoiIhKvVG0vpcdsWikrMcD5NH1bJjGnqMRHRlaUcqA/wot2NJCc4mDIii6rltePgAb40TMY+Nn/9O08/TVdgKNBcYRGRSOUwoGoF1//P0qpbNmMrNUkPLkREQs00of+obXzzU1EknG4x0AVrlYiIxDAlsGS/psACIN7uG5oJt2RwYpM4RdyyAAdjGl+8/n2smVa3AXUUFhGJVllpzrKZWm6a1vLQpJaHOI8uR0REgmnG3HzufX5nJJ1yPnA6MF+9JxK7dMUoAOWAhcBxdjd0U88U+p6VFOvx9gPvOvzmPQ37bPgFa23/rUBlDUURiTUHW37YINetmloiIjbZusvPeYM3s3ufP9JOfRfQEfhevSgSm3R1KG7gY+BEuxs6s208o65Nj+VYF5gGz5kO/4NNe27cjbWzynVAuoahyN/sLftVTt9TsSkhzqBedTcNanhokOumQa6HCplOBUZEJABuGb+djxYWRurpbwLaA7+qJ0Vij24M5AngGrsbqVPNzYt3ZcXqMpFi0zQm+V2Oe5r1XLMbK2k1FEjT8BM5qA+AzmV/TsfafbPCIX6vgrWDqkSx5AQH9Wu4aVLLmqXVOM9DWrLqaYmIHIlPvi9k4EPbI/1lrMV6+L5KPSoSW5TAim1XAM/Y3UhmqoNXRmRTPvaenpeAMdUwSoc3umTTRqzE1WAgS0NP5JB+AJodwb93Ajn8ldQqD1Qq+31/kuu4sp8lWi5gDKhSzkWTsjpaTfI8VK/owtCVjYjIQe0rMDlvyGY2bfdFw8tZjjUTa7N6ViSGrv8UgpjVBpgHeO1sxO0yeOa2TJrW9sRSbP3ATL/huKPpJWtXA/2B28tuoqNNKfA1YAIn6G0lAbIGa1ZVoMWVHffAX1UP+PNxdn8mir1Skxw0qvlXQqtBrlsF4kVEytw/aRevfbQvml7SIqADsFO9KxIbdFUXm8oB32HNULDVsH5pnN8xIVbiagIzHH7z7oZ9NiwHegEjym6Qo8lvWEu8PsRKgu4GPMBU4Dy9vSQACrF5R9RDfCeW53+TWtUO+DlD3RM5XE6DOtXcNMlz/39SKztdtbREJPYsXVlMn+Fb8ZtR99I+xyo7kK9eFol+SmDFHidW4qGD3Q1deGoit/dNjZV30rf4zZsb994wH2gHPAK0iJJXtx2r0P+HZb9W/du9IvAycKHeZhIAyViF3MNNElZCK/eAXzXLfq+KanGFvYrZTprW8tA4z0PTWh5qVnbjUCktEYliJaUmF965hZVrS0PSfv0aHrbu9Nm5dPE9oCtQrN4Wifbbbok1o4EhdjfSoq6HiUMzcTmjfoitMwxzRMPfNjxrDOc4YAxwQRS8t/4EXgdmAQuAw73icALPA330VpNjVJ3IK87qxkpiHSy5lYu1hFHCTGK8YS07zPPQtLaV2NKyQxGJJk/P3sPjM/YEvd3GeR4u75LESc3i2LjNR98RW9mwzbYk1nSg5xFcs4pIBNIVWmzpipWUsLXfK2Q5eXVENukpUf1IO980edTtLRlZ/4ItALcBNxGaZU+BsrxsfMzEWmJ6tJPMHcBTwJV6y8kxaAksjLLv20r8b1IrF8gDUtTl4cHlNGiQ66Z5HQ8t6nhpUstDQpwul0QkMq3eWEqP27ZQVBK8tYMHJq4OtGpDKX3v3cqO3X67mn6u7PrTVM+LRCddkcWOmsC3gK1r+uI8Bi/dnUXtqu5ojaMJvORzOm9v1nPNBuASYCyRW6B9MVbCahawLMCfLeOBG/TWk6PUFXgzhl5vJaAOUBuoV/Z7HaCyhkJoOZ1Qr5rHSmjVtZYdJiVozaGIRMBFqwn9R23jm5+KgtLevyWuDvTTHyVccf9W9hXYlmN6CLhFvS8SnZTAig3xWMvAmto6mAwYfW06p7eJj9Z3y6+YxrWNe637GGvWxBNApwh8JRuwplm/CHxvc1v3AnfqLShH4XrgcYUBL9YDiHpA/bLfa5T9Hq/wBJ/DAdUquGhW20Or+l5a1veSlqSEloiEnxlz87n3+Z22t3M4iasDfftzEdeO3W7nrLC7yq5BRSTqbsklFrwA9LW7kSu7JnN9j+RojF8BJmMTdiSMyhuwwg/cDAwnsurZFGEVYH8JmA2UBLHtIVi110SOxBhgqMLwr1xYuyLW4K/EVn2gIVqOGHSVc5y0bmAtN2xZz0u5DO10KCKhtXWXn/MGb2b3PtuW6x1x4upAn35fyE3jt+Ozr2LVLVizsUQkiiiBFf2uBp60u5H2TeMYf3MGDiPq3iDvmH7fDY37bPoDa+fGJ7GW9kSKz7GSVtOAXSE8j9uB+/R2lCPwCtYSXTlyVYAGWMmsRmV/rgN4FJogfG8YUKOSixZ1vBxfz8Px9TRDS0SC75bx2/loYaEtxz6WxNWB3vgsn7uf2Ylpz0QsE+sB/ksaDSJRdX8uUex4YD7WEhTbVK/oYso92STGR9VwWodpDmzce8NMIAN4GOgdIe+ZvcDLwGMEtq7VsboBqy6WPnfkcMwH2isMAePGSmI1wEpqNSz7c1WFxl4OA2pXddOqvpfWDbw0ra1dDkXE5i/QRYVc/8D2gB83UImrA02es5cHpuy2KxSlQA+s1QciEgV0BRW9MrCKtle3s5HEj68PngAAVQBJREFUeIOXh2dTo5IrmmI33eVxXF3/grXbgdOBZ7EKLIe7FWXn+gywPUzPsRfWklaX3qLyH1YD1RQG26Vg7YJYH2iOtRSxMZCt0NjD6YTaVdy0buClVX0vzet4cLt0OSYigbGvwOS8IZvZtD1wa/PsSFwd6NFpu3n2zb12haQYa2OY9zQ6RCKfrpiikwN4F+hsayMOeOzWTNo18kZL3DYZJlc36r1+dtlN3cNAvzA/Zz/wDtZsqw+JjG2DzwemoOVMcmglWHXm/ApFSFTBmqXVEGsDkGZYm1fouiHAEuMNjq/r/f8ZWlH2QEhEguz+Sbt47aN9ATmW3YmrA418YRfTP95n1+H3AqcBX2mEiEQ2XYhGp3uwdt+w1YALUrj8nKRoidkrLo/jhrJZV6cAz5fdwIWrgrJzfBD4IwLjfTowE0jQ21UOoRrWTCwJD6lYyaz9Ca1mWDUBVbE8gLLSnLSq7/n/hJYKwovI4Vq6spg+w7fiP8bHmU3yPPQLUuJqP78JQx/fwftfFdjVxHbgZGCpRopI5FICK/qcAbyNNQvLNh2bx/HQjRkYkT+CNmOa15bVukrE2vns2jB+b+wCngAeATZHeOzbA2+hHdPk33XCmlko4SsRa8nh/oRWU6zliG6FJjCqVXDRqr41Q6tlfQ/JCSoILyL/q6TU5MI7t7BybelRHyMUiat/voYBD23niyVFdjWxETgRq+yGiEQgJbCiSxXgOyDLzkaqlnfxyogskiL/Ivptn8ffr9kFG7eU3XBNxSpqHI62YCWuxgM7omjMNgfmoHo7cnDXA48rDBHHDdQqe3/v/9UUzbg8Zg4H1Klq1c9q3ySOxrU8Ubf7r4gcnYmv7+GJmXuO6v8NdeLqQIXFJleP2cYPy4vtamINVhJLM7xFIpAue6JHHPB52Y2CbRLjDF6+J8KLtpsUgTmkUa8NE8pmkF0HjCuLYbhZDYzFKnxeEKVjtz7wAVBRb2P5hwnAQIUhKrixCsQ3A1oCrbDqa6ng0zFIT3HQtqGXtg3jaNvIS0aKZmeJxKLVG0vpcdsWikqObO1gOCWuDrRrr59+I7ey4hhmk/2Hn7FWAmzV6BGJLEpgRY+ngSttHSwGjLshndNaxkdynJabTno26bn+ByATeA5rZ5Jwswm4H3gKa/eUaJeLtVSsut7KcoD3sJZFS3RK4O8JrVZAVYXl6L+j61R1066Rl7aN4miS58Gp8lkiUc80of+obXzz0+EvuwvXxNWBtuzw0fferazd7LOrie+AjsBujSKRCLreUQiiQi9gst2NXHZ2EjdeFMnliozJLk/xtfUv2LIXaA28QvglTPZiLZm6Pwa/UMtjLSdsore0lFkJ1FQYYkoa0AI4AWtGcRushw1yhOK9Bo3zPLRvGkfH5nFUyFI2SyQazZi7j3uf33VY/zYSElcHWrOplL73bmPrTtuSWF9i7U64TyNJJELu6BWCiNcE+AKwdVpUy3penhqSGZFPcw3Y7Yf+TXqtf61szN+OtVNjOL2aAuAxYDTWLimxfPP6JlZtAhEfVpHwIoUipq9T6mDN0to/U6sRKhJ/xGpUdNGucRxtG3ppXseD16NLQJFIt3WXn/MGb2b3Pv+hbxYiLHF1oF//LKHfyG3syffb1cS7wLlAiUaUSGRcGEpk3+x/i7X8yjblM51MvTeb9EisrWHwq2n4uzW5eOMyrN3uXiz7kgoXfqxljMOB9RrSgJWMnQqco1AIVvHvRQqD/OMzoilWQqsN0A6opLAcPq/HoEUdDyc2jeOkJnFUzNbsLJFIdPP47Xy8sPBf/z6SE1cHWvRrMVeN3kZhsWlXE68BF5ddl4tIWN/eSyT33UzgPDsb8bgMJt2VRf0aEfmw+80ST1yfFhf8vgtrR6zXsYoIh4tvgAHA1xrO/8MJPInNdd0kIvTFSjyLHEpFrETWCWW/NwVU0fwwVc5x0r5pHCc1jaNFXQ8upy4PRcLd/EWFXP/AwSftR0vi6kBf/VjEDQ9sp7jUtiTWJKAfYGp0iYQvXaFErtuw6iTZ6u4r0uh2csTtfO4zDO5oePH6sYaBCXQr+1JKDpPzWwsMxpplpC/JQ38+3Vc21iV2PQzcrDDIEUrFSmS1xUpqHY9VNF7+Q1qSg3aNvbRvYu1smJKoPKBIuNlXYHLekM1s2v732lDRmLg60JwvC7j9iR347bt6HgsM0QgTCe8bRIk87YG52FzDqdvJCdx9RVqkxWarw+Tihr3Xf4j19H0kMDRMxnoh8ABWnSsVizx8A4GH0GyKWDUPa5cgkWPhxtrxcP8srbZAOYXl0JxOaFrLS/smXto3jaN6RZeCIhIG7pu0i2kf/XUpGe2JqwNN/XAfo17cZWcTdxCESQIicnSUwIo82cAP2Fzvo34NN5OGZeFxR9AQMVnic5jnNLtkw2qsws9TgK5hcnZvYy0X/END+KhcDLwAeBSKmLMd7UIn9sjDSmjt/1VH10WHdlw51/8ns5rX8eB2KVwiwbZ0ZTF9hm/Fb8ZW4upAE1/fwxMz99jZxHXAExptIuFHVx6RxYG1U0ZnOxtJT3Ew9d5symdGVFHX90s8cReW1buqhLWTXbMwOK/NWDOIpmr4HrPOwAwgSaGIOVWANQqD2CwLa3bWyWW/GqKZn/8qMc6gTUMrmXVikzgyUhQqEbuVlJpceOcWkuMdMZm4OtCYybt45X3bFjT4gT5YD8NFJIwogRVZbK975XTCU0MyaVnPGzFBMU3j6R2V113XoQOlWIV73yI8dqR6EbgF2KahGzAtgXfKbjQldnTFSkqLBFMG1pL9k1FC65AcBjTI9dCheRwdmmupoYhdvvqxCMOAVvW9MR8L04Q7J+7g7c8L7GqiBOhedl8hImFCCazI0Rr4DKuOh21u7pnCpWdFzASXUsPkpka91z9W9vPpWNvgpoT4vP4ArgY+0LC1RS7wftnvEhtGAbcrDBJiyUAr4NSyX9rp8F/s39WwU8t4Gtfy4NDVpojYwO+HWx/dzscLC+1qohg4p+y6U0TCgC4pIkMWVt2rynY2clrLeMbdkI4RGaNip2HQo9El6z8q+3kAVqHvUK579AMTsIo/5mvY2qoS8B7QQKGICZ8AHRQGCTPpwIllY/MkoDFKaP3vBUyak5ObeenYIp6W9VQ3S0QCq6jY5Jqx2/jul2K7mtiD9dDiG0VbJPR0FRH+HFgFwM+ws5EalVxMuSebhLiIGBIb/YZxRtNL1i0q+3kkVtIolNYAfbF2h5Tg3Ty+hVV8WaLbPiANKFUoJMw/k07EWm64P6HlVFj+khhvcELjOE5pEccJjeNIjNdlqIgcu735fi6/fxu/rCqxq4ltZZ/tPyraIqGlK4fwNwQYbfcF5SsjsqlWIRJqVhi/u0yjc/3ea1eU3Rg8AfQP8Um9grVbyU4N16CLx1o22kWhiHrNge8VBokg6Vizs/YvOcxTSP7idhkcX8/DKS3iOLlZHFlpyvWJyNHbvtvPpSO28udG2551rcd6SPG7oi0SwmyAQhDW2mEtnbEts2QY8NCNGXRsHhG7mHyH33dm4z6bNgNerJ1BuofwfHYA16IdBkPNBTwNXKZQRLXrgccVBolgVfkrmXUKkK2QWA4sAt+xRVyEPFATkXCzfouPS0dsZfMOn11NrMRKYm1QtEVCQwms8JWFNdvgODsb6XtWEjf1TImEeHzsLSo+r87lW/dgFWmfTWhr4swFLgXWaqiGzWfZKKwZixKdpgC9FAaJos+sxvyV0DoRSFBYLNUruujQPI7TWsZTr7pbARGRw/b7ulIuu3crO/f67WpiKdYy8R2KtkhoLqAkPPvldayt423TqKaHF4Zl4nKG+zAwZiVsj784b8CKIqw6OHOwdmUMBRMYi1Vzy6ehGnZuAB5BhZSj0Xqs4v0i0cjF3xNaJ2HzrsORokKmkw4trB0Nm9TyRMpGMyISQst+L+HK+7eyr9C0q4mvyz6r9yraIkHODCgEYWkwMMbOBtJTHEy7L5uc9LCvOfFayb4KvVtc9V0JkAl8ADQL0blswZoB8oGGaFi7BHge8CgUUacu8IvCIDEgHejIXwmtmgqJlcw6tWU8p7aMo1FNDw5dxYrIv/jqxyJueGA7xaW2JbE+BM4GihVtkeDRV3/4aYtV98q2J68OA54YkkmbBt5wj8Ur2yutv7RDB0qBnLIvikYhOpcFwEVoyWCkOBmYVXYTKNFDdbAkVlUDTgNOx0popcR6QHLSnZxyvLXMsGltJbNE5H99tLCQQY9ux2/bakJmlN0faFWGSJDo6z68pGPVvapmZyPXdEvm6m7J4R6LZxqtWH+1MRw/UA74CGgQgvMwgUeBW4ESDdGIUhN4F+38FU1eB7opDBLjnEATrN1Xz8aalRzT13NpSQ5OaOKlU8t42jX2RkBpBBEJlrc+z2fYxJ2Ytk3E4iWgb9k9g4jYTN/w4dUXb5ZdjNqmTQMvTwzJDPMnleZTjS7ZcK1hYAIVgXlArRCcSH7ZF9J0Dc+IVb7sfXW8QhEVdmJtcKEnnSJ/qYg1M2v/7KyYnnmanuLglBZxnNoynpZ1vTidGiAise75t/Yy/rXddjbxADBIkRaxnxJY4eNWYJydDeSkO5l2XzbpKeFb39o0eKzJJetvKPsxG2s5Zb0QnMqfwLnADxqaES8ReAU4R6GICq2AbxQGkYNyYm1ycgZWQiumZ2elJTk4uWw3w1b1PbhduuwViVU3j9/OxwsL7WzidqwdsUXERvomDw+tgc+wse6Vy2nw3B2ZNKkVvnWtTZjUeMX6y8uWDaZhzbxqEoJTWQB0BzZpaEbVTd0jWDWUJLLdBdyrMIgclnJAZ6xkVieszVBiUkqig1OOj+P01vG0rOfFob1qRWLC7n1+xr+2mxlz84PR3DXAU4q6iH2UwAq9DKy6V1XtbOTmnilcelZSOMdh+nLP+p4XXIAPSMba6a91CM7jhbIvnyINzah0E9Y0b926RK5v0ZJQkaPhBFpgzc46o+zPMflZmJHioFOreDq3jqdJLRWAF4lWn/1QyIjnd7FlR9AqD/ixdsOequiL2ENf2aGP/2xsXtrUoXkcD9+YgWGEbRBe31Zp/QVluw3GYxXePjnIp+EHBgMPalhGvW7Ay2VjTSKPCRwHrFMoRI5JDnAWVu3NTkBSLAahXIaTTq3iOaNNPPVruDUqRKJAkGdd/VMJVhmSd9UTIrbkDiSEbsbmhEmlbCdTR2aTkhimD1lN812XN+O8+hcsKwZcWAm9s4J8FkXApcBrGpIxozVWcfdshSIiXQs8qTCIBIwX68HROWXfwVVjMQiVc5yc3tqamVWripJZIpEoBLOuDiYfa/n25+oRkcBSAit0mgNfALYVpfK4DF68O4t61cP1Isz8Br+/Y+M+m/aVjcVngX5BPok9wPlYSxYltlTHejpWR6GIOO9hLYESEXvUALpgzc46GesBU2wFoJKLTq3iOb11PNUrujQiRMJciGddHfSUgI7Ad+odkcBRAis0Ess+zGrb2cidl6XS45TEcI3Bbz6Pv12zCzZuKfv5PqzdO4JpA3AmsEhDMmalA68DJykUEaUIa/nTboVCxHZZQAeshFZXICXWArA/mXVWu3iqlFMySyTchMmsq4PZArQHflEviQSGElih8QLQ184Gzmwbz6hr08P19a/3GWbbZpdsWF3283XAY0E+h2VYMzjWaDjGvDhgEnChQhFReqIiqSKh+Lw8mb9mZ1WJqYtmAxrV9NC5dTydW8WRlebUiPi/9u47TIoq6+P4t7p7enryMIEMkiXPEBQlSBBExYwKCoiYUNfsmnZd16yr67quCV11zTljDqhrVsyCsiiiwpCGASan7nr/uO274+xI7Oqp6v59nmcepBjrVp2q6q46de+5Iq3Ihb2uWvIjMEbPHCIx+i5WCOJuOvCQkw306BjggUsLSQ+58vBu8tvW2IGzVn4R/ftU4FHiOxPSQsyU4ut1OkqTz8KrgPMUCs94FtMbRERaTxEmkXUAZnbQpLmv9PlgxIBUpoxKY8LwNDJCuqUWiae3PjW9rko3hr2wud9iemKt05ET2fGHNomfLsAXmGFLjkhLtXjgkkJ6dnZlF/d6yxfZa/CRq9+K/n0o8DaQHsdteCd6s71Jp6O04BhgHqDqve7XAHRAiWgRtyjE9Gw+DDOrYTBZdjw1xWLEwFT2H53G+GEhUgK6vRZxikd6XbXkC0wP1o06iiLbT9+w8RMA3gJGOtnIZXNzOWBMujtPNsueO3jGqtujf+0IfAh0juMmvIl5S1yh01E2YxLwOElY58WD5gK3KwwirtMGmIgZangQkJUsO56d4WOPIansPzqdEQNSsXSnLRIzHut11ZL3MAn+Kh1Nke3MKSgEcXMp8CcnG5g6Pp2Ljs1164l29eCZJRdE/5qB6Xk1JI6bMB84HKjVqShboRh4HpNoFRffy2LeZoqIe6VFH9gOxvSAzk+WHe/SLsC+I03x953aq/i7yPbycK+r33ommYrpSS4i255XkDjYA1gAOFbts3eXFB64pIDUoBsPqfXk4O9WHmZdTART6+oJzBvZeHkSU3tMXxSyTc8emCTWIIXCtSJAN1QYVcQrAtF7ooOiP12SZccH9gwyZWQak3dLIz/HpzNBZCslQK+rltwPzI7ex4jItmQWFALHtcGMeXbsJi0t1eLBywrp0dGVb/c+aahij+FzS355ZdIH+BJIjVP7z2HectTrVJTtkI2Z6W4fhcK1/ghcqTCIePIedBimZ9ZBQP9k2Gm/H3YfmMq+I9OZMDxEWqpuxUVakmC9rlpyE3CqjrTItt88iLMexyRQHHPJCbkctIcr616tJxLepeioNT9E/+7DzBw2JU7tv4KpeVWn01B25HkDuBY4U6FwpR+AXugtpojX9cEksw4Gdk2Ge9S0VIsJw0PsOzKd3Qem4vfrJBCBhO111ZLLgIt0xEW2nhJYzjoBuM3JBvYakca1p7Zx476Hbdi3eGbJK02WXRLHD+l3gL1RkUSJnWOBW0iimbU8ZDImYS0iiaET5mXX/tHv8oQvIJWT6WPSriEOnZBBv26aCFeSUxL0umrJOcBfdfRFto4SWM7pBywEHOsa1bV9gIcvLyQj5L7DaGP9vnjmyuuaLJqC6X0Vj8IPSl6JU8ZiarjlKxSu8iQO93QVkVbTCTgEOAwYFaf7iNa9geyWwgFj0tl3ZBq5WaqXJcnhlQ9ruPKeTWwoT7oO1TYwB7hHZ4HIlimB5YxU4H0cnGUvGLC49+ICl76ls54cPGPloZaFHV3QDZPMi8dD/9eYArEbdBqKQ3pgZpDpr1C4RiOwE1CiUIgktAJgX0wyK+F7Zvl8sGv/VKaOT2f8sBApAd22S+LZUB7hyns28cqHNckchjBwBPCYzgiRzdNoe2f8FVPDwTG/n5HDhOEhN+77t6l19VMKh1b/UncqHXgV6B6Htn8AxgPrdAqKk/dawANAMab2krjgOQ8oA95WKEQSWjVmYpyHgDui3/vpmIlyEq6rkm3DirVhXv2olkdfr2ZNWZi8bD+FbXT7LonhlQ9rOOW6MhYtc+dE4QU5PkYXh5g6IYM5+2Xx7fIG1jvTQ8yHqdv7fvRzTUR+g17lxN7ewAtOxnZMcYgbz87Dct/Rq7B87Dr4yJJvmyy7GzNNrNNKgdHAEp2CEid+4ArgPIXCFVZiesdpxlGR5JOPKVVwGKYmXkIXkerRMcBeu6Vx0B7pdChQMku8x629rgpyfAztm0pxnyBD+gTp1y3lV89bZeUR5lxWyvJVjU5tQjWwF/CuzhKRlimBFVvtMW8G2zrWQL6fR68oJCfTdS8aIzbWgcUzVz7XZNnvMFPEOq0C0/PqE52C0gpOiJ7nqrrb+mYB9ysMIkmtLf+tmTWWBB5t4PPBqMEh9h+dxrhhIVJTdFsv7uemWldbSli1ZMXaMLMvLXVyhsT10c+uRTpbRP6XvuliG8sXMW/+HOH3w51/KGDIzu6bBM22+UvxrJLzmywaCHwMOD3OsRHz1lUzkElrGgc8joq7t7bPcbD2oIh4TiEmmTUNUx8zYZNZWek+Ju8W4oAx6RT11mS54j5u6HW1PQmrliz9uYFjLl9PeZVjSbiVwBg0nFDkfyiBFTtnAdc52cAph2Vx/IFZbtz3TwPBNrsPOHzRL0N3QsBHwKA4tH0SME+nn7hAL8xMm/0UilY1CXhNYRCRZjoAhwPTgRGJfA+8U/sAB+6RzgFj0lQvS1yhtXpdxSph1ZLPl9Yz96r11NbbTm3+d5gk1mqdQSL/pQRWbAzFFN1z7JXX8H6p/POCfHzuK1Fahc2wolklTWtPXQ+cEYe2/wacrdNPXCQLeBDYT6FoNS8B+ygMIrIZXTGT7RwGjErUnfRZsOsAM4vhhOEhAn7d9kt8xbvXlZMJq5Z88HUdp/61jPpGx5JYX2OGE5bpbBIx9E224zIwtZd2dqqB/Bwfj17ZloIcF06wY3N80aySO5osmYwZSun0uTU/evMZ1ikoLuPHJFdPUyha6VPJzBD5pUIhIlthAKZX1hFAz0TdyfwcH/uNTuegsen06BjQURfHxaPXVbwTVi156f0aLrhlAxHHcli8hynsXqWzSkQJrFi4FTjRqZX7LLjl3Hx2H5TqxpPnqcEzSw5p+j0SfWjs4HDTX2BmHKzU6ScuNhe4ERV3bw1PAlMVBhHZRrtgElmHA50SdSeLewc5aGw6k3dLIz2kRwGJrbLyCFc51OvKDQmrljz6WhVX3L3JySZeBg5AMy2LKIG1gxzvbXTM/pmcPi3bjfu+Mhi2ivrNXrm+ybKngQMdbndD9Abze51+4gGjMcmUQoUirmzM0O7PFQoR2Q4+YCRmiOE0oF0i7mRqisXYoSGmjk9nxIBUVyQCxNti3evKrQmrltz+dAU3P17hZBNPRT+TNPpEkpq+qnbgMxX4CmjvVAMDewa556J8N9YsiIC1V9HMla83WXYipjeaw+2yP/CCTj/xkJ6Y4u79FYq4egY4SGEQkR3kB3YHZmGGGmYn4k5262AKvx+4Rzr5bixZIa5WVh7hyrs38epHO9bryksJq5Zc92A5977g6ACR23Bw5I+IFyiBtf2exNRgckR2ho9HryikQ4ELZ4+x+WvRrJJzmt73YIoMZjjc8p+BS3XqiQflAo9gahhIvD6pYFdgoUIhIjGSBkwBZgD74uDkPa0l4LfYoziVg8amM7oohF+TGMoW7EivK68nrP7nxsOGi27fyLNvVzvZzBXAhTrzJFkpgbV95gB3OdnA307PY89dQm48Y/5TleIrHnn4iqavWF6Ow4P5c5jhiRGdfuLV5wJMcfdTFYq4eSH6sCkiEmt5mFpZMzHDDRPunrog188BY9I4eGw6Xdur8Lv82vb0ukq0hFVLwmE464Yy3vy01slmzgT+rrNQkpESWNuuO6auimNdyKeOT+eiY3PduO+25YuMH3zk6reaLDsKuMfhdr/D1L3aqNNPEsBxwE1AqkIRFxOANxQGEXFQD0wiawbQJ+EeFiwY1jfIIeMymLhriNQUPT4ku63tdZUMCauW1DXYnHxNGQu/qXPsmQw4GrhXZ6MkG30DbRsfsAAY61QDXdsFePiKQjJcOSuMPa9o5qqTmn4vAYtxtkB1DTAK+EynnySQoZhinF0VCsd9AQxDRU9FJD4GYOplHU0CFn/PSvcxebcQ0yZm0KerJtlNNlvqdfVLwmrEgFSG9AnSo1MgaScHqKqxOe7KUhb/0OBUE2HMJBNP6MyUZKIE1rY5D7jaqZWnBCzu/XMB/bu78oagJNIQHDBkzvKNTZY9iJlu2kmzgPt16kkC6gA8jhl6Is46DrhTYRCROErBzFY9EzgAUz8roQzdOcihE9QrK1m01OtKCavN21Ae4ejLSlm+qtGpJmqAfYC3FG1JFvqI2XrFwIc4WLDzjOnZzNkv050nisVBg2eUPNNk0T44PxvgfZghiiKJKgBcB5ymUDhqDWZYT7lCISKtIBszK+phwN7Rz/6EkZnuY2/1ykpYTXtdKWG1HTcgZWFmX1rKqlLHOoKXY8olfKJoSzLQR87WSQU+BgY51cCwvkHu+EMBPnfOXPxQ0cySI5v8PQtYBHRxsM0VwGBgg04/SQInADeSgDNauYhm7RERN+gEHIp5QTc00Xauf/cUpo7PYMqoNNJS9ZjhdZ8vree1j2rp2SnAsH5BurZTMf/t8dPqRo6+rJT1mxybi2odsAfwraItiU7fLFvnb5jZHhyRk+njsSsLaZfnyrmK1xMJ9y86as3aJstuBE5xsM0wMB54W6eeJJFRmCGF7RUKR9RikuJLFQoRcYliTKmEIxPtsz87w8d+o9M4dHwGPTsr6SGyaFkDx19ZSlWt7VQTy4HRwEpFWxKZElhbtifwCqaAuyOuPbUNe41wZ2kEy7LmDJ6x8u5mN1sLASezbVcCf9SpJ0moI6YY524KhSPexHSztxUKEXERX/Sz6ShM76yEqpelXlkixseL6/jdtWXUNTh2G/IfYAywVtGWRKVvkc3LAb7EwZnCDhmXzp+Py3Xr/n8y+LuSXa2LiTR7ABzrYJufArsD9Tr9JEmlAjdhCo9L7B2Fqa8nIuJGucDh0c+qUYm0Y5lpPvbePcThe2aw806qlSXJ6c1PaznrhjLCzs2N/BGmA0aloi2JyK8QbNZdmK6YjtipfYC/n5lHSsCVeUSbiO+Q9qeXr2iy7FDgHAfbrMbM2LNGp54ksTAwHygFJulzOubGAP+Kft6IiLhNLaYY812YHrk1QA8g0+s7Vt9os/iHBh5bUM0HX9URTLHo1iGA36/36ZI8unUI0C7Pz1uf1TrVRCdgF+CR6D2lSELRg9FvmwZc4tTKA36Lm8/Np2OBaw/BvUWzVt7c5O9pwDOYN4NOOQN4UaeeCGAmjngT2DcRHlxcJB1oBzytUIiIy63FlLG4IfqdkAr0JAFmMVxdFub1hbU8tqCajRURurQLkJ3h0xGXpNC3WwppqRbvf13nVBM9gb7Ak6hsgiQYJbBa1gl4HgdrEJx6eDaTR7i2xEFF2O8/+LYnyiuaLDsfOMTBNt8ETtWpJ/IrP2HeoI3B1MeS2CjCdLH/TqEQEQ+IYGrbPArcgpmpuW0ifC/U1tt8vrSeh16p4svv6slI89G1XQBLnbIkwRX3CVLfYPPZfxyrmjIAMznE84q2JBIlsP6XBTwMDHKqgWF9g1x0bK5rv5wtuKh4xsqXmizqFH2IDjrUZB1wAGYKWBH5tXLg3uiDyhCFI2af85Oica1SOETEQ2owCfh/YhJalUAvEqCn7s9rwrz0fg1PvlnNhooI3ToEyExXryxJXCMGpFK6KcziHxoce+yMPr+9rmhLolAC63+djoM9gbLSfcw7P9+93aRtvk/fkH7UjS+WNR0zPS/6AeiUSzBdXEWkZWHgWWAVsLc+u2MiA+iNSc6LiHhRKfAacD3wDiY53wfwdIX06lrTK+Xh16rt735utLIzfHQqVK8sSTyWBWOKQ/xQ0sj3KxudamYM5mXde4q4JAI9BP1aP8zbLMe++K86uQ1FvYKuDYBtWbMHHP/jN00W7R69MXLqtmERZqYdFRkU2bJPgLeBKZgEjOyYvsBy4AuFQkQ8zAaWAU9hXjqWAJ0xwww9KxLB+n5lI8+9U8MrH9VgA907BAimKJMlicOyYPywEF9918CKtY49Dk0CfgQ+V8TF89eMQvD/AsC7wK5ONXDwuHQuPi7XzTF4vWhmycRmy94Axjl1bwKMxbw1FJGt1xnTa3EXhWKHVWKGZqoelogkmmGYl4QzgbxE2KFgimXvNSJkzdo7k77dUnSEJWHU1tvMvXo9nztXEysMTAceV7TFy5TA+q8/AFc4tfIu7QI8ckUhGSE3h9zavWjmyg+aLNgLeNnBBm8FTtapJ7JdQtFr6GiFYod9BOyBqccnIpKI3xf7AycAeybK/X//7ilMHZ/BfqPTCAX1SCPeV1Ed4djL17PkJ8dqYtVHPwteUbTFqzSE0BgIPIBD0xIH/Ba3nJNPp0L3htu2eLp4Zsl1TRZZwEOYAu5OWAUcrAdGke3WCDwDVEQfSFTpdvt1AnKBFxUKEUnQ74vFwH2YUhm1mMLvnh6Kvm5jhH9/Vstjr1fbGysiVtf2AffWmBXZCqkpFmOHhnh9YS0V1bZTz/4HAq9Gn8VEPEevK0zS6n1guFMNnDw1i7kHZ7k5BhG/bQ0dOGtl0zowB2FqKThlWvQmSkR23FjM7KntFYodciQmcS8ikuiCmJ4Yx2J63Hv+pbZlwR5DQhwxKYPdBqaq6Lt41k+rGzn6slLWb4o41cQ6THH3JYq2eO6zXiHgT8ClTq28f/cU7ru4gIDf1UMH7yuaufKoJgt8wKdAkUMNvg+MwhQdFZHYaItJvkxQKLZbFTACM7mEiEiy6AjMwgwx7JEIO9SlXcA+ZFy6deiEdPXKEk9a+nMDx1y+nvIqx5JYK4DRmOLuIp6R7AmswcDHmLdQMRcKWjx6ZSE7tQ+4OQYNvoC/36DpP3/fZNkM4H6H2rOB3TA1Z0QktgLANcAZ+nzfbt9EP6PKHVh3e0wB/k5AAWbY4i8/wSbHMAszNLQe2IQZar0eWIvp8r8O+AGo0eESkRjyYV6CHIfpiZ/q9R1KS7XsA/dIt6ZPyqB7x4COsHjKp0vqOfEv66mrd+yd/zeYGqClirZ4RTI/4KQAH2Jmn3LEBbNzmD7J5eUFbG4tmlVycrO4LMbURnDCA5jZcETEOYcCd2ESIbLtXsQMrdme+azTgEHAAKAv0B/YGega44dBG/gZWAr8B9Nr9mNM77FGHUIR2UH50fu14zC1Yj3/wDNiYCrTJ2UwdkgInzpliUf8+7Nazvz7BhrDjiWxPsLUUq1UtMUrn+fJ6s/AxU6tfOTgVG45J9/t4+9rwepdNHPliibLjgdud6i9muiD3M+69EQc1xd4ApNAkW13E3DqVvxeD0wdiRHRn0GYFwGtpQb4BFOg9VVMUksJLRHZodtazPDCwzFJek/rUOC3p03MsA4el05upjJZ4n7Pv1vDhfM2EHGu+MrrwBQ0uZZ4QLImsIox2WZHHjJyMn08flUhbdu4ux6mZdl/Gzxj1dlNFvkxxfx6OtTk5ZiaYyISHxnAP4EjFIrtchpwY7NlecAkzNvKPXF/vZhNwAvAI8DLmNnHRES2Rxv+WytrgNd3Jphi2VNGpVnTJ2bQt1uKjq642kOvVHH1vZucbOIJzCRbYUVb3CwZE1hBTPLKqQLlXHNKGybv5voXVA0+Pz0HHVHStDfU4dGHHCesAvqg7qkireFU4K84VO8vgYUx001/Hv3zYGAcpk6VF23CzC47DzOEXkRke43GJLIOA0Je35ni3kH7yMkZ1p67hFw+8ZIks1ufrGDekxVONnFH9LrWRFviWsn4CX0JcJFTK99n9zSu/l0b90fB5s6iWSXHNVu6EBjmUIvHAXfqkhNpNbsDj2KKiMvWq8f01k2078tPgFswdQk1ZEBEtlcecFT0obef13cmP8cXmTYxwzd1QgYFORpeKO5z9T2beOjVKieb+AtwviItbpVsCayhwAc4NHSwXZ6fx68q9MJ0vZEwkUFDZ65e3GTZREy9FCcsxsz4qC6pIq2rEHgIM/RNBExNwqswLxjqFQ4R2QF7YBJZh+LxGQwDfuzJu6VZM/bOZEB3DS8UFz3E2fDHWzfwwnuOTkR8LnCtoi1u5E+ifQ1i6oB0cGLllgV/PT2PXp298CVnPTVk5qqbmy2ch3O1r04FvtLlJtLqqjE9bgKY4R8aJyE5mMKtszHTaOuzWkS214/Ak8CtwBqgG1Dg0SSBtfTnRp54o5r3v6qzM9Isq1uHFM1eKK3/FGfBuKEhvlneyE+rHZujZSLmBddniri47hpIon29AviDUys/cnIG583K8cZB91kjBx+58v0mi4qiH1BOnA+LMbNyRXS5ibjKFOA+TFFekV/8GzgFJbJEJDaGYXplzcLjMxjm5/gih+2Z4TtirwzNXiitrq7e5qRr1vPJt451ng5jiro/oWiLmyRLAms48D4OFd7t3jHAw5cXEgp6IpxvFM0smdBs2cPRDygnTMPU3RER9+kRvTEpViikiQbgUuBK9PJBRGKjEDgaOB7o7eUdCaZYkQP3SPcdOTmDHh0DOrLSaiqqIxx7+XqW/NTgVBM1wGTgbUVb3CIZElipmOLkA51Yud8P915UwMCe3pjcy7bsvYtnrHq52QPsEpxJ7qn3lYj7hYB/RB8qRJp6A5iBmUVWRCRWRgOnYWZ29XQGqLh30J6xd4Y1cZc0DS+UVrGhPMLRl5WyfJVjwwnLgbGYGZlFWl0yJLCuwsGZFE46JIsTD8nyRCBs+KJoRskQy/rV1Kh/A850qEn1vhLxjuOAG0mA6dAlplYDM4HXFQoRibGumOGFxwHtPL0j7QLhmftk+PcfnU56SOUlJb5Wrgsz+9JS1m1wbL6sEmAUsFzRltaW6J+wuwLv4VCx+oE9g9x7UQF+r5TCtzm+aFbJHU2WpAErcaYGzteY2lrqfSXiHUOBx4HuCoU00QgcC9yrUIiIA4LAIcDJwBgv70hGmhU+dEKGf/rEDDoW+nVkJW6+W9HIMZeXsqnSsUev/2B6T65TtKU1JXICKwh8gkNDB1ODFo9eUUi3Dp7p+byRSLhz0VFrqposmwPc5VB7hwOP6RIT8Zw8THH3fRUKacIGzsAMNxURccogTCJrJpDp1Z3wWdjjh4eYMTnTGtY3qKMqcfHld/WccNV6aupsp5pYCEwAKhRtaS2J/GrgQkwSxRFnTs9m7BBPjbS5vWjW6mebLwM6OdDWEswsVrYuMRHPqcFM7BAG9gBU1UPAvPDaJ/rfbykcIuKQtcDzwM2YUQLdMAXgPcUG64eSRuuZf1ezYGFtOBS0fN07BvD7NbxQnNMuz8+AHkFe/rCWiDMdsToCuwCPRO8TRVrlhjQR9cUUmkt1YuVFvYPc/acCLxVrtLHpVzSrZEmTZUOATx1q7yRgni4vEc8bCzwYvWER+cUZwA0Kg4jEyTDgdGA6kOLVncjJ9IWP2CvDf8SkDHKz9G5InLPgk1rOvqHMqSQWwNPAoSiJJa0gEXtg+YCncKiGSyhoMe+8fK998SwomlVyfbNlV2CSWLG2ATNNcoMuLxHP+xEznHAQ0EvhkKi9gM8w9TBERJy2Knpv/0+gFOgN5HptJ+rqbd/Cb+q5/6XKyE+rG63uHVNok61ElsRe944BOhb4efPTWqea6Au0xfSWFImrRExgnYaZ0cQRZx2Zw5hij03SZdvnznuq8psmS3Ixta+cGJR/A/CiLi2RhFGN6YW1AdiTxB56LlvHAvaL3riuUThEJE4qgXcxtfjewdRs7I3HRpREbKz//NzIo69V8cm39ZGcDJ+1U/sAlkYXSgztvFMKKQGLDxfVOdXEcMxkXf9WtCWeEu1BpBtmBi1HqiUO3TnIH+fkeuoLxoJVDdUdT7r9uVVNO5HOBQ5woLkGTNHNcl1aIgnnw+hNyl5AlsKR9FKj58KdqMetiMSXDSwDHsLU4rGAfjhUOsRJK9eFrRffr2HBJ7UNGSGfv0enAD6fMlkSu2fX6lqbL5bWO9XEeGA1ZuI0kbhItATWw0B/J1YcClrccl4+uZke6+prcd3QOf9Z0GzpnZhun7H2KPAvXVYiCetH4H6gCOipcCS9PCANeFmhEJFWUgq8gCn6vjr63ZTvtZ1Yvynif31hLY8vqG6IRPD37BwgNahEluy43Qemsmp9mCU/OvauaR/ga+AbRVviIZE+GWcDdzu18vOPyuGIvTK8FhM74o/0GHLE6uVNlg3FuSz5COAjXVYiSfHdcRpwLR4uqCsxEcHMVvmuQiEiLvl+2hNTTuQQPPqyPjXFatxvdFpg1j6ZdO8Y0FGVHfuijsC5N23g1Y9qnGqiHlNa4FVFW+LxIZ8I2gGLcOiNy7C+Qe74YwFe69FrYb85eOaq8c0WXwec5UBz7wKjdUmJJJUxmCEcnRSKpLYIMymIhhKKiJv0Bk4G5gA5nnxQs7DHDQ1FZu+b6R+yc1BHVLZbXYPN764t4+PFjtXEKsfMXv25oi1OSpSpL27AoeRVWqrFJcfn4sXh6LZtPdBskR8zBbETbtLlJJJ03sYkLl5SKJLaAEz9QxERN1kKnAl0Bn6HB4c42TbWG5/U+o++rJRpF66rf/mDGsJhHVjZdqkpFjeclceA7o51nM/GTOSlEhPiqETogTUFeM6plZ8/O4cjJmV4MS61kYZghyFzlm9ssmwS8IoDbW0EOgI1uqREkva7REMKk9v3wM6AHq1ExM1GR7+vDgY8OTavTZavcdqkjMCMyRlkZ/h0RGXbHtoqIsy5rJRlJY1ONbEMGIWpSScSc14v4v5LpjfbiZUX9/HerINNPFU8++f7mi27CCh2oK1/AvN1OYkktQ8xxbwnAbkKR9LJAxZjhhOKiLjVT8BjwF1ABTAISPfSDtTW276F39Tz4MtVjWXlEV/PzilkpSuRJVsnlGoxYXiI1xfWUlFtO9FEG2AypsRErSIuseb1HljzgLlOrDgt1eLxq9rSua03c3yWxUGDZ5Q803SXgDVAlgPNDQU+0+UkIkABcA+wr0KRdD4FhikMIuIh6Zgh0Kdgklme4/MR2Xv3tMicKZmBPl3VCVq2zg8ljcy5vJQN5RGnmngTM0OhklgSU15OYI0F3nBqHy6YncN0bw4dBChLL0vv2Pu075pW6ZsGPOxAW59hElgiIk2/W34PXIlHh2jIdusHfKswiIgHjQNOBQ7Em6NU7F0HpDYcd0BmcMSAVB1N2aJFPzRw/JWlVNXYTjXxRPQZVOUFJGa8OoQwDXge86Y/5nbpn8oFs3O8OnQQbO7uf8KPzzZbehWmPkmsXQl8pEtJRJp5D3gdM6QwR+FIGmuAfysMIuJBy4FHgXuBCNAfCHlo+62V68L++e/U8OpHNbXZGb5Aj44p+DS6UH5D2zZ+BvcK8vIHtYSd6YjVH2iHg/WqJfl4NYF1GebtSMylhyxuPTff00URbT9nzXui4qcmi7KA24h9T4hazNTEKt4uIi35GbgP0ytnZ4UjKRRghveLiHjVRsykRzcDq4DemDp/nrGhPBJ47eNannijqjYQsAK9OqeQErB0ZOV/dCoM0LNLCq99XIPtTEes4dGcwxuKtsSCFxNYQ4B/AY5kmM48IodRgz3d7XZN0dKSMy55k6YfQQcCRzjQ1uPA/bqMRGQzajDDlyuA8Xh/8hDZvHaYpOUGhUJEPK4eM8rgZkyNv3ZAdy/tQHWdHXj3yzoefLmqvqbOtnp2TrHSQ0pkya917xigfb6fNz91rFzVWKAU+FjRlh3ltQcJH/A00MWJlQ/uFeRPx+Z6d+ig8VD70yqaDx+8ABjsQFvnAt/pMhKRrfA+8CqapTAZvIdmIxSRxGEDSzBDC5/CDCvsj4dqPDaG8X+6pN564OXK8MrScKRbh4CvTZbGFsp/9d0phYw0i/e+qnOqib0xNTJ1fyA7xGsJrJOAE5xYcTBgcfM5+eRle/vDPGJbf77tqYqlTRalALdj6obF0gbgd6gon4hsvRXRB4Cdgb4KR8L6HlP/TEQk0awBnoneW1dihshnemXjbRvfkh8bfI+8VmV/9V19XYeCQKBDgTpGi1HUO0hjo82nS+qdWL2FGRX0AbBM0Zbt5aVsTTvgCqdWftyBmfTo5PnJsipzG1OaPzTsAbRxoK1nMF2rRUS2RRlwMDAbqFI4EtIQhUBEEtxa4FJgJ+Dw6EO5Z9g21jtf1oXmXFbKIeevrZ3/TjVhvZIW4NTDszlycoZTqw9GnyF3V6Rle3kpgfU3HBp20qtzgGP2z0yAw2m/1H3O8uaDlw9wqLEndfmIyA64FxgBfK1QJJzBCoGIJIl64LHoA/k4TKmTiJd24PsVjaEL521knzPXVD/2ehV1DbaOapI7Z0YOe41Ic2r16dHrpLciLdvDK9WexgELnNhenwX/uqiA4t5Bzx9MG3tW8cxVzYuqLyP2BScrgLaYWQhFRHZECPgLcKqHvpNk88KY4et6ChKRZNQdmIspe9LGaxufkWbVzto7Mzhj7wyfl2dllx3TGLY5/W9lvPOFYzWxfgBGAqsVbdkWXnhYCAFf4lCWdtY+mfx+RnZCfM5YVqDt4Bk/NZ35qRj4zIG2HgRm6PIRkRg6ELgTyFcoEkIOUK4wiEgSywaOAU7DY7MXAqSmWPXTJqZbR+2bmVLYRnWyklFNnc3cq9fzxVLHqsZ8gumoUqloy9byQlr9PBxKXnUq9PO7Q7MS5Vi+1Sx5BTDFobae0KUjIjH2DFAEvKFQJIRchUBEklw58Pfoc4zn6mTVNdjBe1+sSpl8+prwn27fUPfj6kYd0SSTlmpx49l59OrsWJ3oYZghuCmKtmwttyewegPnO7Fiy4KLjs0lLTVBRqxYvNTC0gkOtFQFLbYlIrKjVgITgT8CulP2tjYKgYgIYIZV/1InazSmjqxn6mSFI/if/XdN6oHnrLVP+ev6ykXLGnREk0hOpo955+XTqdCxXnh7A/9EZSRkK7k9gXULZghhzB0wJp3dBqYmzpGMsKDZkhBmXHGsvQRU69IREcc+zeBKYAymPoJ4U6pCICLyP94FpgJ9gJvw0Gy8to319ud1mUdetI6ZF6+reP+rOh3NJFHYxs+88/MpyHEsdTAbuFyRlq3h5gTWkZg38TFXkONLlLpXvygb/H3J582WjcSZ5J96X4lIPHyAGVJ4v0IhIiIJ5nvM5CUdgTOAn7208V9915B14l/Ws99Za8rnv1NNOKwDmui6tgsw7/x8HCzs/4foNSGyWW5NYGUD1zq18guOziWhZtWwrDesi/+nK/IEh1p7TZeNiMRJBTALUztko8IhIiIJphy4AegV/a77yEsb//PacPaF8zYy8dTVlQ+8VBWpq9fks4msd5cUbj4nz8kSPH8HDlGkZXPcmsW5CvNGIubGDg0xcZdQYh1F217QwlInEljfAst12YhInD0GDAHeVyhERCQB1Ue/60ZghtA/B3gmG1RWHsm85v5NvnEnr6655fHyxk2VER3RBDW4V5Drz8wjGHAkieXD9LwfrUjL5k4St9kVONGJFWel+7jomJzEO4o2rzffVWAXB1p6VZeMiLSS5Ziplq/10k29iIjINnoH2B8YBNwJeKbYVHWtnXbb05WBiaesqbv2/k216zZobGEi2n1gKpeckIvPmY5YacDTQF9FWlritgSWH7jVqe06fVoWBbn+RDuGK4tmlSxptmwPwIn5TpXAEpHWVA+cC0wGViscIiKSwBYBxwE7YQpcl3rmy7rRTr3/parQXqevabzwtg1VP6/RxMKJZt+RaZx3lGMdQ/KBF4EOirQ057YE1inAUCdWXNQ7yNQJGYl3BC379RaWjnfowfFNXTIi4gKvYgq8v6BQiIhIglsD/AmTyDoJWOqVDY9ECMx/uyZj/9+vjZz597LypT836GgmkOmTMjh5apZTq+8GzAcyFGlpyk0JrA7ApU6s2O+HC+fkONXNsVXZEevNFhbv7kBT72MKKouIuMFaYD/gTDw0vEJERGQ7VQPzMEOrpmJm6/XG84qNb8HC2uxDL1hnH39V6cYvv6vX0UwQcw/O4sjJjuWYhgEPYkZpiQDuSmBdjZl9MOZm7Z1Jn64pCXkA/bbd/MsrBVPsONY0fFBEXHdPjJmxZjfMJBMiIiKJLgI8iXlhvQeml4pXakNaHy2qz511cSnT/7Su9IOv9f4pEZwzM4cpo9KcWv0BwHWKsvzCLQms3TFTpcdch3w/cw/OStTjt2ngslXN618NwhS/i7V3dLmIiEt9jhl+/g+FQkREksjb0Qf8PtHvwFqvbPg3PzQUzL16PfuetaZs/tvVkYgmLvQsnwWXz23DnruEnGridOA0RVoA3DCozgd8hOkiGHM3np3HHkNCiXr8Xi+aWTKx2bITgNti3E4YyAUqdcmIiMvtAuQoDK3uI6BcYRARiauO0Yf9uV77LmyX599w2uFZ2fvsnu73a8CYJ9XV25x0zXo++daRIaJh4GBMj0NJYm5IYB0P3O7EiifuEuK60/MS+fBdVTRz5R+aLbwDODbGDX2OM8MSRUREREQktrKAY4CzgS5e2vDcLF/58Qdkhg7bMyOYGrR0JD2mqsbm2CtK+Wa5IwX7a4BxmJdkkqRaewhhLnCFEyvOCFlOTu3pCjaRj1tYvIsDTX2oS0VERERExBMqgBuAXsAcYJFXNnxjRST72gfKg+NOXl151/yKmupaW0fTQzLSLG4+J5+u7QNOrD4NeBozkUGb3/jJ1VFIbK2d1r4Bh8aznjsrhxmTE3vWTTvs61w8e8XKpp8ZwEYg1p8YxwD/0uUiIiIiIuLJZ759gXOAsV7a8GCKVT1r74zw7CmZWTmZPh1JjyhZF2b2paWs3RBurU2ow8zcWQ7UR/+sAdYD64A1QGmTn7XAyuhycfmHWWsZCHxG7JMt9O+ewgOXFOLzJfSBWzV4ZknHZovHAP92oLn+wDe6XEREREREPG1X4FxMPSHPPC0F/NROHZ9Rc8JBmW0KclUkywu+X9HIMZeXsrHSUxX6a4AfgB+jP8ujfy7FzHhdpSPbulozgfU6MCHWK/X54IFLCunfPSWhD5xt8XTxjJKDmy0+DdOrLZY2AvmYKXtFRERERMT7emFqZM3GmRnMHeHz0TBlVHrF76Zm5XUoUCLL7b76vp4TrlpPggwFtTEJrW8ww3J/+XMxmuwsfp8BrdTuoTiQvAKYPikj4ZNXAFaEL1pY3M+Bpj5CySsRERERkUTyHXAS0A24EvPS2vUiEVLmv12dt8+Za8Jn/2PD2p/WNOpIutignkH+dkYewUBCFOS3gO78dzjuXZha0RuBrzEld04ChgMpOvrOHYR4S8dkKXeK9YrbtvHz9DVtyUhL/BkrbJhePLPkkWaL38DMzBBL1wDn6VIREREREUlYWcCJwJlABw89zEZGDwmtPWt6dvsenQI6ii716kc1nHvTBiLJ0y2iDvgck+B6K/qzXmfCjmuNHljn4kDyCuCcmdlJkbwCCNjWty0sdqIHlmpfiYiIiIgktgrgWkyPrNmYej+uZ4Pv7c9q2x983lp75p9LVy1a1qBpC11o0q5pXHJ8LpaVNLucCozAlPh5AlMo/nvgNuAwIE9nxfaJ9ynUDdP7KubjrHftn8o//5CfLMctUhX0ZY48fEVNk2VtgDIH2toNkzkWEREREZHk4AOmAucDQz203fagnsGV587M7ji4d1DTFrrMXfMrueGRcgUCwpgJ7V4AngU+xdTYki2IdwLrCeCQWK/U74dHLi+kd5ckGWpq833RrJJezZaOBN6NeUsmMbZJl4qIiIiISFIajSkpsp+XNrpbh8Dqs6ZnF44dFlK1dxf5+8Pl/Os51TxvZh3wEjAfeBEVhf9N8cxKT8CB5BXAjMmZyZO8ArBaHNbX14GWVqLklYiIiIhIMnsH2B8zJOpJPDLB0/JVje1Pu77Mf8Dv15a8+2VtvQ6jO5w+LZuDx6UrEL9WCMwCHgVWR6+zaXhohtB48cWxnWudWHFBjo+5B2Um11GzWxyT7kQCa7EuERERERERwcxOPhXoA/wDqPXCRv+4urHjydeUBSedtmbtyx/U1NkaqNWqLAsuOiaXvUYoN/MbMoCDgYcxhd8fxSSQNbMh8UtgzcShsdNnHZlDZnpyDW+249cDSwXcRURERESkqe+B04HewPV4ZLjT2rJw23Nv2pA66dTVa158v6YqokRWq/H54IoTcxkxIFXB2Lw0TNH3Z4GfgBuA4Ul97sShjRBwmRMrHrJzkH1HJl/m1oYlLSzu5kBTSmCJiIiIiEhLVgBnAZ2AM4BVXtjodRsj7c6/eUPG2BNXlz38alVVOKwD2RqCKRb/ODuP4t5BBWPrtMfMavgx8AlwAqa3VlKJRwLrDKBrrFfq98Mfj85Jpqk4mxw068cWFndyoKnv9DkhIiIiIiKbUY7pGdIb0zPrJ09sdFUk76p7NmWMPWnV+sder9rYGFaXrHgLBS1uOCuPHh0DCsa2GQrchkkiXw/snCw77nT6pwCTBMmJ9YpnTM7g3Fk5yXiyhss6lYTGj6exybJ0oMqBtvpBi/W2REREREREWhLElJA5D1MvyxMy0qzS3x2aZR++Z0ZhSsDSUYyjNWVhZl9ayqpSdYfbTjawAJNIfi7694Tk9JV5I3BKrFean+PjmWvbkpVkta+iVhTNLOnSbFkfWh5WuKOy0BSeIiIiIiKy7XzAFOAiPFS3JyPNKjvugMzIjL0zC1JTlMiKl5/WNDLn0lJKN0UUjB3zNWYCvQfhV51eEuZDxSk9MOMyY+7MI7KTNXkFpptgc50daKccJa9ERERERGT7RID5wC7AJOA9L2x0VY2dd8MjFQWjT1i96eYnKtbV1WtoYTx0bRfg1vPyyc7wKRg7ZiBwD/AfzJDeUCLtnJNnx18w3Udjqrh3kP1GpSfx+Wi3lMByov5Via59ERERERGJgdeAUcCE6H+7Xn2DnXP7UxWFo+euLrv96YoVSmQ5r0/XFK4/Iw/1fIuJ7sDfgaXAqTiQm2kNTiWwRgBTY71Sy4JzZmYnZeH2JlFoKbHUxYGGVuiaFxERERGRGHoD0xtrCHAf4PqiR/UNdt7Nj1d0HnXC6k3X3r9pVVWNEllOGt4vyLWntsHvVyxipDPwD0wi6yicLyPlKMuhdb4DjIz1ivcbncYVJ7ZJ7tPP4pyiGSV/bbb0JuB3MW7pXmC2rncREREREXHIQOACYBrgiZRFSsDaNHtKRsWx+2d1Tg+pp5BT5r9TzZ9u24gdzRf6fJCZ5qurqI4stW3WAGuAUqAM2NDkz1pgY3Q1mzBDWZvLBdKiP20wtZ8Loz8FQHtgp+hPWoKF9n3g93hkSG9zTlxxhwBPxHqloaDFs39tS7u8JE/F2hxZNKvkoWZLHwMOjXFLV0e/TERERERERJzUEzNr4Ww8MtQp4Lc2zdwnvfyEg7K7ZCiR5YglPzaQErDIzfLRJssXHYll3Td4xsrZlhW3mfbaAr2AQdGfAcBgIM/TWQWTs7kA+M5LGx7rKy0FWAT0jvWGnnhIFicdkpX0F7FlMWnwjJLm48ZfBvaKcVNnYKbhFBERERERiYfOwNmYycA8Ufg44KfiiL0yyk48OGunzHQVII+T64pmlvx+S7+08LZhKalZP+fZBNpYYfIi2NmWz5cViWD5fJHc3/r/7IhVYUENPioj+MpptDfakZS1Q+Ys39jk1zpiehAOBkYDY/BeUqsOuAJTv7zeCxsc6wTWycDNsd7Itm38PPvXtqSlKrMdIbLrkJmrP262+H1gtxg3dRxwpz4bRUREREQkzgoxM6idAuR4YYP9fioP3zO99OSp2d00k57zLLjatvkSH4UWFNg27YG2NhRa5vxpjxkaGEuNQCkWKyybn23L+gk7shybbyvr+GbUcatygXHRnzFAvkfC+TVwPPCBB457zIQw3c9iPiPe5Sfmsv/odF2lADZ9i2aVLGm2dBHQP8YtTQceUcBFRERERKSV5GBq/Z6BSUq4nt9H1aET0tecclh2DyWyks5GbL7Gsr9uCFtf3fN8Re3dz1X1rKiO7AsUu3zbI5jOSH8EKty6kbFMYJ2OmaYxpgZ0T+H+SwvxqfMVAA12Ssfhs35c1Wzxz5jutrG0H/C8Ii4iIiIiIq0sA5iLKT7dwQsb7PNRefDY9J/OPCK7X1a6nmaTm7Xs62X1H93yREX4w0W1/RobGYJ7ZwP8CTOE92VXRjJG60kDvo/1h4llwV0XFjB056DO+aiGKjKGzy2pbrZ4E5Ad46bGAW8p4iIiIiIi4hIhTKmTc4EuXthgv4+KQydkrDx9WvbOGWmWEllir1jb+J+7n69c/+J7Nd0qa+yObtxG4BrgQsywSdeI1QV0NvDXWG/cXiPSuPbUNjrF/6uxaGZJSrNlPqAh+mcsDQc+UchFRERERMRlUoAjog/Yvb2wwT6Lqimj0n4+76icndUjS36xaFl9/V3PVa1785Oawsaw62bg/BiYBvzglg2KxYWTASzDTC8ZM8GAxdPXtqVToV9n9X+VFc0saV4ILhvTAyvW+gJLFHIREREREXGpADAD+APQxwsb7PexafqkjJJTDsvumx5SjywxNlZGePbt6vADL1XVrV4fdlMB8DLgGOAZN2xMLC6YczHTLsbU7CmZnHVEts7kX1teNLOke7NlHYGVDrTV2aH1ioiIiIiIxJIfOByTyBroiQ32sfGIvTJ+OuWw7EFpqUpkiRGxYcHCWu54psL+ZnmDW84LG1Pv/Bwg3JobsqMBycL0viqI5UZlpvt4/m9tyc3UrA3NLCqaWdL8A7kzpoh7rOVjsq0iIiIiIiJe4AMOwgwtHOKFDfb7KTtycsbPpxyaPTgUVCJL/uu9L+u4c34FC7+pd8smPQ9MBypb8wLfEacS4+QVwJz9MpW8aondYrbTqQ85jd0UEREREREviQBPAsOA/YEP3L7B4TB5971QVTTq+FUbbni0fHFdva2jKACMHJzKnX8s4J4/FzBiQKobNmkKZqK3Vis8vyPJj2xMMa+8WG5QQa6f565rS1qqks//w+bLolklRc2WdsFMdRlrHYFVCrqIiIiIiHjYaOA8YD8vbKzfx4ZpEzNWnDE9e2CqemRJEx98XcffHipnyY8Nrb0pJZhk1ufxbnhHujmdToyTVwBzD8pU8sodAgqBiIiIiIh43DuY3lhjgVfdvrHhCG0efKVq0KgTVpfe8njF4voG9cgSY7eBqTx8WSGXHJ9L2zatOmCqI/AmMDHeDW9vpigb+BHIjeXGdG0X4KlrCgn4lcBqiQ1fFM8sKW4etuixiLUeuGi6TBERERERkVjkATA1sqZ4YWNTAtbaYw/MXHPc/pmDUgJ6Thajtt7mzmcr+ddzlTQ0tlqSsw44EHg5Xg1ubw+sE4lx8grglMOylLxyD/XAEhERERGRRPMBZjhhEfAYZoY112potNvOe6Ji0O7HrV5z46Pli+rUI0uAUNDid4dm8eRfCtltYKvVx0oFngImxKtB33Zu5Omx3pCdu6YwaUSazsTNsFr+cHUq46cEloiIiIiIJKovgcPxTiKr3R3PVg4Yc/zqNTc/VvGthhYKmFFs887L5/ITc2mT3SoT4aUB8zFDdB23PXs4Aweqzp8xPRufOl9tD6c+uZTAEhERERGRRPcVJpE1FNObxNWZobpGu93tz1T0HT13dcm/5ld8EQ7rACY7y4L9R6fz5NVtGT8s1BqbkA48ixmeC9DOqYZ82/H758R6I4b1DTJycKrOvC2wW+5tVe1QcyFFXEREREREksTnwCFAMfA4EHHzxtbV2x3//khF0cjjV624+/nKz5XIkrxsH38/M4+Lj8slPRT33kHZwIvA88ByYIQTjWxrAmtfoG+sN+L4g7J0tm2djBaWlTvUVqHCLSIiIiIiSeZL4DDM0MJHcXkiq7be7nz9Q+XFI09Y9fODL1cujkR0AJPdwePSefSKQop7B+PddC4mZxTC9GbsHOsGtjWBdWqsN2BwryC7D1Tvq61hmaxmc/VAjQPNFSjiIiIiIiKSpL4GpgGDgYdxeyKrzu7yl/vK+488ftWPD7xU9VlEJbKSWpd2Ae66sIBj9s/Eap1STR2ApzE1smJmWxJYvYFJsd6rEw7K1Nm1tWxyfuNfKhxoTT2wREREREQk2S0Cjog+D98ONLp5Y2vq7J2uuX/TkJHHrVp+7wuVn6tHVvLy++H0adn846w8sjNapcD7MOA+Yjjx3LbsxWnEeMa7vt1SGF2kUktbzSJ16T96tdRdbaMDrakHloiIiIiIiLEMmAsMjD6Uu7rqVE2d3e26B8uLR52w6ocnFlQvVo+s5LXHkBAPXFrAzl1TWqP5qcAfY7WyrU1gZQJHxXpPTjgwq7W6s3lWRfvKloYROlEHSz2wREREREREfm1J9Nm4H3APLu+RVV1rd7/0ro39Rx2/6vsn3qz+ylYiKyl1bRfgnj8XtNYshZcA+8RiRVubwDqclusvbbcenQKMH67eV9sqtS7Q0jBCJbBERERERETiZylwNP8dWtjg5o2trrV7XnrHxkG7H79q2eMLlMhKRmmpFtefkceJh8R9Ej0fcDfQbkdXtLX9n94GRsdyD86Yns2kXdN0Fm2jt76oPvCaeyq+brZ4HrGvT/YeMEoRFxERERER2aKewJ+AGUDA7RublWYtvWB2bsOU0Wn9deiSzxNvVHP5vzYS5xppzwAH7cgKtiaB1RvTTVKD/ZLLCqCLwiAiIiIiIrLVugEXAMfggURWZrr1zflH5TTsPzp9sA5dcnnr01rOuWkDdfVx7Y53AvDP7f2ftyYpdSkmkyzJxcYMG61UKERERERERLZJX+AiYBrbNnlaq8jJ9H125Ult7NFFqUN16JLHwm/qOO1vZVTVxC2JVQkMxQzB3WZbk8D6GhigQ5uUhgGfKgwiIiIiIiLbZQDwZ8xsbK5PZLXN9X90zWm56UP6pA7UoUsOX35Xz4l/WR/PJNaHmBJV2zwBgn8L/94buEyHNGm9iUlgioiIiIiIyLZbBzwGPAFkAYNwcXmeqlq709Nv1RQ++Ub1h8V9guXt8vya3CvBtcvzM7xfKq98WENDfObU7AysxySytsmWEljHEvvi4OIdXwNvKQwiIiIiIiI7ZB3wFDAf6AD0wb2JLKuq1u781JvV+a98UPP2iP6pDW2yfXk6hImrfb6f4j4midUYjkuTuwF3AtXb8j9tKYH1h+iFJcmpBHhSYRAREREREYmJ1cDDwPNAJ5c/b1sbKiI7PfxaVdaChbVvjC4KWVnpvjY6hImpY4Gfot5BXv6wlrDzSaw0IAd4bptOyC38WymgTGvy+gQYrjCIiIiIiIg4YgRwIbCfB7a1vl+3lPduOCu/e7s83046dInp9Y9rOfsfZdjOl8SKRM//hVv7P2wugdUT+E6HL6lVYmYitBUKERERERERx4wELgEmeuE5cbdBqW//5eTcIblZ/vY6dInn5scruP3ping09TYwlq3MOWxuCOFAYI4OXVILAvcDZQqFiIiIiIiIY34G7gMWAN2Bbm5+TlyxNtz77uerwt+taHhrTFGoTUrAStchTBzD+6Wy9KcGfljleFX3nTC1txdvzS9vLoE1HJimQ5f03t7ak0lERERERER2yE/APcC/gR7RB3y3Ci1b2djrrvmV1SvWhd8YOTi1bcBvhXQIvc+yYMyQEG99WktZecTp5noDt23NL26pB9ZhOnRJbynmLYCIiIiIiIjEx3LgX8B7QC+gi4u3Nf0/PzX0ufPZyrLSjeHXdx8Y7OBXIsvzggGLUYNDPPt2DfUNjlYV6gC8D3y/pV/cXAJrAEpgCZQDDykMIiIiIiIicbcMuBN4F+iLmbnQrbIW/9DQ945nK0srqyPvjxgY6uSzSNEh9K7sDB/t2vhZsLDW6aY6Afdu6ZeUwJItSQeuVxhERERERERazTLgDkwiqx8uTmTZkP3ldw297nymYnldAx8M75/a1WcR0CH0pj5dU/ihpJHvVzhaD6s78DKwYnO/pASWbEk2cCtQpVCIiIiIiIi0qmXAPzGJrAFAR7duaMQm/7Ml9X3uml/5fTDF93lR72BXy8KnQ+g9uw1M5YX3aqiscXQoYS7w2OZ+QSePbI3BCoGIiIiIiIhrvAbsAkwFvnLzhjY02jtf/9CmiSOOXfXl/HdqngPCOnzekpXu48/H5jrdzMFsISGrHliyNb7GFA8UERERERER9/gGmAd8ghla2N6tGxoO02HBwto+9z5f+flO7QNLenZO2QmwdAi9oUu7AMtWNvL9SseGEvqANWwm96AeWLI1ihQCERERERERV7KB+cAwYAawxM0bW11nD/39jRvG7TF31b8/WlT3anT7xQPOOjKbUNDRnOPszf2jemDJ1vADtygMIiIiIiIirmVjhhPeAizCdETId+vG1jXQbf47NT0efa36veI+wdXt8/2ddAjdLSvdRzgMC7+pd6qJtsAjQGlL/6geWLI1dgbSFAYRERERERHXi2CKYQ8A5mAKv7uVVVYeHjX7ktJhe5+x5sUfVjZ+oMPnbnP2y6R9vt/JJg78zZNlM//TROBqHR6Jcn1XVBEREREREfkfKZihWX8Eurl8Wxu6dwy8fNPv87t0butXKRuXeuiVKq6+d5NTq38HGNPSP6hgmoiIiIiIiEjiCwLHABcCbh+uV9O7a+D5W8/J37mwjX+QDp271Nbb7HPGGsrKI06svh5oA1Q3/we/Qi8iIiIiIiKS8MLAQuAmYAWwC5Dp0m1NKdsU6X/vi1WZHy6qe3nssFAgLWjl6RC6Q8BvUd9g8/FiR2ph+YEFwA/N/0E9sERERERERESSTxZwBnA2kOPybd2Ym+UrK8z1dUoJWKk6dK2vts5mWUmjU6u/AJW0EhEREREREZEm8oCLgU2YmQz1o5/W/nmgpRNVQwhFREREREREklcN8CbwL0ydrGIgoLBIK7u1+QINIRQRERERERGRX3TBFHo/BiWypHVsxBRy/xUlsERERERERESkuW6YWkTHotFbEn+ZQFXTBT7FRERERERERESaWQ7MBYYAz2BqE4nEy//MOqkEloiIiIiIiIj8lq+Ag4DdgOcUDomTYPMFSmCJiIiIiIiIyJZ8BOwPjAPeVTjEYSnNFyiBJSIiIiIiIiJb6y1gNDAJ+EThEIdUNl+gBJaIiIiIiIiIbKvXgF2Aw4BvFA6JsfLmCzQLoYiIiIiIiIjsCB8wFbgS6KVwyA7aBOS2dJKJiIiIiIiIiGyvCPAY0B8zc+FKhUR2wH9aWqgEloiIiIiIiIjEQgNwO9Ab+D1QqpDIdljc0kIlsEREREREREQklmqA64BuwPnARoVEtsFChUBERERERERE4i0PuBhT28jWj3628DOypZNIRdxFREREREREJB4KMEMLTwdCCoe0IAzkAFUKhYiIiIiIiIi0pi7AbZiaWepxpJ+mP1//1kmjGlgiIiIiIiIiEk8/Y2Yr7I0p+h5WSCTqk9/6ByWwRERERERERKQ1LMcksgYDj2F64EhyUwJLRERERERERFxpMXA4sBvwnMKR1H4zgfV/n7rbltTIvWgAAAAldEVYdGRhdGU6Y3JlYXRlADIwMjEtMDQtMTdUMTM6NTQ6MzArMDA6MDBedbqFAAAAJXRFWHRkYXRlOm1vZGlmeQAyMDIxLTA0LTE3VDEzOjU0OjMwKzAwOjAwLygCOQAAAABJRU5ErkJggg==;" vertex="1" parent="1">
                    <mxGeometry x="567.8299999999999" y="406" width="39.57" height="28" as="geometry"/>
                </mxCell>
                <mxCell id="37" value="&lt;font color=&quot;#000000&quot;&gt;&lt;b&gt;db_bibliteca&lt;/b&gt;&lt;/font&gt;" style="text;html=1;strokeColor=none;fillColor=none;align=center;verticalAlign=middle;whiteSpace=wrap;rounded=0;strokeWidth=1;fontSize=13;fontColor=#6600CC;" vertex="1" parent="1">
                    <mxGeometry x="683.3" y="339" width="67.4" height="40" as="geometry"/>
                </mxCell>
                <mxCell id="38" value="&lt;b&gt;appBibliteca&lt;/b&gt;" style="text;html=1;strokeColor=none;fillColor=none;align=center;verticalAlign=middle;whiteSpace=wrap;rounded=0;strokeWidth=1;fontSize=13;fontColor=#000000;" vertex="1" parent="1">
                    <mxGeometry x="50" y="349" width="60" height="30" as="geometry"/>
                </mxCell>
                <mxCell id="39" value="&lt;b&gt;app-biblioteca&lt;/b&gt;" style="text;html=1;strokeColor=none;fillColor=none;align=left;verticalAlign=middle;whiteSpace=wrap;rounded=0;strokeWidth=1;fontSize=13;fontColor=#000000;" vertex="1" parent="1">
                    <mxGeometry x="231" y="196" width="109" height="30" as="geometry"/>
                </mxCell>
            </root>
        </mxGraphModel>
    </diagram>
</mxfile>